<?xml version="1.0" encoding="UTF-8"?>
<svg id="uuid-69e3e69d-5528-45d0-9918-61dcbec68d5d" data-name="Capa 2" xmlns="http://www.w3.org/2000/svg" viewBox="0 0 1404 315.9">
  <defs>
    <style>
      .uuid-24f56e9c-84c1-48bd-9679-0c274a78e076 {
        fill: #141414;
      }
    </style>
  </defs>
  <g id="uuid-dbaa6691-3f8e-43bf-a258-74ce01df5979" data-name="Capa 1">
    <g>
      <path d="m44.97,169.4H0V.24C1.78.16,3.57.01,5.35.01c70.15-.01,140.3-.03,210.45,0,20.02,0,33.15,13.2,33.16,33.2,0,43.32,0,86.65,0,129.97v6.17h-45.14v-6.05c0-35.99,0-71.98,0-107.98,0-11.51-4.41-15.85-16.08-15.86-9.66,0-19.33,0-28.99,0-9.08,0-11.78,2.74-11.78,11.99,0,37.16,0,74.32,0,111.48v6.39c-2.25.13-4,.32-5.76.33-11,.03-22,.02-32.99.01q-6.37,0-6.38-6.62c0-36.83,0-73.65,0-110.48,0-10.81-2.34-13.1-13.26-13.1-12.5,0-25.01.31-37.49-.14-5.36-.19-6.24,1.67-6.22,6.49.18,39.16.1,78.32.1,117.47,0,1.95,0,3.9,0,6.11Z"/>
      <path d="m1085.22,169.67h-6.06c-44.82,0-89.63,0-134.45,0-14.84,0-23.36-8.36-23.39-23.06-.06-24.32-.06-48.65,0-72.97.04-17.23,10.9-27.96,28.15-27.96,28.16,0,56.31,0,84.47,0,1.95,0,3.91,0,6.38,0V.42h44.91v169.25Zm-45.04-30.94V45.78c-1.76,2.7-2.76,4.11-3.64,5.59-3.47,5.87-7,11.71-10.32,17.67-3.23,5.81-7.96,8.58-14.65,8.48-9.99-.16-19.98-.07-29.97-.03-9.89.04-15.05,5.2-15.09,15.11-.05,11.99-.03,23.98,0,35.97.02,7.81,2.65,10.42,10.55,10.43,19.32.02,38.64.01,57.95,0,1.62,0,3.24-.16,5.16-.26Z"/>
      <path d="m1396.49,169.67c-1.88,0-3.7,0-5.51,0-46.98,0-93.96,0-140.94,0-11.88,0-16.52-4.7-16.53-16.66,0-12.83-.03-25.66,0-38.48.03-12.44,6.38-18.85,18.63-18.85,24.32,0,48.65,0,72.97,0,6.9,0,8.3,1.34,8.37,8.07.05,4.83-.02,9.66-.06,14.49,0,.48-.19.96-.41,2-1.66.07-3.42.22-5.19.22-15.66.02-31.32,0-46.98.02-6.02.01-7.59,1.65-7.63,7.75-.03,3.64,0,7.29,0,11.35h79.16c.07-1.56.22-3.31.23-5.05.02-14.16.03-28.32,0-42.48-.01-9.36-5.12-14.55-14.47-14.56-32.15-.04-64.31-.01-96.46-.01h-6.57c6.89-9.83,12.73-19.1,19.66-27.47,2.24-2.71,7.33-4.18,11.16-4.27,19.48-.44,38.98-.27,58.47-.25,15.82.01,31.66-.13,47.47.25,13.68.33,25.03,11.17,25.19,24.85.37,32.48.08,64.97.04,97.45,0,.3-.21.6-.61,1.64Z"/>
      <path d="m440.95,169.67h-5.83c-46.99,0-93.98,0-140.97,0-11.24,0-15.84-4.54-15.85-15.63-.01-13.66-.04-27.33,0-40.99.04-10.84,6.59-17.36,17.41-17.37,24.66-.02,49.32-.01,73.98,0,6.74,0,8.46,1.75,8.48,8.61.02,4.83-.03,9.66-.07,14.49,0,.31-.17.62-.47,1.69-1.54,0-3.3,0-5.06,0-15.66,0-31.33-.02-46.99.01-6.22.01-7.96,1.79-8.11,8.02q-.28,11.5,11.03,11.5c21.16,0,42.32-.1,63.48.09,4.15.04,5.43-1.18,5.37-5.35-.23-14.16-.04-28.33-.1-42.49-.04-9.57-5.3-14.76-14.9-14.77-31.99-.03-63.98-.01-95.98-.01-1.79,0-3.58,0-7.02,0,7.44-10.23,13.55-19.92,21.11-28.31,2.62-2.9,8.83-3.49,13.41-3.54,29.49-.3,58.98-.16,88.48-.14,5,0,10-.04,14.99.23,12.58.69,23.81,11.36,23.94,23.88.34,32.49.13,64.98.13,97.47,0,.63-.23,1.27-.49,2.61Z"/>
      <path d="m470.77.35h44.49v75.72c.37.11.74.22,1.1.32,5.29-7.57,10.87-14.96,15.78-22.77,3.79-6.02,8.59-8.42,15.7-8.27,19.16.4,38.33,0,57.49.39,13.59.28,24.78,11.61,24.87,25.14.22,32,.08,64,.07,96,0,.65-.15,1.29-.29,2.36h-44.4c-.09-1.84-.28-3.76-.28-5.68-.02-23.5,0-47-.02-70.5,0-10.6-4.99-15.57-15.61-15.58-16.33-.02-32.67,0-49,0h-5.32v91.74h-44.59V.35Z"/>
      <path d="m891.3,169.44h-44.7c-.1-2.09-.28-4.01-.28-5.94-.02-23,0-46-.02-69,0-12.36-4.63-17.03-16.81-17.04-15.81,0-31.62,0-48.09,0v91.84h-45.54V45.67h5.54c40.83,0,81.66,0,122.49,0,16.13,0,27.37,11.17,27.39,27.26.04,30.33.01,60.66.01,91,0,1.64,0,3.27,0,5.51Z"/>
      <path d="m1236.75,45.67c-6.68,9.46-12.48,17.99-18.64,26.25-2.93,3.93-7.28,5.6-12.28,5.57-10-.07-20-.03-30-.01-9.49.02-14.5,4.94-14.52,14.45-.05,23.66-.02,47.33-.02,70.99,0,1.97,0,3.94,0,6.16-1.46.23-2.56.56-3.66.56-12.5.04-25-.05-37.49.08-3.17.03-4.38-.88-4.37-4.23.1-33.66-.06-67.33.13-100.99.06-11.83,7.55-18.82,19.26-18.82,32-.02,63.99,0,95.99,0h5.6Z"/>
      <path d="m705.21,47.15v122.15h-44.3c-.1-1.54-.29-2.98-.29-4.42-.02-26.12.02-52.25-.04-78.37-.01-6.43,2.09-12.12,7.32-15.63,11.96-8.04,24.3-15.51,37.31-23.72Z"/>
      <path d="m660.94.38h44.52c0,9.99.05,19.63-.07,29.25-.01.96-.82,2.25-1.64,2.8-14.06,9.44-28.17,18.79-42.8,28.51V.38Z"/>
      <path class="uuid-24f56e9c-84c1-48bd-9679-0c274a78e076" d="m1084.22,315.9c-.43-2.93-.67-4.54-1.05-7.14-7.83,8.36-17.51,6.68-26.84,6.63-18.28-.1-21.05-11.57-19.17-24.9,1.33-9.47,5.07-12.33,17.04-13.92,9.95-1.32,19.84-1.34,29.83,5.64-.49-6.68-.2-12.67-1.65-18.21-.7-2.67-4.45-5.96-7.22-6.39-6.29-.97-12.86-.67-19.27-.25-4.1.27-7.05,2.84-7.77,7.23-.82,4.96-4.64,2.57-7.14,2.57-.7,0-2.14-2.98-1.98-4.46.74-6.88,4.72-11.63,12.35-12.25,9.36-.76,18.94-.59,28.26.53,8.01.96,12.27,6.47,12.45,14.5.35,15.31.28,30.63.26,45.94,0,6.61-5.09,2.37-8.1,4.46Zm-21.13-32.84c-2.53.21-6.08.11-9.45.86-6.08,1.35-7.77,4.47-7.57,12.58.17,6.96,2.37,10.76,8.02,11.32,6.37.63,12.91.59,19.29-.04,6.73-.66,10.04-5.19,10.06-12.07.02-7.16-2.98-10.99-9.92-12.12-3.1-.5-6.3-.34-10.42-.53Z"/>
      <path class="uuid-24f56e9c-84c1-48bd-9679-0c274a78e076" d="m1356.89,295.41c.29,1.84.61,3.46.8,5.1.41,3.63,2.44,6.05,5.98,6.3,7.44.53,14.95,1.19,22.36.74,6.32-.38,9.18-5.27,8.59-12.33-.52-6.28-3.01-8.57-9.7-8.93-6.81-.36-13.62-.64-20.43-1.07-10.9-.68-15.83-6.25-15.75-17.65.08-11.39,5.15-17.37,15.86-17.55,9.11-.15,18.33-.16,27.31,1.11,7.54,1.06,10.57,6.62,9.71,14.72-2.64,0-5.35,0-8.06,0-2.33-7.44-3.58-8.52-11.61-8.53-5.8-.01-11.67,0-17.4.83-5.24.76-6.7,3.51-6.49,9.46.23,6.33,1.84,8.86,7.25,9.45,7.59.83,15.23,1.15,22.86,1.52,13.57.66,17.2,10.98,15.35,22.78-1.32,8.42-5.41,13.01-13.61,13.5-10.06.6-20.3.38-30.31-.82-8.55-1.02-12.23-7.36-11.15-15.99.42-3.35.95-3.53,8.41-2.64Z"/>
      <path class="uuid-24f56e9c-84c1-48bd-9679-0c274a78e076" d="m1222.25,282.49c.48-5.61.7-11.27,1.5-16.84,1.29-9.06,5.11-13.75,14.14-14.88,8.48-1.06,17.22-.89,25.77-.27,8.44.61,13.38,5.88,14.82,14.35,2.02,11.89,2.06,23.77-.01,35.65-1.43,8.2-6.24,13.49-14.46,14.16-8.56.69-17.34,1.03-25.8-.11-10.51-1.42-14.74-7.93-15.39-20.55-.2-3.82-.03-7.65-.03-11.48-.18-.01-.35-.02-.53-.03Zm48.76.12c-.43-5.19-.69-10.51-1.35-15.78-.76-5.99-3.6-9.04-9.68-9.54-5.91-.49-11.9-.34-17.84-.02-5.06.27-8.81,3.18-9.05,8.31-.51,10.92-.71,21.89-.32,32.81.21,5.78,3.92,9.49,10.09,9.63,5.78.14,11.6.39,17.33-.16,6.07-.58,8.76-3.63,9.5-9.7.62-5.11.89-10.26,1.33-15.55Z"/>
      <path class="uuid-24f56e9c-84c1-48bd-9679-0c274a78e076" d="m942.44,272.84c0-12.15-.19-24.31.09-36.46.11-4.88-1.62-6.4-6.36-6.16-6.64.34-13.32-.02-19.97.13-3.03.07-4.57-.59-4.51-4.11.06-3.18.89-4.38,4.25-4.35,20.64.13,41.29.12,61.93,0,3.24-.02,4.35.97,4.37,4.26.02,3.38-1.3,4.28-4.44,4.21-6.82-.17-13.66.16-20.47-.12-4.22-.17-5.36,1.44-5.33,5.5.15,24.64.08,49.28.07,73.92,0,5.09-3.37,7.51-7.83,5.23-1.09-.56-1.69-3-1.71-4.58-.14-12.48-.08-24.97-.08-37.46Z"/>
      <path class="uuid-24f56e9c-84c1-48bd-9679-0c274a78e076" d="m1136.91,315.86c-4.28-.45-8.64-.54-12.83-1.42-9.87-2.06-14.82-7.57-15.25-17.51-.41-9.26-.48-18.57,0-27.82.6-11.65,7.95-18.82,19.55-19.12,7.43-.19,14.99-.04,22.3,1.12,7.69,1.22,12.36,8.18,12.4,15.95.01,2.7-1.17,3.71-3.58,3.42-2.17-.26-5.14,1.34-5.75-2.78-1.24-8.39-2.88-10.21-11.3-10.94-5.07-.44-10.3-.02-15.35.72-5.18.76-8.53,4.53-8.76,9.56-.46,10.41-.46,20.88,0,31.29.21,4.9,3.8,8.58,8.63,9.09,6.86.72,13.87.81,20.74.23,4.67-.39,6.51-4.27,7.26-8.89.39-2.41-1.26-6.45,3.65-6.85,3.85-.31,5.71.49,5.56,5.01-.36,10.76-6.48,17.4-17.74,18.25-3.14.24-6.32.04-9.48.04-.01.21-.02.43-.03.64Z"/>
      <path class="uuid-24f56e9c-84c1-48bd-9679-0c274a78e076" d="m1169.94,256.73v-5.88c.53-.34.79-.64,1.08-.67,7.4-.71,7.24-.71,7.52-8.42.08-2.35.6-5.88,2.12-6.73,3.81-2.15,6.34.02,6.4,4.62q.14,10.31,10.67,10.31c3.83,0,7.69-.25,11.48.17,1.15.13,3.02,2.23,2.9,3.23-.17,1.39-1.84,3.62-2.98,3.69-5.97.38-11.99.29-17.98.15-2.98-.07-4.15.97-4.12,4.04.11,12.83-.05,25.66.1,38.49.07,6.49,2.9,9.06,9.28,9.09,6.82.04,9.95-2.84,10.26-9.44.3-6.4,1.26-7.52,5.95-6.41.95.22,2.27,1.54,2.33,2.42.6,9.58-1.94,19.61-15.68,20.12-17.16.64-20.79-2.51-20.81-19.51,0-10,0-19.99,0-29.99q0-8.15-8.5-9.27Z"/>
      <path class="uuid-24f56e9c-84c1-48bd-9679-0c274a78e076" d="m990.83,250.58c.16,2.23.3,4.19.53,7.39,6.24-8.33,14.34-8.8,22.79-8.11,9.34.77,16.2,10.32,13.69,19.39-.28,1.01-2.38,2.11-3.63,2.1-1.49-.02-2.98-1.17-4.43-1.9-.15-.08-.08-.63-.09-.96-.28-8.72-2.76-11.76-11.73-12.08-9.43-.34-15.24,3.97-15.88,12.76-.84,11.59-.53,23.25-.7,34.89-.03,2.33-.15,4.67.02,6.99.23,3.35-1.31,4.2-4.45,4.23-3.26.03-4.35-1.02-4.32-4.3.12-18.14.05-36.28.05-54.42,0-7.35.06-7.39,8.17-5.99Z"/>
      <path class="uuid-24f56e9c-84c1-48bd-9679-0c274a78e076" d="m1302.72,249.49c.25,3.24.4,5.19.65,8.34,6.28-8.14,14.37-8.66,22.8-7.95,9.33.79,16.21,10.42,13.67,19.41-.28,1.01-2.4,2.09-3.65,2.07-1.49-.03-2.97-1.18-4.41-1.92-.16-.08-.05-.63-.1-.96-1.6-9.67-3.96-12.12-11.74-12.13-9.54-.02-14.76,3.94-15.95,12.81-.66,4.91-.54,9.93-.59,14.91-.08,8.98-.12,17.96.01,26.94.05,3.28-1.21,4.28-4.42,4.28-3.18,0-4.4-.9-4.38-4.24.12-18.96.13-37.92.02-56.88-.04-7.05,4.86-3.04,8.09-4.67Z"/>
    </g>
  </g>
</svg>