<?xml version="1.0" encoding="UTF-8"?>
<svg id="uuid-a087da85-6be2-4bfe-ae8a-70112d6dbcde" data-name="Capa 2" xmlns="http://www.w3.org/2000/svg" viewBox="0 0 1249.45 268.08">
  <g id="uuid-1ac96453-8572-4af6-809a-33ac2b79d164" data-name="Capa 1">
    <g>
      <path d="m102.52,29.53c-.87,4.35-1.55,8.76-2.65,13.06-4.87,19.13-9.73,38.27-14.83,57.34-6.03,22.57-12.35,45.05-18.38,67.62-.75,2.82-1.82,3.85-4.81,3.72-6.3-.26-12.62-.08-19.11-.08C28.49,114.98,14.28,58.95,0,2.67h23.31c10.89,47.33,21.82,94.81,32.76,142.35.64-3.15,1.17-6.43,1.98-9.65,6.34-25.27,12.65-50.55,19.12-75.79,4.61-17.96,9.49-35.85,14.16-53.8.6-2.32,1.34-3.52,4.12-3.38,5.71.28,11.45.13,17.17.05,1.73-.02,2.57.31,3.04,2.28,8.21,34.83,16.66,69.61,24.76,104.46,2.61,11.22,4.37,22.64,6.51,33.96.11.56.24,1.12.22,1.05,11.93-46.9,23.98-94.29,36.02-141.61h22.68c-15.94,56.27-31.84,112.36-47.77,168.58-7.22,0-14.24.06-21.26-.09-.71-.01-1.84-1.12-2.03-1.9-6.13-25.02-12.23-50.05-18.2-75.11-3.39-14.24-6.65-28.51-9.75-42.81-1.42-6.56-2.33-13.22-3.47-19.84-.11-.64-.24-1.27-.36-1.9-.16,0-.32,0-.48,0Z"/>
      <path d="m313.65,74.03v18.03h-64.89v60.71h72.55v18.16h-94.72V2.68h90.87v18.03h-68.75v53.33h64.93Z"/>
      <path d="m1024.26,147.29c1.45,5.63,2.79,10.84,4.28,16.64-4.4,1.44-8.67,3.1-13.07,4.23-15.23,3.92-30.71,5.37-46.18,2.06-24.4-5.23-39.54-20.48-44.93-44.72-4.7-21.18-2.7-41.85,8.81-60.69,12.62-20.65,31.81-28.91,55.5-26.96,25.78,2.12,39.02,19.22,44.45,39.74,2.28,8.62,2.88,17.39,2.4,26.26-.08,1.47-.4,2.93-.65,4.7h-4.05c-27.61,0-55.22,0-82.82,0-4.04,0-4,0-3.67,4.03.76,9.47,3.07,18.42,9.07,26.02,8.41,10.64,19.97,14.72,33.03,15.21,12.86.47,25.41-1.27,37.83-6.52Zm-79.71-55.48c.71.19,1.18.42,1.65.42,21.68.02,43.37.02,65.05.05,1.75,0,2.37-.82,2.18-2.41-.39-3.28-.55-6.62-1.29-9.82-2.26-9.76-6.83-18.07-16.2-22.7-12.59-6.22-31.59-4.56-42.07,10.01-5.27,7.32-8.25,15.43-9.31,24.45Z"/>
      <path d="m661.71,168.91V40.23h19.63c.51,7.12,1.01,14.03,1.5,20.94.22.04.44.08.67.12.93-1.39,1.79-2.83,2.8-4.15,11.32-14.86,26.59-21.04,44.85-19.21,22.85,2.29,35.92,18.51,39.14,39.71.94,6.22,1.21,12.58,1.25,18.88.14,22.79.06,45.59.06,68.38v3.78h-23.19c0-1.21,0-2.37,0-3.53-.04-25,.17-50.01-.28-75-.11-5.96-1.65-12.2-3.92-17.75-5.64-13.79-19.11-17.94-31.53-15.43-16.15,3.27-27.31,17.27-27.36,33.88-.06,24.8-.06,49.6.05,74.4.01,2.85-.69,3.82-3.65,3.72-6.4-.22-12.81-.07-20-.07Z"/>
      <path d="m790.63,40.27c6.29,0,12.31-.07,18.32.1.67.02,1.77,1.42,1.85,2.26.51,5.09.78,10.2,1.12,15.31.07,1.04.14,2.09.95,3.37.68-1.03,1.36-2.05,2.04-3.08,15.27-23.22,50.86-27.82,70.82-9.08,8.51,7.98,12.53,18.26,14.11,29.55.71,5.05,1.06,10.19,1.08,15.29.11,23.6.05,47.2.05,70.8v3.84h-23.14c0-1.16,0-2.33,0-3.49,0-23.8.04-47.6-.03-71.4-.02-6.75-.99-13.35-3.42-19.75-5.62-14.79-19.37-19.59-32.08-17.08-16.62,3.29-27.8,17.56-27.83,34.87-.04,24.2-.01,48.41-.01,72.61v4.27c-1.21.09-2.26.23-3.31.23-5.32.02-10.66-.19-15.96.09-3.2.17-3.8-1.02-3.79-3.94.09-30.93.12-61.86.02-92.79-.03-9.53-.52-19.06-.79-28.59-.03-.99,0-1.98,0-3.39Z"/>
      <path d="m457.92,148.8c1.2,4.96,2.15,9.68,3.51,14.27.72,2.4-.15,3.38-2.18,3.9-6.68,1.72-13.29,3.89-20.07,4.98-15.47,2.48-30.98,2.65-46.28-1.41-29.22-7.77-47.5-26.57-54.82-55.71-5.2-20.7-4.63-41.45,2.93-61.57,9.68-25.75,28.13-42.26,54.6-49.49,20.43-5.58,40.88-4.82,61.12,1.33,1.9.58,3.71,1.42,5.82,2.24-1.82,5.88-3.57,11.56-5.19,16.8-6.91-1.78-13.38-4.01-20.03-5.05-14.91-2.34-29.68-1.5-43.66,4.76-20.6,9.22-31.06,26.06-34.8,47.65-2.2,12.7-1.8,25.38,1.21,37.94,5.94,24.8,23.74,41.23,49.05,45.04,15.87,2.39,31.39.82,46.44-4.88.64-.24,1.31-.43,2.36-.78Z"/>
      <path d="m1149.34,61.84c-9.69-4.75-19.48-6.3-29.66-5.93-21.62.79-37.37,14.59-41.88,36-2.81,13.34-1.86,26.45,4.6,38.65,7.71,14.56,20.33,21.74,36.55,22.67,10.04.57,19.79-1.13,29.07-5.14.55-.24,1.14-.35,2.14-.66,1.19,5.32,2.46,10.54,3.39,15.82.12.67-1.34,2.04-2.32,2.42-10.58,4.11-21.56,6.03-32.92,6.15-14.31.16-27.71-2.84-39.59-11.1-13.29-9.24-21.05-22.22-23.94-37.93-4.39-23.86-.91-46.06,16.01-64.63,11.1-12.18,25.43-18.21,41.62-20.04,12.85-1.46,25.43-.25,37.63,4.22,1.03.38,2.14.71,3,1.34.57.42,1.22,1.47,1.07,2.02-1.47,5.29-3.1,10.54-4.78,16.13Z"/>
      <path d="m554.14,99.03c-1.02-1.53-1.24-7.33-.03-8.42.9-.81,2.46-.88,3.71-1.3.87-.29,1.73-.63,2.59-.95-.61-1.03-1.21-2.08-1.85-3.09-.15-.23-.47-.34-.98-.7,3.67-2.85,7.24-5.63,10.41-8.09-.4-1.4-.75-2.62-1.18-4.14-3.8-1.25-3.61-1.83-1.45-5.85,2.66-4.93,6.51-8.34,11.09-11.2.5-.31,1.1-.81,1.59-.75,2.59.32,5.15.79,8.54,1.34-1.68.91-2.91,1.57-4.23,2.28.99,2.26,2.9,2.41,4.75,1.21.85-.55,1.06-2.09,1.44-2.92.91-.39,1.87-.83,2.84-1.22,1.38-.56,2.73-1.25,4.17-1.58.82-.19,2.18.79,1.62-1.19,1.06-.26,2.12-.52,3.34-.82v-4.9c.24-.08.49-.17.73-.25,1.11,2.09,2.23,4.18,3.34,6.28.32-.17.64-.35.96-.52l-2.38-3.43.36-.63c1.24.28,2.48.57,3.85.88-.76-.9-1.53-1.8-2.34-2.75,6.8-4.06,9.69.11,11.56,5.5,1.23-.96,2.02-1.59,2.81-2.21.62.96,1.79,1.94,1.75,2.87-.14,3.03,1.86,4.45,3.89,5.83,1.37.93,2.08,1.69,1.74,3.62-.27,1.54.61,3.29,1.05,5.26,1.11-1.04,1.68-1.57,2.26-2.11.59.68,1.17,1.37,1.76,2.04.58.66,1.1,1.41,1.79,1.93,1.9,1.4,3.91,2.46,2.12,5.52-.51.87.58,2.81,1.18,4.14.51,1.14,1.38,2.12,2.09,3.17-.24.19-.48.39-.73.58-.56-.44-1.09-1.18-1.7-1.26-.7-.09-1.48.41-2.22.65.25.63.35,1.66.77,1.82,4.12,1.54,3.82,5.61,4.98,8.75.52,1.39.85,3.67.09,4.57-2.33,2.79-2.68,5.69-1.97,9,.04.19-.33.46-.69.94-.97-.64-1.91-1.27-2.85-1.89-2.68,1.86-3.38,4.52-3.44,7.58-.06,3.24-.35,6.48-.64,9.71-.04.47-.61,1.27-.9,1.26-.71-.03-1.68-.25-2.05-.76-2.32-3.12-4.5-6.35-6.75-9.53-.44-.63-.86-1.57-1.46-1.74-3.24-.9-4.47-3.35-5.37-6.24-.44-1.42-1.18-2.8-2.05-4-.56-.78-1.53-1.36-2.44-1.77-.98-.44-2.1-.58-3.84-1.02.52,1.47.67,3.04,1.54,3.9.45.46,2.14-.31,3.45-.56,3.13,3.29,3.08,3.91-.47,7.02-1.49,1.3-2.87,2.73-4.23,4.17-1.78,1.89-3.36,1.44-4.71-.8-2.18-3.6-4.71-6.98-7.12-10.44-.14-.21-.51-.27-.78-.38-2.92-1.24-3.3-2.58-1.43-5.15.4-.55.84-1.07,1.61-2.03-2.18.18-3.86.45-5.54.43-1.83-.02-3.69-.39-3.67-2.8.02-2.3-1.21-1.81-2.49-1.43.15,1.42.29,2.76.43,4.1-.32.08-.64.16-.96.24-3.15-2.64-5.26-6.38-9.04-8.14-.7,1.4-.44,1.87,1.33,2.74,1.01.5,2.48,1.38,2.55,2.2.13,1.43-.66,2.94-.99,4.18-2.42-2.71-4.42-4.95-6.57-7.37-.96,1.09-2.38,2.67-3.96,1.11-1.08,1.22-2,2.25-3.22,3.63,1.08,2.8-1.31,3.9-3.71,4.89,3.77-.42,7.53-.84,11.3-1.26.08.31.16.62.23.94-.5.65-1,1.29-1.98,2.56,4.09,1.29,7.84,2.47,12.21,3.84-.33-1.84-.47-2.65-.76-4.29,2.94,1.81,6.26-.36,8.49,3.11,1.87,2.92,4.62,5.27,6.82,8,.58.72.54,1.93.75,2.79,1.34.97,2.69,1.95,4.36,3.15,1-.32,2.55-.81,4.11-1.31.24.27.47.53.71.8-1.45,1.73-2.82,3.55-4.38,5.17-.95.99-2.24,1.67-3.32,2.55-2.12,1.75-3.78,3.5-2.75,6.77.63,2-.39,3.67-3.02,3.76-.59.02-1.11,1.19-1.71,1.79-1.65,1.63-1.79,4.57-5.08,4.86-2.18.19-4.24,1.6-6.4,2.36-.9.32-1.9.38-2.1.42-2.35-3.69-4.43-6.94-6.62-10.39q3.71-4.8-1.2-8.25c.46-1.1.94-2.24,1.66-3.96-3.53-.31-7.01.1-9.86-1.05-3.17-1.29-7.26-.27-9.63-3.67-.24-.34-1.12-.19-1.68-.35-2.39-.71-3.15-2.44-2.25-4.7.26-.64.19-1.49.04-2.19-.55-2.57.76-4.55,2.64-5.59,1.65-.91,3.12-1.45,3.62-3.51.14-.59,1.38-.92,2.13-1.37Z"/>
      <path d="m1249.43,40.24v17.49c-1.21,0-2.28,0-3.34,0-9.04,0-18.07.03-27.11-.03-1.87-.01-3.01.24-3,2.54.14,24.39.12,48.79.42,73.18.04,3.5,1.15,7.15,2.47,10.44,2.32,5.77,7.04,8.68,13.21,8.74,4.89.04,9.78-.39,15.13-.63.37,5.21.78,10.86,1.22,17.04-4.29.85-8.35,1.98-12.48,2.41-8.54.9-17.05.81-25.04-3.1-11.33-5.53-15.14-15.7-16.58-27.21-.51-4.07-.7-8.2-.71-12.3-.07-22.49-.08-44.98.03-67.47.01-2.91-.81-3.84-3.72-3.69-4.51.23-9.04-.02-13.55.1-2.03.05-2.89-.49-2.82-2.68.13-4.8.04-9.6.04-14.87h19.9v-24.07c7.42-2.25,14.65-4.44,22.32-6.76.08,1.43.18,2.48.18,3.53.01,8.03.09,16.07-.04,24.1-.04,2.47.7,3.31,3.22,3.28,8.93-.13,17.87-.05,26.81-.04,1.08,0,2.16,0,3.45,0Z"/>
      <path d="m501.75,56.45c-.63,1.97-1.25,3.94-1.88,5.91.37.23.73.47,1.1.7,2.69-3.18,5.39-6.35,8.22-9.7.28.65.58,1.35.99,2.28,1.02-.8,1.84-1.44,3-2.34-.19.92-.3,1.44-.45,2.18.82-.16,1.54-.3,2.67-.52-.33,1.31-.65,2.32-.82,3.36-.15.93-.14,1.89-.19,2.83.72-.54,1.46-1.06,2.16-1.64.43-.36.78-.81,1.17-1.21.29.17.59.33.88.5-.6,1.3-1.05,2.71-1.85,3.86-.88,1.27-3.04,1.7-2.44,3.97.04.14-1.14.77-1.81.91-1.05.21-2.14.19-2.78.23-.74,2.3-1.41,4.4-1.99,6.2,2.05,2.22,4.01,4.33,6.13,6.63,1.07-3.64,2.2-7.51,3.33-11.37,2.75.78,2.88,1.71,3.47,7.27,1.12-.45,2.17-.86,3.34-1.33-.44,3.14-.88,6.22-1.28,9.01-1.4.15-2.89.15-4.25.56-.47.14-.63,1.32-1.21,2.68,1.62-.53,2.43-.8,3.42-1.13,1.77,2.05.73,3.97-1.14,4.42-4.54,1.1-4.31,5.35-6.18,8.19-.05.08,0,.21-.05.29-.85,1.6-2.17,3.12-2.44,4.81-.26,1.57.59,3.33.62,5.25-1.89-1.31-2.6-4.61-5.75-3-.87.44-1.96.71-2.54,1.4-1.84,2.2-.77,5.22,2.89,8.02.62-.93,1.23-1.85,1.96-2.94,1.52,1.68-1.3,4.07,1.45,5.66,1.34.77,1.27,3.71,2.3,5.38,1.07,1.72,2.7,3.09,4.17,4.7-1.76,1.62-3.18,1.06-4.3-.25-2.24-2.62-4.46-4.85-8.44-3.39-.67.25-2.09-1-2.92-1.8-1.7-1.64-3.47-3.3-4.8-5.23-2.13-3.1-3.92-6.43-5.85-9.67-.38-.64-.74-1.28-1.72-1.61,1.01,1.8,2.02,3.6,3.04,5.39-.25.16-.5.31-.75.47-2.21-1.07-3-3.34-3.65-5.51-.98-3.24-1.44-6.64-2.52-9.83-1.83-5.42-1.24-10.57.55-15.88,2.82-8.39,7.14-15.91,12.64-22.76.95-1.18,2.63-1.77,3.97-2.64.18.22.36.44.54.65Z"/>
      <path d="m771.01,266.96c-3.81,0-6.9.17-9.96-.1-.91-.08-1.89-1.27-2.53-2.17-4.04-5.74-8.09-11.48-11.96-17.34-4.02-6.08-9.45-9.01-16.8-8.4-2.58.21-5.19.03-8.23.03v27.84h-8.46v-62.31c.32-.09.68-.29,1.05-.29,11.45.03,22.9-.16,34.34.2,9.74.31,15.97,6.13,17.03,15.06.94,7.93-3.53,14.52-11.86,17.34-1.8.61-3.68.97-6.03,1.58,5.66,3.24,9.51,7.84,12.86,12.94,3.3,5.02,6.73,9.96,10.55,15.6Zm-49.53-34.98c6.81,0,13.21.08,19.6-.04,2.49-.05,5.01-.36,7.43-.93,5.06-1.2,8.13-5.1,8.07-9.85-.06-4.7-3-8.78-8.19-9.28-8.82-.85-17.71-.82-26.65-1.16-.13,1.37-.25,2.05-.25,2.74-.01,6.01,0,12.01,0,18.54Z"/>
      <path d="m1082.4,218.44v48.39h-8.02v-62.61c2.59,0,5.18-.2,7.72.1.93.11,1.9,1.28,2.54,2.19,10.22,14.52,20.38,29.08,30.56,43.62.61.87,1.28,1.71,2.34,3.14v-48.86h8.31v62.53c-2.7,0-5.38.17-8.02-.1-.82-.09-1.65-1.29-2.25-2.15-10.27-14.61-20.5-29.24-30.74-43.87-.6-.86-1.23-1.69-1.85-2.53-.2.05-.39.1-.59.15Z"/>
      <path d="m791.01,266.8h-8.32v-62.6c2.54,0,5.03-.19,7.47.09.96.11,2.02,1.11,2.64,1.99,10.29,14.59,20.52,29.22,30.77,43.84.61.87,1.27,1.71,2.45,3.29v-48.99h8.17v62.54c-2.61,0-5.12.23-7.56-.11-1.02-.14-2.09-1.32-2.77-2.28-10.4-14.75-20.74-29.55-31.1-44.33-.4-.57-.82-1.13-1.76-2.4v48.96Z"/>
      <path d="m562,252.53v-48.17h7.98v62.59c-2.59,0-5.18.2-7.72-.11-.92-.11-1.88-1.3-2.52-2.21-10.4-14.77-20.75-29.57-31.12-44.36-.44-.63-.95-1.22-1.89-2.44v48.91h-8.16v-62.52c2.61,0,5.28-.14,7.92.09.76.07,1.56,1.1,2.1,1.87,10.28,14.61,20.51,29.24,30.77,43.87.63.89,1.29,1.76,1.93,2.64.24-.06.47-.11.71-.17Z"/>
      <path d="m1059.86,235.56c.01,14.81-7.18,26.41-19.97,30.51-25.26,8.1-43.41-9.64-42.98-29.98.29-13.69,4.85-24.72,18.03-30.31,19.18-8.14,45,1.5,44.91,29.78Zm-8.46.17c-.81-3.9-1.25-7.92-2.5-11.66-2.89-8.67-10.81-13.89-20.41-13.93-9.85-.05-17.61,5.14-20.74,13.91-2.11,5.9-2.34,12.02-1.41,18.11,2.44,15.93,20.25,24.09,33.92,15.6,8.12-5.04,10.62-12.89,11.15-22.02Z"/>
      <path d="m481.57,98.8c4.47,12.86,9.23,24.6,16.92,35.01,2.72,3.68,6.07,3.88,9.86,3.9.88,0,1.95-.31,2.61.08,2.2,1.29,4.13,2.31,6.88,1,.85-.41,3.11.92,4.01,2.03,2.14,2.64,4.29,3.62,7.83,2.83,2.59-.57,5.43.05,7.61,2.49,1.53,1.71,1.81,2.71-.18,3.84,1.53,2.95,3.02,5.85,4.55,8.81-1.3,1-2.54,1.8-3.6,2.79-1.91,1.78-1.58,3.46.78,4.53,11.17,5.09,22.93,7.82,35.13,8.76.7.05,1.4.12,2.09.23.49.07.97.22,1.56.35-48.51,9.7-98.51-25.7-96.05-76.64Z"/>
      <path d="m648.38,266.77v-62.41h47.25v7.12h-38.64v19.21h36.23v7.33h-36.16v21.46h40.11v7.3h-48.79Z"/>
      <path d="m906.79,266.96c-2.95,0-5.64.15-8.31-.09-.77-.07-1.76-1.12-2.11-1.95-2.1-4.99-3.97-10.07-6.13-15.03-.39-.9-1.79-1.91-2.75-1.93-7.92-.15-15.85-.16-23.78,0-.93.02-2.32,1.08-2.68,1.98-2.26,5.56-4.28,11.22-6.4,16.88h-9.14c1.18-3.03,2.23-5.8,3.34-8.55,6.93-17.2,13.9-34.39,20.75-51.61.76-1.9,1.78-2.28,3.71-2.57,5.22-.77,7.59,1.31,9.58,6.19,7.57,18.56,15.7,36.88,23.62,55.29.11.26.13.57.29,1.38Zm-42.31-25.9h22.24c-3.86-9.9-7.62-19.52-11.33-29.03-3.61,9.61-7.21,19.17-10.91,29.03Z"/>
      <path d="m1198.4,266.63c-.34.17-.42.24-.5.25q-8.96.69-12.18-7.56c-1.24-3.18-2.4-6.39-3.88-9.46-.43-.9-1.81-1.88-2.78-1.9-7.83-.15-15.66-.03-23.48-.13-1.71-.02-2.5.58-3.05,2.13-1.71,4.82-3.65,9.56-5.27,14.4-.7,2.07-1.74,2.86-3.9,2.65-1.96-.19-3.95-.04-6.33-.04,2.44-6.11,4.74-11.85,7.05-17.6,5.65-14.05,11.36-28.07,16.9-42.16.91-2.31,2.06-3.15,4.57-3.08,6.24.19,6.21.07,8.6,5.64,7.75,18.06,15.52,36.1,23.27,54.16.38.89.66,1.82.98,2.7Zm-20-25.5c-3.91-10-7.66-19.59-11.35-29.05-3.66,9.69-7.27,19.27-10.96,29.05h22.32Z"/>
      <path d="m635.57,204.42v7.05h-21.54v55.32h-8.67v-55.18h-21.51v-7.19h51.72Z"/>
      <path d="m957.89,204.39v7.1h-21.57v55.27h-8.61v-55.18h-21.58v-7.19h51.77Z"/>
      <path d="m1217.03,259.61h32.42v7.21h-40.77v-62.44h8.35v55.23Z"/>
      <path d="m980.41,266.84h-8.31v-62.46h8.31v62.46Z"/>
      <path d="m491.49,204.36h8.25v62.42h-8.25v-62.42Z"/>
      <path d="m549.71,39.21c-2.72,3.39-3.13,6.08-1.43,9.34-2.08,1.93-4.1,3.78-6.08,5.66-.27.26-.62.71-.56,1.01.8,4.49-2.98,5.55-5.56,7.53-1.69,1.3-3.34,2.65-5.01,3.97.14.26.28.51.42.77-1.19-.61-2.38-1.21-4.14-2.11,1.1-1.44,1.88-2.94,3.08-3.91,1.51-1.22,1.73-2.33.49-4.03-.65.17-1.44.37-2.36.6-.5-2.88-.97-5.58-1.5-8.66-1.4.46-2.81.92-4.8,1.57.77-1.67,1.07-3.1,1.93-3.94.9-.88,2.35-1.19,3.56-1.76l-.29-1.25c-1.1.17-2.33.11-3.28.58-1.23.61-2.17,1.76-3.37,2.46-.46.27-1.27-.05-1.92-.11.07-.65-.1-1.52.26-1.9,2.9-3.07,6.17-5.74,10.4-6.61,1.22-.25,2.69.74,4.36,1.25,4.11-.62,8.66-1.31,13.82-2.08-1.56.97-2.65,1.65-3.74,2.34.06.15.12.29.18.44,1.84-.39,3.69-.78,5.53-1.18Z"/>
      <path d="m582.55,144.99c4.22-3.37,7.77-6.67,11.79-9.27,2.8-1.81,6.22-2.66,9.36-3.94.72,2.02.61,1.88-1.34,3.42-2.1,1.66-5.51,1.77-6.21,5.14-.03.16-.53.31-.8.3-4.35-.18-7.56,2.38-10.99,4.46-.26.16-.72-.03-1.79-.12Z"/>
      <path d="m558.25,30.33c.97,1.58,1.69,2.76,2.41,3.94l1.16-1.09c-.19,2.03-.38,4.05-.57,6.08-.27.13-.53.26-.8.4-.55-.97-1.1-1.94-1.54-2.7-1.32-1.13-3.51-2.12-3.71-3.41-.28-1.78,1.26-3.42,3.04-3.22Z"/>
      <path d="m546.66,62.84c1.55-2.91,3.74-3.18,6.81-.21-2.52,1.31-4.92,2.56-7.05,3.68-.86-1.03-1.74-2.09-3.03-3.64.9.05,1.88.1,3.28.17Z"/>
      <path d="m524.39,114.59c-4.95-.71-10.35.62-14.69-2.87.08-.38.16-.76.24-1.14,4.87.99,9.73,1.99,14.6,2.98l-.15,1.02Z"/>
      <path d="m620.31,143.13c2.91,3.16,2.98,4.71.4,7.04-.14-2.38-.25-4.37-.4-7.04Z"/>
      <path d="m627.68,143.88c-.57,1.23-1,2.56-1.77,3.64-.36.52-1.37.58-2.09.85-.04-.71-.41-1.72-.07-2.07,1.05-1.1,2.37-1.96,3.58-2.91.12.16.23.33.35.49Z"/>
    </g>
  </g>
</svg>