<?xml version="1.0" encoding="UTF-8"?>
<svg id="uuid-4e8fee16-98b7-405b-af59-82f74a9d7029" data-name="Capa 2" xmlns="http://www.w3.org/2000/svg" viewBox="0 0 2902.38 1189.91">
  <defs>
    <style>
      .uuid-e2f6efd0-1488-4716-95a1-60c1e73555e4 {
        fill: #0f0f0f;
      }
    </style>
  </defs>
  <g id="uuid-8849e898-48a4-4222-b817-14ac1ee4660c" data-name="Capa 1">
    <g>
      <path d="m894.35,859.86c-5,71.47-28.41,136.1-72.44,192.86-43.22,55.72-98.11,95.52-165.23,117.51-20.03,6.56-40.96,10.39-61.54,15.21-3.5.82-7.29.35-10.95.48-4.14.45-8.28.9-12.42,1.35-7.99.13-15.98.37-23.98.37-177.86.02-355.73.02-533.59,0-3.99,0-7.99-.17-11.98-.25-.07-4.33-.2-8.66-.2-12.98,0-386.35,0-772.7,0-1159.05,0-4.33.12-8.66.19-12.98,3.66-.12,7.31-.35,10.97-.35,179.04-.02,358.08-.01,537.12-.03,6.64,0,13.28-.17,19.92-.26,20.8,1.37,41.09,5.31,61.48,9.79,42.64,9.38,81.15,27.39,116.55,52.23,56.57,39.68,97.51,91.88,122.4,156.43,8.97,23.27,15.46,47.26,18.93,71.99,1.28,9.14,1.87,18.37,2.77,27.56-.02,15.43-.03,30.87-.05,46.3-6.39,87.2-41.33,161.38-103.12,223.76,63.71,63.14,98.89,138.86,105.15,227.79,0,14.09,0,28.19,0,42.28Zm-520.41,131.42c1.66.12,3.31.36,4.97.36,56.18.02,112.37.06,168.55-.06,4.92-.01,9.84-1.08,14.75-1.66,70.77-4.64,130.81-62.93,138.08-134.03,2.94-11.44,2.94-22.87-.03-34.31-1.15-6.43-1.95-12.95-3.5-19.28-7.13-29.15-21.9-53.91-43.82-74.35-26.16-24.39-57.42-37.25-92.85-40.46-4.57-.61-9.14-1.75-13.71-1.75-98.89-.03-197.79.04-296.68.2-3.92,0-7.83.97-11.75,1.48-18.57.16-37.13.32-55.7.47-.74,3.49-2.12,6.97-2.12,10.46-.12,94.22-.12,188.45,0,282.67,0,3.51,1.34,7.01,2.06,10.52,2.66.1,5.32.29,7.98.28,54.94-.04,109.88-.09,164.82-.17,6.32,0,12.64-.24,18.96-.37Zm-71.83-801.02c-37.55-.1-75.11-.24-112.66-.21-2.46,0-4.91,1.28-7.37,1.96l-.17-.13c-.63,3.87-1.81,7.75-1.81,11.62-.1,92.92-.1,185.83,0,278.75,0,3.87,1.2,7.74,1.84,11.61h.06c3.81.72,7.61,2.05,11.42,2.07,26.99.11,53.98-.07,80.97-.11,88.64-.11,177.27-.18,265.91-.36,4.6,0,9.2-.89,13.8-1.37,9.07-1.41,18.19-2.6,27.22-4.28,61.08-11.38,112.6-69.37,117.05-131.62,2.77-10.86,2.71-21.72-.08-32.56-6.74-69.08-63.33-127.4-136.02-134.01-5.24-.56-10.48-1.61-15.72-1.62-77.83-.11-155.65-.08-233.48-.06-3.65,0-7.31.2-10.96.31Z"/>
      <path d="m1501.64,203.64c-46.51,3.37-91.06,14.8-132.81,35.35-120.78,59.43-194.21,155.53-220.3,287.58-2.29,11.6-3.19,23.47-4.74,35.21-.47,4.12-.93,8.23-1.4,12.35-.14,3.6-.51,7.2-.36,10.79.43,11.06,1.06,22.12,1.62,33.18,5.61,92.25,40.02,172.42,101.8,240.84,38.29,42.41,84.16,74.41,136.69,96.96,19.88,8.53,40.35,15.18,61.39,20.01,15.68,3.6,31.46,6.84,47.32,9.51,6.82,1.15,13.95.45,20.95.59,7.24.59,14.48,1.67,21.73,1.69,49.16.11,98.32-.03,147.49-.02,28.23,0,56.46.15,84.7.23.05,66.48.1,132.96.15,199.44-1.99.1-3.98.28-5.98.28-78.56.01-157.13.02-235.69,0-5.99,0-11.98-.26-17.97-.4-5.47-.44-10.93-.89-16.4-1.33-93.5-6.48-180.34-34.5-260.3-82.87-112.13-67.83-193.33-162.7-243.84-283.7-18-43.14-29.73-88.01-37.42-134.05-2.4-14.35-4.35-28.69-4.64-43.24-.45-5.47-.9-10.94-1.35-16.41-.13-1.28-.27-2.55-.4-3.83,0-18.03-.01-36.05-.02-54.08l.41.17c.49-6.81.98-13.61,1.47-20.42.17-3.2.34-6.39.51-9.59.5-4.11,1.01-8.22,1.51-12.33,4.44-46.21,15.7-90.86,31.54-134.37,67.92-186.57,224.93-326.83,417.96-373.79,22.42-5.45,44.92-9.96,67.99-11.55,14.21-.98,28.37-2.71,42.56-4.1,2.98.17,5.96.48,8.95.48,79.62-.04,159.24-.13,238.87-.15,3.83,0,7.67.59,12.47.98,0,5.38,0,9.66,0,13.93,0,50.95.02,101.91-.02,152.86,0,9.99-.23,19.97-.35,29.96-74.32.04-148.65.05-222.97.19-4.92,0-9.83,1.06-14.74,1.63-3.3.22-6.61.44-9.91.66-5.49.45-10.98.9-16.46,1.35Z"/>
      <path class="uuid-e2f6efd0-1488-4716-95a1-60c1e73555e4" d="m2507.83,593.49c.06.78.12,1.56.18,2.34-2.25,2.29-4.92,4.3-6.68,6.92-41.65,62.02-83.22,124.09-124.74,186.2-1.81,2.71-3.03,5.83-4.52,8.75-2.68,3.35-5.63,6.52-8.01,10.07-45.11,67.45-90.12,134.96-135.22,202.41-39.56,59.16-79.21,118.25-118.82,177.37-84.93.01-169.86.05-254.79-.04-4.58,0-9.15-1.1-13.73-1.69,31.76-47.7,63.44-95.46,95.28-143.11,84.78-126.88,169.63-253.72,254.47-380.57,12.78-19.11,25.73-38.1,38.54-57.19,7.53-11.23,7.28-9.63-.25-20.9-73.71-110.24-147.46-220.45-221.16-330.69-46.11-68.97-92.15-137.99-138.22-206.99-9.43-14.13-18.86-28.26-28.29-42.39,4.87-.67,9.75-1.91,14.62-1.92,84.51-.11,169.02-.08,253.53-.07,60.59,90.47,121.18,180.95,181.79,271.41,24.09,35.96,48.21,71.91,72.44,107.78,2.18,3.22,5.25,5.84,7.91,8.74,1.32,2.97,2.25,6.2,4.03,8.86,41.68,62.46,83.45,124.86,125.26,187.23,1.81,2.7,4.24,4.98,6.39,7.46Z"/>
      <path d="m2372.06,797.71c1.49-2.93,2.71-6.04,4.52-8.75,41.52-62.11,83.09-124.18,124.74-186.2,1.76-2.62,4.43-4.63,6.68-6.92,48.25,72.33,96.47,144.67,144.76,216.98,80.85,121.07,161.75,242.11,242.61,363.17,2.18,3.26,4.23,6.61,7,10.94h-269.44c-1.91-2.72-4.43-6.17-6.81-9.72-82.75-123.81-165.49-247.62-248.24-371.43-1.84-2.76-3.88-5.38-5.83-8.07Z"/>
      <path d="m2507.83,593.49c-2.14-2.48-4.58-4.76-6.39-7.46-41.81-62.37-83.58-124.77-125.26-187.23-1.78-2.66-2.71-5.9-4.03-8.86,26.26-38.86,52.58-77.68,78.78-116.59,58.92-87.48,117.78-175.01,176.68-262.51,2.04-3.03,4.24-5.94,6.36-8.91,3.66.02,7.32.05,10.98.05,81.22,0,162.45-.03,243.67.09,4.48,0,8.96,1.27,13.43,1.94-79.08,118.15-158.15,236.3-237.23,354.44-51.31,76.64-102.64,153.26-153.94,229.9-1.1,1.65-2.04,3.42-3.05,5.13Z"/>
      <path d="m2.22,2.37c-.07,4.33-.19,8.66-.19,12.98,0,386.35,0,772.7,0,1159.05,0,4.33.13,8.66.2,12.98-.7-1.41-1.85-2.77-2-4.24-.33-3.3-.2-6.65-.2-9.98C.02,787.12.01,401.07.11,15.02c0-4.8,1.31-9.6,2-14.4.03.58.07,1.17.1,1.75Z"/>
      <path d="m2.22,2.37c-.03-.58-.07-1.17-.1-1.75C6.09.41,10.07.03,14.05.03,192.51,0,370.98-.02,549.44.07c6.93,0,13.86,1.08,20.78,1.66-6.64.09-13.28.26-19.92.26-179.04.01-358.08,0-537.12.03-3.66,0-7.31.23-10.97.35Z"/>
      <path d="m1765.73,199.82c.12-9.99.34-19.97.35-29.96.04-50.95.02-101.91.02-152.86,0-4.28,0-8.56,0-13.93-4.81-.39-8.64-.98-12.47-.98-79.62.02-159.24.11-238.87.15-2.98,0-5.96-.31-8.95-.48,6.94-.57,13.87-1.63,20.81-1.64,76.61-.12,153.23-.08,229.84-.06,3.27,0,6.53.3,10.44.49.44,3.07,1.12,5.59,1.12,8.11.06,61.6.08,123.21-.04,184.81,0,2.72-1.36,5.44-2.09,8.17-.01-.61-.06-1.22-.15-1.82Z"/>
      <path d="m2110.02,2.02c-84.51,0-169.02-.04-253.53.07-4.87,0-9.75,1.25-14.62,1.92.77-1.21,1.38-3.28,2.36-3.47,2.9-.57,5.94-.51,8.92-.51,81.09-.02,162.18-.05,243.28.07,4.53,0,9.06,1.26,13.59,1.93Z"/>
      <path d="m2902.05,4.03c-4.48-.68-8.95-1.93-13.43-1.94-81.22-.12-162.45-.09-243.67-.09-3.66,0-7.32-.03-10.98-.05,3.13-.65,6.27-1.86,9.4-1.86,83.58-.1,167.16-.09,250.74-.06,2.63,0,5.27.34,7.86.78.2.03.06,2.09.09,3.21Z"/>
      <path d="m1841.5,1185.84c4.58.59,9.15,1.69,13.73,1.69,84.93.09,169.86.05,254.79.04-3.87.68-7.73,1.94-11.6,1.94-82.37.11-164.74.12-247.11-.03-3.4,0-8.33,2.28-9.81-3.64Z"/>
      <path d="m1765.7,987.92c-28.23-.08-56.46-.23-84.7-.23-49.16-.01-98.32.14-147.49.02-7.24-.02-14.49-1.1-21.73-1.69,10.62-.11,21.25-.32,31.87-.33,70.5-.03,141.01-.05,211.51.08,4.12,0,8.25,1.36,12.37,2.08-.61.01-1.23.04-1.84.07Z"/>
      <path d="m1765.73,199.82c.09.6.14,1.21.15,1.82-2.33.11-4.65.33-6.98.33-74.64.02-149.28.02-223.91,0-2.33,0-4.65-.21-6.98-.33,4.91-.57,9.83-1.62,14.74-1.63,74.32-.14,148.65-.15,222.97-.19Z"/>
      <path d="m1765.7,987.92c.61-.03,1.22-.06,1.84-.07.16,3.31.46,6.63.46,9.94.03,59.5.06,119-.07,178.5,0,3.69-1.35,7.38-2.07,11.07-.05-66.48-.1-132.96-.15-199.44Z"/>
      <path d="m941.85,567.74c0,18.03.01,36.05.02,54.08-.59-3.22-1.64-6.43-1.7-9.66-.21-11.58-.21-23.17,0-34.75.06-3.23,1.1-6.44,1.69-9.67Z"/>
      <path d="m892.31,366.03c.02-15.43.03-30.87.05-46.3,2.93,15.44,2.83,30.87-.05,46.3Z"/>
      <path d="m1143.65,618.1c-.55-11.06-1.18-22.11-1.62-33.18-.14-3.59.23-7.19.36-10.79.45-.16.91-.33,1.36-.51-.03,14.82-.07,29.65-.1,44.47Z"/>
      <path d="m894.35,859.86c0-14.09,0-28.19,0-42.28,2.79,14.09,2.83,28.19,0,42.28Z"/>
      <path d="m943.73,547.48c-.49,6.81-.98,13.61-1.47,20.42.49-6.81.98-13.61,1.47-20.42Z"/>
      <path d="m1501.64,203.64c5.49-.45,10.98-.9,16.46-1.35-5.49.45-10.98.9-16.46,1.35Z"/>
      <path d="m942.27,625.64c.45,5.47.9,10.94,1.36,16.41-.45-5.47-.9-10.94-1.36-16.41Z"/>
      <path d="m1489.82,1185.91c5.47.44,10.93.89,16.4,1.33-5.47-.44-10.93-.89-16.4-1.33Z"/>
      <path d="m945.75,525.57c-.5,4.11-1.01,8.22-1.51,12.33.5-4.11,1.01-8.22,1.51-12.33Z"/>
      <path d="m1143.75,573.63c-.45.17-.9.34-1.36.51.47-4.12.93-8.23,1.4-12.35-.01,3.95-.03,7.9-.04,11.85Z"/>
      <path d="m571.77,1187.27c4.14-.45,8.28-.9,12.42-1.35-4.14.45-8.28.9-12.42,1.35Z"/>
      <path d="m182,493.87c16.63.02,33.25.06,49.88.05,106.09-.07,212.17-.14,318.26-.2,1.32,0,2.64.25,3.96.39-4.6.48-9.2,1.36-13.8,1.37-88.64.18-177.27.25-265.91.36-26.99.03-53.98.22-80.97.11-3.81-.02-7.61-1.35-11.42-2.08Z"/>
      <path d="m560.09,687.48c-5.64.06-11.29.18-16.93.19-97.76.07-195.52.13-293.28.17-3.98,0-7.96-.28-11.94-.43,3.92-.52,7.83-1.48,11.75-1.48,98.89-.15,197.79-.23,296.68-.2,4.57,0,9.14,1.14,13.71,1.75Z"/>
      <path d="m182.25,687.89c-.07,8.99-.21,17.97-.22,26.96-.02,87.56-.01,175.13,0,262.69,0,3.99.13,7.99.21,11.98-.02.67-.04,1.35-.06,2.02-.72-3.51-2.05-7.01-2.06-10.52-.11-94.22-.11-188.45,0-282.67,0-3.49,1.39-6.98,2.12-10.46Z"/>
      <path d="m181.92,191.89c0,100.66.02,201.33.02,301.99-.64-3.87-1.83-7.74-1.84-11.61-.1-92.92-.1-185.83,0-278.75,0-3.88,1.18-7.75,1.81-11.62Z"/>
      <path d="m562.27,191.63c-5.97.1-11.94.29-17.92.29-76.15.02-152.31.02-228.46,0-4.65,0-9.3-.2-13.96-.31.06-.45.11-.91.17-1.36,3.65-.11,7.31-.31,10.96-.31,77.83-.02,155.65-.05,233.48.06,5.24,0,10.48,1.06,15.72,1.62Z"/>
      <path d="m182.18,991.54c.02-.67.04-1.35.06-2.02,4.32.08,8.65.24,12.97.24,59.63.06,119.26.1,178.89.15-.06.46-.12.91-.17,1.37-6.32.13-12.64.36-18.96.37-54.94.08-109.88.13-164.82.17-2.66,0-5.32-.18-7.98-.28Z"/>
      <path d="m373.94,991.28c.05-.46.1-.92.17-1.37,54.75-.08,109.5-.16,164.26-.21,7.95,0,15.9.14,23.85.22-4.92.58-9.83,1.65-14.75,1.66-56.18.12-112.37.08-168.55.06-1.66,0-3.31-.23-4.97-.36Z"/>
      <path d="m302.11,190.26c-.06.45-.11.91-.17,1.36-34.29.11-68.58.21-102.87.32-5.66.02-11.32.05-16.98.07,2.46-.68,4.91-1.96,7.37-1.96,37.55-.03,75.11.11,112.66.21Z"/>
      <path d="m700.29,855.88c0-11.44-.02-22.87-.03-34.31,2.97,11.43,2.96,22.87.03,34.31Z"/>
      <path d="m698.37,358.2c-.03-10.85-.05-21.71-.08-32.56,2.79,10.85,2.85,21.7.08,32.56Z"/>
    </g>
  </g>
</svg>