<?xml version="1.0" encoding="UTF-8"?>
<svg id="uuid-d15fe13e-045b-4f10-9965-9513e6a90bf3" data-name="Capa 2" xmlns="http://www.w3.org/2000/svg" viewBox="0 0 1392.56 758.82">
  <g id="uuid-c194ef48-8f75-4135-8667-0c2d74ea671d" data-name="Capa 1">
    <g>
      <path d="m.81,318.72C291.52,212.59,582.22,106.47,873.85,0v6.5c0,50.66-.08,101.32.13,151.99.02,5.21-1.45,7.16-6.6,8.06-64.49,11.23-128.93,22.68-193.39,34.07-63.31,11.19-126.62,22.38-189.93,33.56-74.79,13.21-149.59,26.38-224.38,39.6-68.56,12.11-137.11,24.27-205.67,36.4-17.69,3.13-35.39,6.23-53.08,9.35-.04-.27-.08-.53-.12-.8Z"/>
      <path d="m222.14,488.69c-2.9.16-4.98.37-7.05.37-37.16.02-74.32.01-111.48.02q-7.77,0-7.77,7.99c0,12.33,0,24.66,0,36.99q0,7.46,7.29,7.48c33.49,0,66.98,0,100.48,0q7.12,0,7.15,7.19c.01,17.5,0,34.99,0,52.49q0,7.3-7.58,7.32c-33.33,0-66.65,0-99.98,0q-7.34,0-7.35,7.51c0,12.83.2,25.67-.1,38.49-.11,4.87,1.5,6.2,6.26,6.18,48.49-.15,96.98-.09,145.47-.09,7.21,0,7.23.01,7.23,7.06.01,20-.12,39.99.09,59.99.05,4.71-1.26,6.29-6.17,6.28-80.81-.14-161.63-.14-242.45,0-4.87,0-6.19-1.51-6.19-6.25.11-101.98.11-203.95.01-305.93,0-4.45,1.19-6.06,5.9-6.05,56.49.15,112.97.13,169.46.01,3.87,0,6,1.33,7.87,4.63,11.95,21,24.09,41.88,36.14,62.82.88,1.53,1.58,3.16,2.75,5.52Z"/>
      <path d="m210.58,416.11c2.85-.14,4.63-.29,6.4-.29,30.99-.02,61.99.09,92.98-.12,4.57-.03,6.76,1.63,8.75,5.52,15.42,30.1,31.06,60.09,46.65,90.1,1.19,2.3,2.51,4.54,4.25,7.67,3.34-6.29,6.25-11.66,9.07-17.08,14.15-27.19,28.31-54.38,42.37-81.62,1.51-2.93,3.15-4.58,6.8-4.56,31.49.14,62.99.07,94.48.1,1.28,0,2.56.26,4.62.47-.99,2.05-1.65,3.67-2.51,5.17-34.92,60.45-69.9,120.86-104.68,181.39-1.88,3.27-2.96,7.47-2.98,11.25-.22,37.49-.13,74.99-.13,112.48q0,7.25-6.99,7.26c-27.49,0-54.99-.11-82.48.1-4.89.04-6.2-1.55-6.18-6.27.16-37.66.19-75.32-.05-112.98-.03-4.09-1.18-8.64-3.2-12.17-34.55-60.27-69.33-120.42-104.05-180.6-.9-1.56-1.7-3.18-3.11-5.82Z"/>
      <path d="m598.09,580.93c9.91,6.91,12.29,14.02,8.71,27.57-2.8,10.59-12.37,17.03-24.81,17.34-11.49.29-22.99.02-34.49.18-3.51.05-4.62-1.34-4.61-4.73.09-24.99.08-49.99,0-74.98-.01-3.33,1.01-4.86,4.56-4.81,12.16.18,24.34-.24,36.48.32,14.67.67,23.55,11.22,20.88,25.01-.92,4.75-4.23,9.04-6.73,14.1Zm-26.01,6.98s0-.04,0-.06c-3.17,0-6.39-.35-9.47.16-1.35.22-3.37,2.12-3.45,3.37-.37,5.64-.28,11.33-.04,16.98.04,1.08,1.48,3,2.29,3.01,7.14.07,14.36.34,21.41-.55,5.98-.76,9.01-5.88,8.62-12.19-.4-6.39-3.95-10.17-10.36-10.68-2.98-.24-5.99-.04-8.99-.04Zm-.7-14.18c2.5,0,5,.08,7.49-.01,6.47-.23,9.88-3.28,9.92-8.77.04-5.22-3.17-8.49-9.35-8.87-5.14-.32-10.33.09-15.47-.23-4.05-.25-5.07,1.4-5.08,5.2-.04,12.71-.17,12.71,12.49,12.68Z"/>
      <path d="m618.31,671.81c-.42,2.2-.59,3.65-.97,5.04-4.85,17.31-10,34.55-14.47,51.96-1.55,6.05-5.55,4.74-9.54,5.11-4.14.38-5.88-1.27-6.8-5.25-2.02-8.75-4.51-17.4-6.83-26.08-.41-1.52-.94-2.99-1.88-5.92-3.11,11.51-6.09,21.5-8.4,31.64-1.04,4.57-3.17,5.9-7.55,5.65-4.21-.24-7.72.32-9.19-5.56-4.23-16.95-9.3-33.7-14.02-50.53-.48-1.71-.81-3.47-1.38-5.94,4.92,0,9.24-.33,13.45.2,1.26.16,2.78,2.58,3.2,4.21,2.63,10.14,4.99,20.35,7.67,31.49,2.06-7.57,3.89-14.34,5.75-21.1.79-2.89,1.92-5.72,2.39-8.66.77-4.78,3.1-6.38,8.07-6.45,5.33-.08,7.69,1.58,8.89,6.77,2.21,9.55,5.08,18.95,7.98,29.48.79-3.11,1.4-5.34,1.93-7.59,1.85-7.77,3.87-15.51,5.45-23.34.82-4.08,2.78-5.59,6.85-5.17,2.92.3,5.9.06,9.41.06Z"/>
      <path d="m1020.32,696.13c-3.17,11.81-6.22,22.17-8.66,32.68-1.06,4.54-3.52,5.3-7.47,5.11-3.96-.19-7.52.55-8.98-5.13-4.39-17.09-9.47-34-14.25-50.99-.44-1.56-.69-3.18-1.24-5.82,4.95,0,9.35-.28,13.67.19,1.11.12,2.45,2.46,2.85,3.99,2.56,9.79,4.89,19.64,8.13,29.7.65-2.24,1.33-4.48,1.95-6.73,2.15-7.7,4.39-15.37,6.37-23.11.8-3.13,2.39-4.24,5.6-4.27,8.71-.08,8.73-.22,11.09,8.18,2.46,8.78,4.87,17.58,8.16,26.52,1.05-4.54,2.09-9.08,3.17-13.62.88-3.73,1.8-7.45,2.72-11.16,2.64-10.62,5.71-12.26,17.19-8.85-.34,1.55-.61,3.16-1.05,4.72-4.82,17.15-9.93,34.23-14.38,51.47-1.5,5.81-5.31,4.61-9.15,4.9-3.87.29-6.08-.74-7.08-4.93-2.5-10.51-5.46-20.92-8.63-32.85Z"/>
      <path d="m925.87,674.58c2.15-2.39,13.28-4.11,15.55-2.2.75.63,1.2,2.02,1.19,3.07-.11,19.48.27,38.99-.67,58.43-.72,14.83-8.88,22.42-23.48,24.73-4.39.69-7.44-.08-8.73-4.82-.55-2.04-1.64-3.94-2.67-6.35,6.73-1.82,14.44-1.01,18.21-7.93,1.31-2.41,1.36-5.5,2.09-8.74-4.42,1.61-7.71,3.44-11.2,3.96-10.67,1.61-19.31-3.45-23.5-13.64-4.18-10.17-4.55-20.68-1.93-31.36,4.46-18.19,22.02-23.82,35.15-15.14Zm1.09,28.5c0-2.66.02-5.32,0-7.99-.05-5.57-2.45-8.62-7.77-9.91-5.19-1.26-10.05.69-12.05,5.53-3.41,8.24-3.1,16.63.63,24.69,2.09,4.51,6.53,6.19,11.34,5.06,5.16-1.2,7.79-4.51,7.84-9.9.03-2.5,0-4.99,0-7.49Z"/>
      <path d="m918.04,639.5c17.56-4.45,20-6.54,18.35-16.13-2.61,1.11-5.06,2.48-7.7,3.22-10.75,3.01-21.33-2.39-25.88-13.37-4.22-10.21-4.31-20.86-1.74-31.4,4.29-17.62,21.22-23.88,34.78-15.13,4.49-4.67,10.1-2.43,15.31-2.22.62.03,1.63,2.35,1.64,3.61.08,18.49.42,36.98-.12,55.46-.44,15.04-7.51,23.52-20.42,26.53-9.94,2.31-12.85.15-14.2-10.56Zm19.09-44.3c0-2.66.02-5.31,0-7.97-.06-5.63-2.3-8.42-7.82-9.8-4.84-1.21-9.44.35-11.45,4.72-4.03,8.8-3.8,17.8.69,26.37,2.16,4.14,7.1,5.53,11.82,3.85,4.21-1.5,7.13-4.15,6.8-9.2-.17-2.65-.03-5.31-.03-7.97Z"/>
      <path d="m793.84,538.49v7.13c0,23.47.04,46.93-.02,70.4-.03,11.26,1.3,9.92-10.28,9.88-2.12,0-4.24-1.03-6.83-1.71-4.01.92-8.92,3.03-13.82,2.97-9.92-.11-16.22-6.09-19.62-15.13-3.38-8.98-3.39-18.31-1.86-27.58,2.57-15.64,16.7-28.12,36.68-17.39,0-5.53.22-10.57-.07-15.57-.23-3.88,1.07-6.25,4.74-7.69,3.36-1.32,6.54-3.11,11.09-5.32Zm-15.76,56.64c0-2.66.02-5.31,0-7.97-.06-5.56-2.03-8.08-7.43-9.58-5.06-1.41-9.78.15-11.89,4.7-4.01,8.63-3.66,17.47.54,25.94,2.12,4.26,6.8,5.8,11.65,4.3,4.49-1.39,7.5-4.13,7.15-9.41-.17-2.65-.03-5.31-.03-7.97Z"/>
      <path d="m1239.88,730.54c-14.94,9.81-31.86,2.85-35.38-15.03-1.42-7.2-1.47-14.89-.78-22.23,1.55-16.39,16.95-29.57,37.02-18.17,0-5.54.28-10.59-.08-15.59-.32-4.33,1.27-6.83,5.27-8.33,3.06-1.15,5.94-2.8,9.67-4.6.18,2.45.41,4.17.41,5.89.02,25.12-.11,50.24.12,75.36.04,4.9-1.56,6.79-6.26,6-3.43-.58-7.84,2.05-9.99-3.3Zm.86-27.6c0-2.5.02-5,0-7.5-.06-5.89-2.86-9.27-8.58-10.37-5.38-1.04-10.21,1.36-11.9,6.68-2.42,7.65-2.47,15.47.7,22.97,2.08,4.92,6.84,6.97,11.95,5.74,5.08-1.22,7.75-4.62,7.81-10.03.03-2.5,0-5,0-7.5Z"/>
      <path d="m1097.03,539.95v27.46c2.08-.98,3.39-1.58,4.68-2.21,9.98-4.89,21.98-1.99,27.53,7.67,8.35,14.55,7.89,29.73.22,44.36-5.29,10.1-19.87,14-31.34,5.78-2.05,2.54-13.01,4.38-15.25,2.32-.81-.75-1.15-2.37-1.15-3.6-.07-23.47-.11-46.95.08-70.42.01-1.74,1.45-4.1,2.94-5.06,3.56-2.3,7.54-3.94,12.29-6.31Zm-.03,55.23c0,2.66-.02,5.32,0,7.97.05,5.01,2.61,8.08,7.76,9.38,5.13,1.29,9.53-.1,11.54-4.45,3.79-8.23,3.95-16.78.38-25.11-2.05-4.78-6.8-6.69-11.56-5.49-5.54,1.39-8.08,4.57-8.12,10.22-.02,2.49,0,4.98,0,7.48Z"/>
      <path d="m749.7,646.52v46.42c.39.19.77.38,1.16.57,3.34-4.35,6.7-8.69,10.03-13.05,7.17-9.37,10.62-10.58,23.81-7.8-4.02,5.04-7.53,10.01-11.65,14.41-3.49,3.72-3.76,6.86-1.46,11.44,5.01,9.96,9.34,20.26,13.92,30.43.59,1.32,1.03,2.71,1.82,4.82-5.38,0-10.16.26-14.88-.17-1.29-.12-2.79-2.13-3.5-3.6-3.72-7.77-7.23-15.65-11.13-24.2-4.36,4.77-8.96,8.43-7.94,15.19.1.65.02,1.33.01,2-.27,12.33,2.15,10.68-11.34,10.92-3.33.06-4.4-1.34-4.36-4.45.09-6.99.01-13.99.01-20.99,0-15.66.26-31.32-.14-46.96-.15-5.72,1.57-9.12,6.98-10.92,2.63-.87,5.06-2.34,8.67-4.06Z"/>
      <path d="m1025.6,622.5c-6.74,5.01-14.06,6.03-21.88,3.67-9.28-2.8-14.71-10.24-14.8-20.2-.09-9.47,4.91-16.36,14.44-19.15,3.63-1.06,7.53-1.66,11.3-1.62,3.75.05,7.49,1.18,11.22,1.83,1.67-6.47-.98-11.03-7.28-11.18-4.88-.11-9.99.54-14.62,2.01-3.54,1.12-5.16.68-6.52-2.55-.83-1.97-2.03-3.78-3.7-6.8,4.84-1.68,9.16-3.99,13.7-4.56,6.01-.76,12.34-.97,18.28.05,10.21,1.74,16.12,9.42,16.24,19.81.14,12.32-.11,24.65.13,36.97.09,4.34-1.69,5.73-5.6,5.18-3.77-.53-8.43,1.9-10.9-3.47Zm-9.92-25.6c-7.12-.1-10.95,2.94-10.96,8.69,0,5.47,3.68,8.85,9.79,9,6.58.16,12.09-4.24,12.23-9.76.14-5.63-2.89-7.81-11.05-7.93Z"/>
      <path d="m852.36,566.79c4.55-1.44,8.4-3.34,12.42-3.8,12.89-1.48,22.76,6.29,23.9,19.85,1.1,13.08.78,26.28.77,39.44,0,1.23-2.19,2.47-3.41,3.66-.18.17-.64.04-.98.04-13.21-.09-10.94,1.27-11.11-10.61-.13-8.66.07-17.33-.16-25.99-.13-4.8-1.29-9.37-6.4-11.49-7.57-3.13-14.99,1.51-15.42,10.24-.51,10.31-.13,20.65-.4,30.98-.06,2.23-.97,6.23-1.89,6.35-4.19.55-8.54.1-12.81-.28-.4-.04-.91-2.03-.91-3.11-.06-17.99,0-35.99-.08-53.98-.01-3.03,1.27-4.45,4.16-4.07,4.3.56,9.47-2.23,12.32,2.77Z"/>
      <path d="m1062.92,703.24c.88-8.3,2.86-15.72,7.77-22.21,10.73-14.22,32.76-14.05,42.87.67,8.21,11.95,8.76,24.97,2.68,37.93-4.79,10.21-13.21,15.54-24.72,15.41-11.31-.13-19.43-5.62-24.01-15.68-2.29-5.03-3.11-10.72-4.6-16.11Zm41.72-.43c-.85-3.62-1.29-7.11-2.51-10.3-1.74-4.54-5.3-7.32-10.3-7.29-5,.04-8.46,2.9-10.24,7.42-2.73,6.91-2.69,13.94.17,20.83,1.82,4.37,5.25,6.94,9.99,7,4.98.07,8.64-2.55,10.34-7.17,1.24-3.36,1.73-7,2.55-10.5Z"/>
      <path d="m648.02,735.04c-9.18-.22-17.06-4.94-21.93-13.96-6.17-11.42-6.29-23.39-.74-35.03,4.75-9.96,12.92-15.4,24.24-15.4,11.28,0,19.47,5.32,24.33,15.27,5.5,11.28,5.5,22.9-.15,34.13-4.99,9.9-13.23,15.07-25.74,14.98Zm14.51-32.17c-.97-3.79-1.5-7.43-2.85-10.75-1.75-4.3-5.23-6.97-10.04-6.92-4.73.05-8.26,2.52-10.13,6.86-3.12,7.22-3.13,14.55.1,21.74,1.84,4.1,5.19,6.56,9.73,6.69,4.8.14,8.4-2.4,10.2-6.67,1.45-3.44,2.01-7.26,2.98-10.94Z"/>
      <path d="m1340.61,616.5c-13.18,17.09-40.91,12.78-48.57-6.08-4.06-10-4.01-20.2,0-30.23,4.51-11.3,15.13-18.1,26.63-17.34,11.24.75,19.74,8.26,22.76,20.56.94,3.84,1.05,7.89,1.48,11.86.38,3.43-1.17,4.77-4.64,4.64-5.33-.19-10.66-.05-16-.04-5.32,0-10.65,0-15.88,0-1.53,4.63.82,9.58,5.65,11.69,5.03,2.2,10.3,2.21,14.79-1.02,3.21-2.31,5.08-1.8,7.49.87,1.76,1.95,4.11,3.37,6.27,5.08Zm-13.13-28.25c-.69-8.26-5.2-12.7-11.67-12.21-6.01.46-10.14,5.48-9.79,12.21h21.45Z"/>
      <path d="m1158.61,599.88c-.24,12.26,12.34,15.9,19.43,11.48,5.43-3.39,8.21-1.75,11.4,2.23,1.03,1.28,2.24,2.42,3.69,3.96-6.31,7.56-14.39,10.32-23.57,9.74-21.36-1.34-28.49-18.99-27.25-34.96,1.2-15.46,9.3-25.81,21.46-28.73,11.96-2.87,23.33,2.03,28.13,13.34,2.41,5.66,2.89,12.17,4,18.34.61,3.39-1.14,4.7-4.6,4.64-9-.16-18-.05-27-.05-1.81,0-3.61,0-5.69,0Zm21.84-11.6c-.54-8.18-5.06-12.68-11.55-12.23-6.02.42-10.11,5.34-9.88,12.23h21.43Z"/>
      <path d="m656.41,623.96c-5.48,1.17-10.76,3.4-15.94,3.19-12.99-.52-20.48-8.6-21.33-23.04-.71-12.11-.33-24.29-.12-36.44.02-1.24,2.07-3.34,3.39-3.52,11.23-1.53,11.73-.95,11.79,10.33.05,8.98-.17,17.99.45,26.94.59,8.55,4.19,11.73,11.34,11.52,6.59-.2,10.51-4.41,10.75-12.44.29-9.98.11-19.97.14-29.96q.02-6.54,6.67-6.57c1.66,0,3.53-.44,4.94.17,1.46.63,3.51,2.28,3.52,3.51.23,18.14.14,36.29.18,54.43,0,2.71-1.14,3.97-3.89,3.89-2.49-.08-5.04.28-7.47-.1-1.78-.28-3.41-1.46-4.41-1.91Z"/>
      <path d="m842.76,674.49c3.36-1.1,7.34-3.19,11.48-3.6,14.12-1.42,23.49,6.5,24.47,21.42.83,12.61.39,25.32.2,37.98-.02,1.19-2.17,3.24-3.5,3.39-11.58,1.32-11.58,1.22-11.6-10.42-.01-8.5.14-17.01-.17-25.49-.19-5.27-1.26-10.48-7.3-12.44-6.45-2.1-12.9,1.22-14.19,7.97-.99,5.18-.89,10.58-1.02,15.89-.16,6.83-.12,13.67-.02,20.5.04,2.92-1.03,4.21-4.08,4.18-13.64-.13-11.1,1.2-11.22-10.48-.15-15.33.11-30.67-.13-46-.07-4.43,1.4-6.14,5.74-5.62,1.64.2,3.41-.27,4.98.11,2,.49,3.85,1.55,6.34,2.6Z"/>
      <path d="m1240.42,610.8c-.51,4.26-.82,8.03-1.51,11.72-.2,1.08-1.32,2.45-2.34,2.85-11.47,4.51-25.47,2.29-26.81-14.27-.72-8.94-.54-17.97-.51-26.96,0-3.65-.89-5.83-5.02-5.36-3.2.36-4.62-1.09-4.37-4.34.14-1.82.17-3.68-.01-5.49-.37-3.64,1.06-5.36,4.79-4.99,3.55.34,5.12-1.61,4.48-4.81-1.76-8.75,2.52-13.32,10.28-15.78,1.54-.49,2.98-1.29,5.55-2.43,0,6.22.22,11.62-.07,16.99-.24,4.39,1,6.48,5.8,6.16,2.26-.15,6.42.56,6.6,1.48.74,3.82.55,7.91.02,11.81-.09.7-3.4,1.3-5.25,1.36-7.09.24-7.09.15-7.1,7.14,0,5.83-.04,11.66.01,17.49.08,8.45,3.15,10.68,11.38,8.37,1.08-.3,2.19-.51,4.07-.94Z"/>
      <path d="m1284.1,610.5c-.53,4.48-.71,8.13-1.49,11.65-.3,1.34-1.73,3-3.02,3.45-14.75,5.13-25.93-.76-26.61-16.48-.36-8.3-.17-16.64-.04-24.95.06-3.51-.51-5.94-4.83-5.4-3.56.45-4.74-1.48-4.52-4.76.11-1.66.13-3.34,0-4.99-.3-3.55,1.05-5.42,4.8-5.05,3.51.34,5.15-1.42,4.45-4.71-1.96-9.24,2.94-13.72,10.85-16.3,1.22-.4,2.41-.87,4.56-1.64,0,5.72-.01,10.81,0,15.89q.02,6.72,6.52,6.77c1,0,2,.07,2.99,0,3.17-.2,4.67,1.19,4.39,4.41-.06.66,0,1.33,0,2,.05,8.3.04,8.54-8.34,8.31-4.47-.12-5.84,1.45-5.64,5.76.32,6.64-.1,13.32.31,19.95.46,7.62,3.62,9.56,10.95,7.42,1.25-.37,2.51-.71,4.67-1.32Z"/>
      <path d="m1147.06,674.58c5.29-4.51,12.14-5.23,19.57-2.11,2.4,1.01,3.25,2.48,2.45,5.08-1.11,3.6-1.99,7.28-3.06,11.24-2.36-.79-4.04-1.42-5.75-1.92-8.95-2.61-14.97,1.49-15.24,10.79-.29,9.81-.1,19.63-.12,29.44-.02,6.71-.02,6.78-6.46,6.73-10.01-.09-9.29,1.45-9.31-9.39-.03-14.81,0-29.61,0-44.42q0-8.22,8.04-8.22c1,0,2.07-.23,2.98.05,1.98.62,3.88,1.5,6.9,2.72Z"/>
      <path d="m702.98,676.04c6.51-5.78,13.24-6.6,20.57-3.88,2.77,1.03,4.03,2.71,3.07,5.76-1.09,3.46-2.03,6.97-3.12,10.76-2.48-.77-4.48-1.49-6.54-2.03-7.89-2.07-13.53,1.43-14.03,9.54-.64,10.29-.54,20.63-.69,30.96-.1,6.68-.05,6.73-6.59,6.7-9.79-.04-8.72.9-8.75-8.93-.05-15.83.12-31.66-.1-47.48-.06-4.39,1.34-6.37,5.69-5.58,3.65.65,8.66-2.52,10.47,4.19Z"/>
      <path d="m1370.08,566.91c5.37-4.63,12.22-5.41,19.65-2.22,2.31.99,3.41,2.33,2.53,5.03-1.16,3.61-2,7.31-2.97,10.93-3.89-.76-7.23-1.81-10.62-1.98-5.68-.27-8.78,2.12-9.93,7.73-.72,3.54-.69,7.26-.74,10.91-.1,8.16-.11,16.32-.01,24.47.03,2.92-.99,4.23-4.05,4.21-13.51-.07-11.22,1-11.31-10.47-.13-15.15.14-30.3-.13-45.45-.09-4.91,1.65-6.69,6.34-6.13,1.48.17,3.08-.28,4.47.11,1.99.55,3.85,1.59,6.76,2.86Z"/>
      <path d="m730.03,538.41v6.3c0,24.99-.14,49.98.12,74.97.05,5.16-1.59,7.01-6.54,6.34-1.47-.2-3-.13-4.49-.03-3.2.23-4.44-1.17-4.43-4.38.07-23.99-.03-47.98.17-71.97.01-1.7,1.53-3.99,3.03-4.96,3.43-2.23,7.28-3.81,12.16-6.26Z"/>
      <path d="m1191.87,646.62c.16,2.72.35,4.49.35,6.26.02,24.82-.09,49.63.1,74.45.04,4.82-1.05,6.88-6.35,6.64-10.29-.48-9.06.87-9.09-9.19-.06-21.65.13-43.31-.13-64.95-.05-4.56,1.35-7.13,5.53-8.67,3.05-1.13,5.9-2.76,9.58-4.53Z"/>
      <path d="m806.97,594.81c0-8.65.13-17.3-.06-25.95-.08-3.7,1.31-4.99,4.95-4.94,12.39.18,10.78-.94,10.83,10.57.08,15.31-.11,30.61.09,45.92.06,4.41-1.46,5.78-5.79,5.65-11.34-.34-9.92,1.07-10.02-9.79-.06-7.15-.01-14.31,0-21.46Z"/>
      <path d="m685.82,594.82c0-8.81.09-17.62-.05-26.43-.05-3.21,1.16-4.45,4.36-4.44,13.31.04,10.88-.7,10.97,10.28.13,15.46-.08,30.92.1,46.37.05,4.1-1.31,5.55-5.44,5.45-11.55-.28-9.81.95-9.94-9.79-.08-7.15-.02-14.29,0-21.44Z"/>
      <path d="m812.13,702.78c0,8.82-.09,17.64.05,26.46.06,3.43-1.2,4.72-4.66,4.66-12.82-.23-10.53,1.23-10.64-10.52-.14-15.47.07-30.95-.1-46.42-.04-3.86,1.15-5.3,5.12-5.21,11.83.27,10.1-.99,10.23,10.07.08,6.99.01,13.98,0,20.97Z"/>
      <path d="m822.71,548.06q0,7.68-8.64,7.66-7.12-.01-7.1-8.58.01-7.18,8.03-7.17,7.72,0,7.72,8.1Z"/>
      <path d="m701.14,547.82q0,7.91-7.78,7.91-7.55,0-7.55-8.08,0-7.69,7.97-7.67,7.35.01,7.35,7.85Z"/>
      <path d="m796.85,655.78q0-8,7.59-8t7.71,7.95-7.91,7.8q-7.39,0-7.39-7.75Z"/>
    </g>
  </g>
</svg>