<?xml version="1.0" encoding="UTF-8"?>
<svg id="uuid-07451198-6632-4548-a7ba-79958667a9fc" data-name="Capa 2" xmlns="http://www.w3.org/2000/svg" viewBox="0 0 1613.66 497.03">
  <g id="uuid-cfc03e2b-6603-467a-89a6-8f6bcc1fd07d" data-name="Capa 1">
    <g>
      <path d="m1613.66,351.59c-5.76.66-9.37-1.67-12.43-6.81-6.36-10.69-13.53-20.9-20.39-31.29-.41-.62-.94-1.15-2.18-2.67v40.49h-5.97v-51.31c4.07-.8,6.6-.05,8.92,3.65,7.07,11.24,14.7,22.13,22.15,33.14.54.79,1.3,1.44,2.63,2.89v-39.98h7.27v51.9Z"/>
      <path d="m227.34,127.42c1.7.49,3.39,1.36,5.11,1.41,7.65.2,15.32.02,22.96.29,3.13.11,4.31-1.16,5.16-3.97,2.8-9.21-1.34-16.46-6.35-23.46-1.81-2.53-4.57-4.51-1.08-7.9.75-.73.38-3.16-.13-4.57-8.92-24.61-17.94-49.19-26.92-73.78-.32-.87-.48-1.8.18-3.44,1.09.96,2.24,1.85,3.25,2.89,11.88,12.33,23.62,24.78,35.66,36.94,3.31,3.35,7.5,5.84,11.75,9.07,2.95-4.77,5.42-8.77,7.65-12.36-4.25-1.86-9.03-3.45-13.3-5.93-7.33-4.27-7.61-11.57-6.86-18.91.69-6.72,3.85-12.06,10.36-14.57,9.66-3.73,18.68-.81,24.39,7.48,4.57,6.64,3.29,18.1-2.83,25.5-1.05,1.27-2.03,2.59-3.04,3.89-1.59,1.4-3.18,2.8-4.77,4.2-1.26.69-3,1.07-3.66,2.13-1.12,1.78-1.48,4.01-2.28,6-1.47,3.66-4.17,5.4-7.69,3.11-4.82-3.13-9.79-6.33-13.77-10.41-8.88-9.11-17.19-18.77-25.73-28.21-.83.74-1.67,1.48-2.5,2.22,1.43,2.28,2.54,4.88,4.37,6.78,3.08,3.18,6.69,5.84,9.96,8.85,7.56,6.97,14.75,14.37,22.64,20.92,7.5,6.23,15.65,3.23,18.22-6.13.47-1.7.23-3.58.32-5.38,1.62,1.21,3.76,2.11,4.77,3.71,2.56,4.06,6.52,6.66,10.65,5.96,2.92-.5,6.17-3.94,7.67-6.88,2.6-5.1,4.04-10.8,5.82-16.3,2.25-6.94,4.34-13.92,6.88-22.09,3.92,9.02,7.03,16.63,10.52,24.06,2.81,5.99,5.88,11.89,9.24,17.59,2.18,3.7,3.94,4.01,6.7,2.88-12.9-14.81-18.15-33.82-27.4-51.39-3.03,9.78-5.85,19.28-8.93,28.7-1.7,5.18-3.6,10.33-5.87,15.29-1.75,3.84-6.93,5.78-8.84,3.56-2.44-2.84-4.32-6.15-6.44-9.26,1.95,1.49,4.04,2.82,5.8,4.5,3.44,3.27,5.53,3.1,7.39-1.41,1.95-4.74,3.37-9.69,5.06-14.53,3.75-10.79,7.52-21.57,11.32-32.35.2-.57.76-1.02,1.62-2.12,2.84,6.98,5.35,13.55,8.19,19.98,4.28,9.68,8.4,19.47,13.41,28.77,1.89,3.52,6,5.88,9.2,8.65.44.38,1.99.35,2.16.03,1.49-2.67,3.74-5.43,3.82-8.21.05-2.08-2.36-4.84-4.4-6.24-10.65-7.31-12.74-22.13-3.26-30.62,4.83-4.33,10.47-7.89,18.39-4.85,7.4,2.84,11.4,7.99,13.82,14.63,2.4,6.57-.13,12.86-4.88,17.25-3.38,3.12-8.45,4.43-12.62,6.48,1.56,4.36,3.37,9.41,5.18,14.46,0,0,.09-.1.09-.1-1.72-2.31-3.51-4.57-5.13-6.94-1.19-1.74-2.18-3.63-3.45-5.8-2.37,8.69,2.01,16.55,10.08,18.01,1.95.35,4.8-.67,6.3-2.07,8.46-7.93,16.69-16.11,24.85-24.36,1.42-1.44,2.13-3.58,4.09-4.61-1.15,19.26-10.79,36.23-9.69,55.15-34.9-10.5-70.79-13.59-107.28-5.81-13.62,2.9-27.33,5.55-39.56,13.02,4.13,4.59,5.67,4.13,11.07,2.09,9.46-3.58,19.18-6.63,29-9.06,33.24-8.25,66.04-5.37,98.47,4.68,2.78.86,5.69,1.27,7.5,1.66-1.43,5.48-2.9,10.69-4.14,15.95-.77,3.29-1.05,6.77-5.97,5.57-.28-.07-.82.92-1.23,1.41-9.75-2.34-19.39-5.73-29.29-6.82-30.21-3.34-60.09-1.13-89.18,8.32-3.49,1.13-6.31,3.21-6,7.97,43.95-17.87,87.78-16.85,132.46-3.26-.48-1.83-1.23-3.53-2.54-4.36-1.62-1.02-3.69-1.33-5.57-1.94,2.95.15,5.9.3,8.92.45.09,1.86.22,3.17.21,4.49-.02,3.55,1.63,4.97,5.24,4.94,11.16-.11,22.32.11,33.47-.08,1.5-.03,3.54-1.33,4.35-2.65,5.75-9.38,15.61-12.34,25.65-7.14,4.65,2.41,4.35,7.33,4.89,12.08-3.48-8.97-10.44-12.43-18.99-10.74-3.7.73-6.72,4.93-10.05,7.55.29.59.57,1.17.86,1.76,4.05-.41,8.11-.82,13.5-1.36-3.14-1.08-5.02-1.72-6.89-2.36.04-.42.09-.84.13-1.26,4.02-.65,8.38-1.14,11.8,1.59,5.01,4.01,9.73,8.49,14,13.28,4.72,5.3,9.58,10.2,16.48,12.4,1.55.49,3.72.57,5.07-.15,13.02-6.94,22.21-18.05,31.85-28.67-.19-.57-.38-1.13-.57-1.7-4.77.64-9.53,1.42-14.32,1.89-4.21.42-8.51,1.03-12.67.6-4.73-.49-6.7-3.68-6.21-8.43.58-5.63,3.73-9.25,8.67-11.89,5.39-2.89,10.55-6.23,15.66-9.6,1.26-.83,2.84-2.64,2.72-3.85-.55-5.64,3.64-7.03,7.37-8.59,3.2-1.34,6.64-2.12,10.03-2.96,3.82-.94,5.68-2.96,5.1-7.11-.57-4.11-.73-8.27-1.13-12.41-.38-3.93,1.17-6.02,5.31-5.82,1.33.06,2.71-.22,3.99.05,8.38,1.81,12.74-3.06,15.63-9.7,2.5-5.76,4.69-11.71,6.42-17.75,1.39-4.87,3.38-7.86,8.93-9.04,10.02-2.14,19.81-5.4,29.69-8.19-2.73,4.81-13.28,12.7-20.33,14.47-4.19,1.05-6.02,3.1-6.57,7.35-1.35,10.36-5.45,19.73-11.06,27.52,9.14,0,18.54.21,27.91-.18,1.82-.08,4.18-2.15,5.2-3.93,4.12-7.15,7.61-14.67,11.8-21.78,1.39-2.36,3.9-4.6,6.42-5.62,3.95-1.6,8.38-2,12.55-3.1,7.04-1.87,14.05-3.89,21.06-5.86,1.5-.42,2.98-.94,4.8-.89-3.04,7.09-8.06,12.06-15.07,14.81-3.85,1.51-7.88,2.86-11.95,3.41-4.1.56-5.83,2.71-7.44,6.2-4.82,10.46-10.09,20.79-20.66,26.75-3.05,1.72-6.77,2.65-10.28,3.07-4.27.51-8.71.59-12.96-.01-10.34-1.47-17.17,3.77-23.26,11-1.32,1.56-3.14,2.7-4.73,4.03-.34-.33-.68-.66-1.02-1,.67-1.59,1.33-3.18,2-4.76-5.38,7.97-14.38,10.14-22.34,13.96l.12-.12c-5.71-2.29-10.81-1.54-15.81,2.27-5.57,4.25-11.38,7.92-13.07,15.63-.31,1.4-4.7,1.91-7.2,2.83l-.67-1.2c3.05-2.55,6.11-5.09,9.16-7.64-.27-.35-.55-.7-.82-1.06-9.53,2.58-13.3,9-8.39,15.23.31-1.06.53-1.83.69-2.41,2.34.48,4.66.95,7.07,1.45-.41.82-.82,1.62-1.57,3.12,2.44-.17,4.5.13,6.19-.52,6.23-2.39,12.18-2.59,18.92-1.27,11.73,2.3,22.92.22,31.37-9.52.44-.5,1.14-1,1.21-1.56.86-6.96,5.95-6.65,11.01-6.57,13.19.22,22.64-5.55,28.05-17.67.25-.57.34-1.21.89-3.22-3.32.73-6.11.78-8.32,1.93-7.81,4.08-15.38,8.61-23.13,12.81-2.08,1.13-4.46,1.71-6.7,2.54-.27-.5-.55-1-.82-1.5,6.98-4.32,13.95-8.64,20.93-12.96-.08-.35-.17-.7-.25-1.04h-14.05c1.48.42,2.66.75,3.9,1.1-4.48.77-8.81,1.52-14.09,2.43,5.53-6.75,11.66-7.82,18.56-7.64,6.13.16,12.29-.52,18.43-1.01,6.58-.52,9.18,3.26,6.61,9.66-2.91,7.25-8.54,11.81-15.26,15.05-2.8,1.35-4.15,2.83-3.99,5.96.79,15.78-2.86,30.41-9.59,44.8-2.75,5.87-2.2,13.69-1.78,20.53.65,10.67-.93,20.41-7,29.39-3.66,5.42-2.3,16.98,1.86,22.05,10.53,12.8,17.16,27.62,21.11,43.52,1.31,5.26.21,11.12.21,16.69,9.19-3.04,16.89-9.48,19.28-19.59,1.14-4.82-1.84-10.87-3.73-16.09-2.13-5.88-5.14-11.45-8.5-17.34,0,2.69-.2,5.4.04,8.07.68,7.56,2.12,15.11,2.09,22.65-.02,3.45-2.65,6.96-4.41,10.27-.49.92-2.12,1.24-3.6,1.44,8.93-9.64,5.69-20.48,3.33-30.86-2.01-8.87-4.68-17.69-8.1-26.12-5.55-13.69-2.67-25.6,5.81-36.86,2.4-3.19,4.72-6.44,7.14-9.6,3.19-4.17,3.94-8.34.4-12.72-.34-.43-.36-1.12-.58-1.88,5.98,1.72,9.54,5.79,9.08,12.11-.47,6.37-2,12.71-3.58,18.93-.89,3.49-2.81,6.73-4.32,10.06-2.63,5.83-2.62,11.42.67,17.13,3.93,6.83,3.75,6.93-3.34,10.43,2.71,6.3,5.49,12.61,8.13,18.98,1.46,3.52,3.06,7.06,3.91,10.75,4.2,18.21-1.98,26.93-19.32,32.81-1.82.62-4.01,1.78-4.86,3.33-3.01,5.51-6.02,11.13-8.08,17.03-2.57,7.37-1.33,9.75,5.03,14.29,3.78,2.7,7.52,5.46,11.22,8.27,2.46,1.88,2.69,3.85.26,6.14-10.02,9.4-13.82,21.12-13.14,34.67.23,4.62-.27,9.33-1.03,13.9-.41,2.45-2,4.74-3.24,6.99-2.07,3.76-4.31,7.43-6.42,11.17-.91,1.61-1.69,3.3-2.92,5.7-.53-1.49-.89-1.96-.79-2.32.86-3.14,1.01-7.04-2.77-6.9-2.09.08-4.13,4.34-5.88,6.92-.16.24,1.77,2.61,3.03,2.97,11.82,3.32,23.67,6.57,35.59,9.53,6.61,1.64,13.38,2.62,20.05,4.02,2.4.5,4.73,1.34,8.57,2.46-12.38,4.37-19.66,12.79-26.9,21.84-10.92-7.56-23.24-11.83-36.21-14.27-18.7-3.52-37.32-2.13-56.11.22-25.6,3.19-46.34,16.52-67.31,29.72-20.95,13.18-42.91,24.1-67.54,28.36-8.47,1.47-17.19,1.46-25.87,2.65,7.16.35,14.32.7,21.48,1.04,0,.19-.02.39-.02.58h-54.23l-.05-.54c6.39-.46,12.79-.92,19.18-1.38.05-.31.1-.63.15-.94-1.09-.24-2.19-.73-3.26-.67-30.94,1.68-58.77-9.22-86.05-21.73-22.5-10.31-44.17-22.55-67.04-31.9-33.54-13.71-66.99-10.6-99.32,5.36-2.05,1.01-3.86,2.52-6.15,4.04-4.66-10.72-14.36-16.43-25.06-23.06,8.34-1.78,15.22-3.26,22.11-4.72,47.66-10.09,93.62-24.93,136.58-48.27,2.92-1.59,4.44-3.08,2.31-6.54-1.07-1.74-.85-4.23-1.65-6.21-.92-2.27-2.32-4.33-3.51-6.49-.47.27-.95.54-1.42.82,1.01,2,2.02,4,3.03,6.01-.25.29-.49.57-.74.86-2.25-1.45-5.14-2.42-6.63-4.42-6.96-9.44-16.98-14.12-27.31-18.46-6.43-2.7-12.9-5.31-19.25-8.19-6.02-2.73-6.63-6.4-2.13-11.25,2.71-2.92,5.42-5.83,8.15-8.72,2.69-2.86,2.38-5.81-.14-8.39-4.71-4.82-9.63-9.42-14.74-14.38-3.14,6.25-5.46,11.51-8.34,16.45-5.93,10.15-15.39,16.47-25.42,21.83-18.07,9.64-19.7,12.88-14.99,34.4,1.86,8.47,4.03,16.74,12.18,22,1.73,1.12,2.96,4.95,2.49,7.12-1.1,5.08,1.51,8.49,3.75,12.27.99,1.66,1.77,3.45,2.69,5.26q-2.97.75-10.87-9.32c-5.19,1.95-5.45,2.98-2.55,10.32-3.56-1.04-5.74-4.21-6.55-8.42-.38-2.01-1.28-4.37-2.75-5.64-4.27-3.68-5.87-8.27-6.12-13.64-.32-7.13-.64-14.26-1.12-21.39-.58-8.56-4.67-15.42-10.63-21.38-4.02-4.02-3.96-5.63.59-9.11,3.16-2.41,6.7-4.32,10-6.55,5.98-4.04,7.35-7.96,4.51-14.48-2.71-6.23-5.74-12.35-8.98-18.32-.75-1.38-2.86-2.57-4.51-2.84-14.16-2.3-22.74-13.58-19.45-27.74,2.12-9.12,6.34-17.76,9.59-26.62,1.06-2.91,2-5.87,3-8.83-2.74-1.32-4.9-2.36-7.34-3.53.54-.9.75-1.54,1.18-1.93,5.56-5,7.07-10.97,4.5-18-2.79-7.62-6.11-15.12-8.05-22.96-1.1-4.45-.51-9.6.49-14.17.54-2.44,3.57-4.34,5.48-6.48.5.38.99.77,1.49,1.15-.4.94-.77,1.9-1.22,2.82-1.57,3.22-1.76,6.25.57,9.31,3.31,4.36,6.25,9.01,9.65,13.3,8.29,10.47,8.36,21.82,4.49,33.93-3.27,10.25-6.41,20.58-8.92,31.03-1.1,4.59-.57,9.58-.65,14.39-.09,5.42-.02,10.84-.81,16.48-.38-1.29-1.04-2.56-1.1-3.86-.4-8.13-1.39-16.33-.75-24.39.54-6.82,2.82-13.55,4.7-20.21,2.73-9.66,8.27-18.47,7.8-29.11-.31-6.87-3.58-12.19-7.66-17.41.78,2.39,1.57,4.77,2.34,7.16,3.23,9.93,3.8,19.71-.51,29.61-5.03,11.56-10.11,23.15-14.16,35.07-1.53,4.5-1.29,10.25,0,14.93,2.48,8.98,6.77,11.43,16.88,11.74.05-.75.45-1.87.1-2.23-4.49-4.57-1.87-8.9-.38-13.84,4.43-14.7,12-27.66,20.64-40.13,1.22-1.76,2.09-3.76,3.33-6.02,3.7,7.12,7.26,14.2,13.78,18.87.48-.26.96-.51,1.44-.77-.63-1.67-.96-3.54-1.95-4.97-2.64-3.82-5.24-7.75-8.44-11.07-3.79-3.94-4.26-8.67-5.14-13.6-.64-3.59-2.67-6.9-3.85-10.42-1.26-3.74-2.35-7.54-3.3-11.36-.4-1.59-.37-3.31-.33-4.97.45-15.96-2.64-31.04-8.47-46.04-3.26-8.4-3.07-18.21-3.9-27.44-.32-3.48-1.34-5.24-4.31-7.35-5.3-3.76-10.45-8.22-14.29-13.4-4.18-5.63-1.03-10.72,6.03-10.31,11.51.67,23.45-.97,34.15,5.21.34.19.92-.03,1.4-.05-.73-4.7-8.7-11.93-13.85-12.33-5.14-.4-10.4-1.18-15.45-.51-13.83,1.82-22.29-5.81-29.32-15.86-3.31-4.73-5.46-10.25-8.52-15.18-1.08-1.74-3.07-3.28-4.99-4.05-5.38-2.14-10.95-3.81-16.43-5.7C7.16,26.42,3.73,21.41,0,15.53c1.66.15,2.71.11,3.68.36,8.5,2.18,16.99,4.41,25.47,6.64,3.69.97,7.7,1.42,10.95,3.21,2.59,1.43,5.55,4.26,6.1,6.94,1.9,9.18,8.47,15.23,13.56,22.27.57.8,2,1.31,3.06,1.38,9.28.55,18.56.96,28.5,1.45-1.71-2.79-3.65-5.09-4.65-7.75-2.79-7.43-5.08-15.04-7.79-22.5-.67-1.83-1.85-4.41-3.34-4.86-9.08-2.78-16.7-7.6-23.12-15.36,2.76.69,5.25,1.28,7.72,1.92,6.41,1.68,12.76,3.63,19.24,5,6.79,1.44,11.12,4.52,12.98,11.81,1.78,6.98,5.04,13.63,8.08,20.23,2.07,4.48,6,6.28,11.07,6.03,3.77-.19,7.57.3,12.05.52-.39,6.72-.56,12.96-1.17,19.16-.36,3.62.69,4.69,4.4,5.25,4.68.71,9.32,2.43,13.63,4.45,1.62.76,3.21,3.6,3.16,5.44-.1,3.3,1.37,4.66,3.87,6.09,5.6,3.2,11.07,6.63,16.53,10.07,1.24.78,2.33,1.87,3.34,2.96,3.51,3.76,4.62,8.24,2.44,12.88-2.21,4.7-6.98,3.8-11,3.67-4.98-.16-9.93-.95-14.9-1.33-1.76-.13-3.55.13-6.3.27,1.26,1.74,1.86,2.83,2.7,3.68,5.86,5.91,11.57,11.98,17.73,17.55,3.12,2.82,6.82,5.54,10.75,6.82,6.74,2.21,15.98-2.56,20.48-10.5,2.98-5.26,5.28-11.06,6.92-16.89,1.26-4.52,3.33-6.45,7.95-7.1,10.89-1.54,18.3,2.9,23.33,12.19-2.89-1.76-6.04-3.21-8.61-5.35-5.5-4.58-11.61-2.75-17.03-1.03-2.37.75-3.5,5.44-5.19,8.34.43.4.86.79,1.29,1.19,1.4-.66,3.06-1.03,4.15-2.02,4.71-4.26,9.18-4.65,14.8-1.11,2.82,1.78,7.05,3.23,10.51-.08Zm-98.92-40.64c5.09-2.87,9.14-1.33,12.5,3.17-2.67-6.16-14.02-11.48-20.08-9.56-.78.25-1.76,1.16-1.86,1.88-.09.65.73,1.84,1.42,2.12,1.81.74,3.76,1.12,5.66,1.64,1.14,1.5,2.4,2.93,3.38,4.53,1.41,2.31,2.38,4.83-1.46,5.74-6.4,1.5-11.96-2.83-12.95-9.28-.27-1.76-2.08-3.63-3.69-4.7-.99-.66-3.61-.49-4.31.33-2.63,3.05-5.24,2.38-8.48,1.31-5.98-1.97-12.12-3.45-18.19-5.14-.18.48-.35.96-.53,1.44,7.91,4.85,16,9.5,21.17,17.64-.92.07-1.61-.22-2.28-.55-9.92-5.05-19.77-10.24-29.8-15.06-2.07-.99-4.83-.57-7.79-.86.45,1.98.42,2.89.83,3.53,5.67,8.76,12.9,15.18,23.96,15.86,2.98.19,6.04.3,8.9,1.06,1.89.5,4.13,1.67,5.11,3.24,7.83,12.44,19.6,15.55,33.26,14.69,5.97-.37,11.96-.45,17.93-.78,4.61-.26,9.22-.6,13.79-1.14.97-.11,1.82-1.25,3.19-2.25-10.83-3.09-13.2-6.09-10.06-11.33-4.11-3.04-7.94-6.49-12.33-8.95-5.6-3.13-9.74-9.35-17.28-8.58Zm89.64,45.93v173.77c15.34,0,30.33-.43,45.27.18,7.54.31,13.23-1.73,17.75-7.55.3-.39.68-.73,1.03-1.09,32.1-34.09,64.22-68.17,96.27-102.3,3.26-3.47,6.79-5.19,11.77-5.08,16.48.36,32.97.29,49.45.34,1.74,0,3.48-.22,5.19-.33v-57.94h-226.73Zm-22.98,135.81c-4.15-3.66-7.18-6.21-10.06-8.9-4.09-3.82-3.67-5.29,1.4-7.85,2.21-1.12,4.94-2.68,5.79-4.73,3.04-7.32,5.39-14.92,7.96-22.43.78-2.29.85-4.26-2.27-4.86-4.72-.91-9.38-2.13-14.13-2.85-1.42-.22-3.28.39-4.51,1.23-6.44,4.42-12.82,8.94-19.07,13.62-5.44,4.08-10.81,8.27-15.97,12.69-2.9,2.48-3.34,5.56.62,7.56,6.17,3.11,12.43,6.05,18.77,8.8,7.26,3.15,15.08,5.26,21.86,9.18,10.06,5.83,11.87,15.15,5.23,24.61-3.98,5.67-8.94,10.69-13.67,15.8-5.43,5.87-5.59,6.02-1.28,12.57,7.09,10.78,16.33,18.93,27.99,24.84,5.87,2.97,10.57,8.25,15.8,12.49-.42.54-.84,1.07-1.26,1.61-2.99-2-5.97-4.01-8.96-6.01-.41.26-.82.53-1.24.79.85,3.83,1.7,7.66,2.72,12.27,4.16-2.21,7.45-3.5,10.2-5.53,2.83-2.1,4.54-1.79,6.56.93,3.86,5.2,7.69,10.47,11.99,15.3,30.16,33.9,67.41,50.85,113.13,44.56,32.44-4.46,59.5-19.53,79.2-46.3,8.05-10.94,16.97-21.31,28.9-27.61,11.61-6.13,20.49-14.5,28.17-24.68,5.61-7.44,5.47-7.24-1-14.3-4.92-5.36-9.94-10.83-13.73-16.98-5-8.11-3.19-14.87,4.03-21.19,5.51-4.83,12.04-7.29,18.95-9.49,7.5-2.39,14.86-5.49,21.86-9.11,5.33-2.75,5.29-5.14,1.04-9.66-1.81-1.92-3.93-3.58-6.06-5.16-6.54-4.85-13.84-8.93-19.57-14.58-7.13-7.03-14.35-8.31-23.05-4.22-.75.35-1.53.67-2.33.85-3.99.91-4.32,2.89-2.77,6.53,2.44,5.73,3.9,11.87,6.33,17.61,1.05,2.49,3.26,4.66,5.38,6.47,1.9,1.63,4.39,2.57,7.33,4.21-5.02,4.47-9.29,8.26-13.04,11.6-2.83-2.91-5.28-6.24-8.49-8.5-3.35-2.35-4.93-5.08-5.01-8.99-.05-2.16-.29-4.31-.45-6.46-.55-7.49-3.08-13.99-9.78-19.57,0,2.08,0,3.35,0,4.62.21,26.77.51,53.54.58,80.31.02,6.63-.06,13.38-1.23,19.88-5.05,28-19.74,50.16-42.76,66.58-32.03,22.84-65.95,33.31-105.4,19-35.73-12.96-61.59-35.24-76.17-70.27-5.21-12.53-10.31-25.15-10.21-39.14.17-24.61.17-49.22.21-73.83,0-.98-.37-1.96-.77-3.97-1.2,1.87-2.1,2.72-2.34,3.73-1.66,7.07-3.04,14.21-4.84,21.24-.48,1.86-1.73,4.06-3.29,5.01-3.76,2.28-7.52,4.25-7.24,10.68Zm239.73,119.38c-.92.59-1.42.79-1.73,1.14-23.53,26.07-53.88,38.16-88,40.29-37.73,2.36-71.03-10.05-99.17-35.37-4.05-3.64-6.81-3.6-10.65-.47-8.25,6.73-16.55,13.39-25,19.86-3.52,2.7-3.08,4.29.41,6.55,12.13,7.86,23.98,16.16,36.19,23.9,37.26,23.6,77.94,31.18,121.01,23.02,27.75-5.26,52.79-17.91,75.89-34.09,7.98-5.59,15.46-11.9,23.62-18.22-11.14-9.11-21.77-17.79-32.57-26.62Zm118.66,21.11c.45-1.2.63-2.65,1.42-3.6,3.73-4.5,4.86-9.44,4.39-15.31-.2-2.43,1.76-6.15,3.87-7.43,6.36-3.88,8.8-10.07,10.04-16.43,1.51-7.77,1.44-15.83,2.16-23.76.45-4.97-1.52-7.78-6.26-9.87-19.08-8.39-35.62-19.6-42.09-41-.07-.24-.51-.37-.96-.69-.48.14-1.17.21-1.7.53-1.72,1.01-3.5,1.96-5.05,3.19-11.41,9.02-13.25,15.17-2.5,24.72,7.62,6.77,6.75,9.94-2.59,14.13-.91.41-1.87.71-2.77,1.12-8.77,3.97-17.74,7.58-26.22,12.08-4.58,2.43-8.3,6.44-12.48,9.66-1.82,1.4-3.65,2.95-5.73,3.79-3.68,1.47-7.57,2.43-8.07,7.6-.19-3.6-.84-7.87.99-9.99,1.98-2.28,6.29-2.54,9.58-3.67-.24-.51-.47-1.01-.71-1.52-8.79-.27-13.77,6.62-20.09,11.28,17.14,15.91,78.8,41.08,104.79,45.17Zm-329.95-74.29c2.27,5.2,4.36,9.83,6.3,14.52,1.87,4.51,4.88,6.47,10.01,6.37,13.64-.29,27.29-.05,40.94-.05,18,0,17.83-.16,30.2-13.47,30.79-33.12,61.7-66.12,92.74-99,1.78-1.88,5.06-3.15,7.71-3.27,9.47-.4,18.97-.34,28.45-.13,4,.09,5.88-.98,5.39-5.29-.45-3.95-.85-7.99-.55-11.93.36-4.68-1.73-5.66-5.83-5.52-11.8.41-23.62.87-35.42.72-5.71-.07-9.62,2.04-13.42,6.06-32.33,34.18-65.01,68.02-97.05,102.46-6,6.45-11.81,9.05-20.45,8.71-16.08-.65-32.21-.19-49-.19Zm250.81-133.18c-4.93-4.46-9.3-7.91-5.98-13.27,5.36-8.66,5.05-16.92,1.03-25.99-3.34-7.53-5.22-15.7-8.24-23.4-2.56-6.54-5.5-8-12.18-7.05v83.11c.86-6.02,5.62-6.74,10.05-8.09,4.81-1.46,9.5-3.28,15.31-5.31Zm-261.08-71.2c-4.23-1.32-6.3,1.07-7.44,4.19-3.46,9.5-5.85,19.48-10.21,28.52-3.83,7.95-3.66,14.53,1.18,21.58,2.5,3.63,2.77,7.29-1.16,10.59-3.1,2.61-2.51,5.45,1.09,6.96,5.26,2.2,10.73,3.91,16.53,5.98v-77.82Zm316.58,131.06c2.94,0,5.26-.25,7.51.05,4.55.62,5.72-1.68,5.97-5.68.47-7.32-3.12-12.98-7.84-17.65-7.18-7.1-15.05-13.51-22.66-20.17-8.26-7.24-15.6-7.69-25.41-1.4,5.77,4.38,11.34,8.8,17.11,12.95,11.55,8.32,23.19,16.51,25.31,31.89Zm-351.14-45.79c-6.87-5.87-14.19-7.07-19.39-2.85-9.67,7.82-19.35,15.68-28.44,24.15-3.21,2.99-5.55,7.53-6.88,11.8-2.91,9.34-.57,11.85,9.24,11.91,2.93.02,4.33-.79,4.23-3.89-.27-8.25,3.89-14.18,10.27-18.81,10.17-7.38,20.4-14.7,30.98-22.31Zm61.26,227.12c-6.01,4.1-6,5.78-.18,8.88,2.34,1.25,4.59,2.68,6.92,3.95,19.4,10.59,39.8,17.61,62.8,17.45-26.17-4.3-48.69-15.53-69.54-30.29Zm194.82-.5c-10.14,5.91-19.71,11.46-29.24,17.08-4.94,2.91-9.82,5.93-14.73,8.9.37.65.75,1.31,1.12,1.96,17-5.29,33.15-12.34,48.15-23.21-2.3-2.06-3.88-3.47-5.3-4.74Zm132.38-373.49c8.49-.24,16.39-.39,24.29-.71,4.81-.19,9.63-.5,14.41-1.08,1.12-.13,2.08-1.56,3.11-2.39-.99-.96-1.84-2.18-3.01-2.79-.94-.49-2.27-.28-3.43-.28-6.99,0-14.07.71-20.96-.16-7.1-.89-9.95,4.19-14.42,7.41Zm-468.84-1.03c.25-.24.5-.48.75-.73-2.41-1.79-4.69-4.88-7.26-5.15-10.35-1.09-20.79-1.36-31.21-1.75-.94-.04-2.69,1.23-2.71,1.95-.04,1.02.95,2.62,1.89,3.01,1.78.72,3.84.99,5.79,1.03,8.45.18,16.9.12,25.34.36,2.48.07,4.94.84,7.41,1.29Zm470.64,75.94c-4.07,1.34-7.89,2.69-11.78,3.84-3.32.99-6.88,1.36-10.04,2.69-4.1,1.72-7.79,4.22-8.9,9.72,1.59-.13,2.99.2,3.68-.36,5.37-4.35,11.99-4.31,18.28-5.47,5.44-1,8.53-4.84,8.76-10.42Zm-30.49,58.68c7.25-2.18,14.02-4.26,20.81-6.24,4.7-1.37,5.93-4.69,5.63-9.8-7.84,2.99-15.26,5.78-22.65,8.65-3.44,1.34-4.8,3.81-3.79,7.39Zm-411.07-44.09c.44-4.88-3.35-7.12-7.1-8.38-7.93-2.67-16.1-4.63-24.18-6.84-.12-.03-.38.42-1.26,1.44,3.4,2.55,6.4,5.94,10.16,7.36,7.15,2.71,14.73,4.3,22.37,6.41Zm-9.13-80.21c.54-6.69,1.19-12.59,1.39-18.5.06-1.63-1.21-3.3-1.87-4.96-2.05,1.35-5.06,2.25-5.92,4.14-1.25,2.72-.99,6.15-1.28,9.29-.47,5.12,2.38,7.89,7.68,10.03Zm-16.18,107.68c-.72,7.41-.67,7.22,5.94,8.94,5.92,1.54,11.71,3.58,17.58,5.36,1.8.55,3.64.96,5.46,1.44,1.45-4.46-1.73-5.28-3.96-6.19-8.12-3.28-16.36-6.28-25.01-9.55Zm445.4-108.01c4.55-.5,8.69-3.88,8.35-6.71-.44-3.6-1.15-7.2-1.29-10.81-.13-3.32-1.59-4.2-4.69-4.08-3.2.13-3.37,2.05-3.26,4.36.27,5.61.57,11.22.88,17.24Zm-417.66,100.72c-.44-5.81-17.77-14.64-27.25-12.74-.77,6.93-.62,6.43,6,7.46,7.18,1.12,14.17,3.47,21.25,5.28Zm432.92-4.6c1.03-7.23.22-8.38-6.21-7.02-5.44,1.15-10.74,3.09-16,4.99-3.04,1.1-4.22,3.45-2.36,7.68,6.96-7.99,16.29-4.36,24.56-5.65Zm-304.17-83.74l1.83-1.68c-9.82-17-12.18-37.11-23.05-53.67.98,4.01,2.78,7.68,4.14,11.52,4.85,13.7,9.5,27.47,14.37,41.17.38,1.07,1.79,1.78,2.72,2.66ZM88.7,238.86c0,2.26-.95,5.3.16,6.64,5.35,6.45,11.25,12.46,16.99,18.59.79.84,1.76,1.51,3.13,2.67-.42-7.89-11.01-23.51-20.29-27.91Zm473.81-34.13c-10.18,3.29-21.04,12.15-22.13,18.62,2.55-1.35,4.66-2.47,6.77-3.57,4.11-2.14,8.08-4.63,12.38-6.29,5.26-2.04,6.05-3.55,2.98-8.76Zm13.69,35.06c-7.58,4.09-18.47,20.85-17.5,27.34,1.17-1.38,2.09-2.47,3.01-3.55,4.62-5.39,8.93-11.11,13.99-16.05,2.84-2.78,2.95-4.69.5-7.75Zm-474.04-36.05c-1.11,3.72-.29,5.69,3.25,7.15,5.29,2.2,10.31,5.05,15.41,7.69,1.58.82,3.05,1.85,4.57,2.79.33-.53.65-1.05.98-1.58-6.12-7.92-13.69-13.79-24.21-16.05Zm424.44-113.84c8.52-.06,16.12-2.12,22.84-8.18-9.34-.91-20.78,3.21-22.84,8.18Zm24.79,150.76c.51.4,1.01.81,1.52,1.21,4.23-4.46,8.53-8.86,12.59-13.47.52-.59.18-2.66-.48-3.37-.58-.62-2.6-.83-3.25-.31-5.26,4.17-8.68,9.56-10.37,15.94Zm-60.16-86.13c-4.22-2.14-8.08-4.11-12.23-6.21,2.9,8.18,7.16,10.37,12.23,6.21Zm-309.17,2.73c2.08-3.39,3.7-6.04,5.32-8.68l-1.04-1.05c-2.71,1.77-5.43,3.54-8.66,5.64,1.46,1.36,2.58,2.41,4.37,4.09Zm404.28,46.66c.66.21,1.32.42,1.98.62,2.28-5.94,4.57-11.87,6.85-17.81-.47-.19-.94-.37-1.4-.56-2.47,5.91-4.95,11.83-7.42,17.74ZM125.52,94.28c.09-.32.19-.64.28-.95-1.44-1.55-2.73-3.28-4.37-4.57-.87-.69-2.34-.62-3.53-.89.12,1.35-.21,3.55.46,3.91,2.2,1.19,4.75,1.72,7.17,2.5Z"/>
      <path d="m1601.56,268.11v8.76h-944.28v-8.76h944.28Z"/>
      <path d="m868.16,217.31c-2.56,2.26-4.01,3.36-5.24,4.67-17.91,18.98-57.26,14.97-68.85-15.42-8.54-22.38-8.78-44.82.98-66.8,12.04-27.13,42.79-35.89,67.71-19.77,1.47.95,3.04,1.77,5.25,3.06v-51.85h19.76v159.75c-4.98,0-9.6.03-14.21-.01-1.62-.01-3.23-.19-5.39-.33v-13.29Zm-.11-46.37s.05,0,.08,0c0-6.32-.57-12.7.13-18.94,1.04-9.15-3.68-14.31-10.83-18.35-18.91-10.7-37.15-6.08-43.97,12.24-6.67,17.89-7.38,36.38-.23,54.53,4.81,12.2,14.01,17.68,27.08,16.44,9.12-.86,15.95-5.93,22.22-12.21,4.2-4.2,5.93-8.87,5.59-14.75-.36-6.3-.08-12.63-.08-18.95Z"/>
      <path d="m769.51,196.06c-1.02,10.78-5.25,19.29-13.37,26.09-18.25,15.3-56.59,16.04-75.7-4.28-10.23-10.88-14.76-24.18-15.51-38.86-.88-17.28,1.22-34.05,12.42-48.03,13.77-17.18,32.5-22.07,53.3-17.66,19.23,4.08,32.7,15.54,38.19,35.14,3.07,10.94,4.18,21.02,2.75,29.13h-84.52c-2,20.73,11.69,38.05,28.36,39.01,5.57.32,11.36.1,16.79-1.08,8.4-1.83,13.99-7.54,16.41-15.78.83-2.82,1.98-3.77,4.72-3.72,5.28.11,10.57.03,16.17.03Zm-19.67-34.96c.1-17.42-13.59-32.33-29.44-33.02-17.93-.79-31.28,11.84-33.89,33.02h63.32Z"/>
      <path d="m1168.66,147.84h-19.05c.83-12.07,5.16-22.13,15.75-27.87,20.67-11.2,42.14-10.92,63.37-1.62,10.89,4.77,15.44,14.88,15.87,25.9,1.11,28.55,1.3,57.14,1.87,86.21h-20.5v-11.44c-1.77,1.25-2.79,1.93-3.77,2.66-16.8,12.42-35.41,14.67-54.85,8.45-13.22-4.23-19.8-14.31-20.7-28.19-.96-14.81,4.91-25.89,17.95-32.85,11.8-6.29,24.69-8.75,37.96-9.16,7.29-.23,14.6-.04,21.76-.04,2.58-19.97-1.91-30.72-22.96-31.8-1.99-.1-4-.02-5.99.02-14.98.29-21.74,5.21-26.71,19.72Zm56.22,26.32c-12.11.86-23.88,1.2-35.48,2.76-5.04.67-10.19,3.17-14.49,6.03-6.43,4.28-8.96,11.04-7.84,18.73.92,6.36,4.55,10.9,10.6,13.41,13.95,5.77,35.98.2,45.23-11.54.89-1.12,1.87-2.58,1.9-3.9.18-8.08.09-16.16.09-25.49Z"/>
      <path d="m1434.35,233.17c-26.62.64-47.83-15.59-52.62-47.33-2.2-14.58-1.04-28.82,4.44-42.55,9.93-24.85,33.76-33.17,54.8-30.89,28.14,3.06,45.01,22.98,46.8,51.33.61,9.68.53,19.78-1.57,29.17-5.87,26.3-24.64,40.29-51.85,40.26Zm-32.56-60.11c-.44.11-.87.21-1.31.32,1.95,8.48,2.79,17.42,6.1,25.33,5.07,12.15,14.94,18.65,28.64,18.53,13.82-.12,22.95-7.14,28.01-19.42,6.69-16.23,6-32.85.27-49.14-4.29-12.18-13.34-19.39-26.35-20.46-13.52-1.12-23.35,5.17-29.8,16.83-4.82,8.71-5.47,18.33-5.55,28.01Z"/>
      <path d="m991.77,115.21h19.51v115.42h-19.79v-14.36c-2.47,2.38-4.32,4.21-6.22,5.98-12.46,11.62-33.67,14.66-48.96,7.04-11.11-5.53-16.76-15.31-17.04-26.89-.72-28.89-.24-57.8-.24-87.1h19.89c0,1.86,0,3.76,0,5.66.03,25.27-.21,50.55.18,75.82.22,14.41,11.26,22.34,25.48,19.4,10.28-2.12,18.2-7.9,24.84-15.61,1.17-1.36,1.71-3.62,1.8-5.49.34-7.47.49-14.95.52-22.43.06-18.95.02-37.9.02-57.43Z"/>
      <path d="m1512.07,115.25h19.6v13.75c4.08-3.37,7.26-6.4,10.83-8.87,10.64-7.38,22.36-9.8,35.1-6.93,16.3,3.67,26.23,15.55,26.79,35.04.78,27.07.33,54.18.38,81.27,0,.29-.25.57-.48,1.07h-19.68c0-2.25,0-4.2,0-6.14,0-21.61,0-43.22-.01-64.83,0-2.33-.06-4.65-.05-6.98.09-23.7-18.88-27.97-34.23-20.42-5.11,2.51-9.43,6.69-13.93,10.33-3.58,2.9-4.75,6.81-4.71,11.49.18,23.6.1,47.21.11,70.82,0,1.79,0,3.58,0,5.7h-19.7v-115.3Z"/>
      <path d="m1134.05,195.93c-.82,10.1-4.07,18.34-11.01,24.92-10.59,10.05-23.63,12.93-37.72,12.54-27.64-.78-45.96-19.58-49.42-46.15-2.15-16.51-1.61-32.71,5.95-48.15,10.52-21.48,33.83-29.36,53.93-26.62,5.34.73,10.67,2.49,15.65,4.63,13.69,5.89,20.89,16.83,23.35,32.14-6.62,0-13.01.1-19.38-.12-.81-.03-2.01-1.59-2.27-2.63-3.4-13.33-17.4-21.42-31.31-17.88-10.55,2.69-18.44,9.06-22.04,19.18-6.01,16.88-7,34.21.41,50.97,7.61,17.21,23.75,21.54,40,16.3,7.21-2.32,11.66-7.79,13.18-15.04.75-3.58,2.43-4.17,5.4-4.13,4.95.07,9.9.02,15.3.02Z"/>
      <path d="m1278.97,131.17h-13.9v-16.07h14v-28.89h20.03c0,7.48,0,14.75,0,22.01q-.01,6.61,6.38,6.69c3.79.03,7.57,0,11.74,0v16.37h-17.24c-.26,2.67-.65,4.79-.64,6.91.11,22.11.09,44.23.52,66.33.18,9.36,2.57,11.24,11.79,11.49,2.79.07,5.58.01,9.04.01-.23,4.6-.28,8.87-.79,13.09-.12,1-1.79,2.55-2.78,2.58-6.48.18-13.07.71-19.44-.19-11.84-1.66-17.65-8.61-17.86-20.82-.44-24.44-.57-48.89-.83-73.33-.02-1.81,0-3.63,0-6.18Z"/>
      <path d="m1337.95,115.14h20.04v115.54h-20.04v-115.54Z"/>
      <path d="m1031.68,430.35c-1.27.07-2.26.16-3.25.18-8.23.13-8.42.17-10.35-7.91-.69-2.91-1.9-3.88-4.71-3.72-2.99.17-5.99.07-8.98.07-2.8,0-5.6,0-8.67,0-.64,3.7-1.25,7.24-1.93,11.16h-49.29c-.11-1.34-.33-2.78-.33-4.21-.07-14.3-.12-28.6-.14-42.9,0-6.55.03-6.56,6.49-6.51,1.15,0,2.31.12,4.08.21v43.62h25.24c.25,2.89.45,5.27.65,7.65l.91.42c.8-1.56,1.78-3.06,2.37-4.7,5.1-14.34,10.41-28.61,15.05-43.1,1.98-6.2,6.46-3.55,10.11-4.16,3.7-.62,4.49,1.66,5.52,4.71,5.49,16.27,11.31,32.44,17.21,49.19Zm-25.17-43.11c-2.82,8.26-5.38,15.74-7.9,23.14h15.55c-2.58-7.81-4.99-15.11-7.65-23.14Z"/>
      <path d="m671.84,389.52v40.6h-9.48v-53.33h15.47c3.52,13.2,7.02,26.35,10.53,39.5.34-.02.67-.04,1.01-.05,2.93-11.82,6.05-23.59,8.67-35.47.71-3.23,1.66-4.61,5.07-4.37,3.79.27,7.61.06,11.81.06v53.73h-9.57v-40.84c-.24-.04-.48-.07-.73-.11-3.5,13.49-6.99,26.98-10.71,41.3-2.19,0-4.46-.15-6.69.04-3.18.27-4.49-.7-5.24-4.15-2.71-12.4-5.97-24.68-9.02-37-.38.03-.75.07-1.13.1Z"/>
      <path d="m838.83,430.29h-9.56v-53.8c4.43,0,8.72-.26,12.94.17,1.13.12,2.58,2.18,2.98,3.6,3.4,11.88,6.59,23.83,10.25,37.24,3.08-11.61,5.82-21.82,8.49-32.04,2.33-8.9,2.3-8.92,11.66-9.03,1.95-.02,3.9,0,6.21,0v53.83h-9.37v-40.09c-.44-.07-.88-.14-1.33-.21-1.81,7.09-3.65,14.16-5.41,21.26-1.23,4.97-2.66,9.93-3.4,14.98-.49,3.29-1.59,4.73-4.99,4.39-2.29-.23-4.63-.04-7.18-.04-3.49-13.74-6.92-27.24-10.35-40.74-.31.06-.62.13-.94.19v40.29Z"/>
      <path d="m1080.84,376.91v53.61c-1.69,0-3.15-.14-4.57.03-4.59.52-7.27-.85-9.62-5.48-5.3-10.45-11.71-20.34-18.54-30.21v35.28h-10.31v-53.63c3.18,0,6.32-.34,9.32.15,1.38.23,2.84,1.89,3.65,3.26,6.56,11.11,12.98,22.31,20.22,34.82v-37.83h9.86Z"/>
      <path d="m1128.87,409.87c-1.81,0-3.28-.09-4.74.02-7.72.57-8.02.22-6.68-8.12h21.2v28.59h-6.14c-.44-1.8-.84-3.48-1.34-5.53-.86.4-1.55.51-1.91.92-6.68,7.41-15.13,7.18-23.45,4.5-8.9-2.86-13.43-10.17-14.71-19.06-.75-5.19-.75-10.69.08-15.86,1.44-8.93,6.31-15.58,15.46-18.28,9.86-2.91,19.27-2.32,26.88,5.23,2.73,2.71,4.08,6.81,6.36,10.82-6.29.98-10.39.61-14.26-3.68-7.35-8.17-18.25-6.06-22.45,4.1-3.29,7.95-2.79,15.95,1.98,23.3,3.08,4.75,9.17,6.76,14.5,5.2,5.14-1.51,8.95-6.27,9.22-12.16Z"/>
      <path d="m1271.19,377.33c10.28,0,20.19-.05,30.1.02,5.54.04,7.57,4.72,9.93,8.42.89,1.4-.23,4.09-.54,7.17,3.55,2.47,3.23,4.41-3.7,11.62,6.84,6.95,4.28,16.36,6.91,25.36-3.84-.19-7.01-.34-11.08-.54-.65-3.47-1.6-7.11-1.96-10.82-.41-4.21.14-8.7-5.46-9.97-1.01-.23-2.03-.51-3.05-.62-4.16-.43-9.42,2.83-12.8-3.48.65,8.5,1.3,17,1.97,25.76h-10.31v-52.92Zm10.78,9.73c-.18,3.1-.18,6.58-.65,9.98-.47,3.35.89,4.56,4.03,4.61,7.92.14,15.66-.07,19.94-8.47-1.3-2.99-2.78-6.38-4.13-9.48-6,1.05-12.27,2.15-19.19,3.36Z"/>
      <path d="m1571.24,405.85c-.44,1.08-.65,1.37-.68,1.69q-.86,13.06,12.37,12.97c5.31-.03,10.62,0,16.38,0v9.49h-38.79v-53.17h37.41c.25,2.83.49,5.69.78,9h-27.72v11.91h24.79c.19,2.85.34,5.23.53,8.11h-25.07Z"/>
      <path d="m1327.96,387.13c.83-2.34.95-4.46,2.07-5.54,7.49-7.23,23.13-8.3,31.5-2.21,1.05.77,1.39,2.52,2.68,5.03,2.79.4,3.99,3.41,5.74,7.67,1.56,3.78,3.22,7.28,2.8,11.2-.36,3.33-1.83,6.54-2.83,9.8-.21.68-.79,1.37-.72,1.99.63,5.31-1.4,8.8-7.44,11.6.37-5.73-1.76-10.99,1.21-16.5,1.02-1.9,0-5.01-.36-7.52-.55-3.7-.63-7.72-2.2-10.98-2.76-5.73-11.51-9.02-17.12-6.55-6.57,2.9-12.61,7.3-11.43,15.51.63,4.39.75,9,2.27,13.07,3.06,8.2,12.85,11.46,20.74,7.78,1.41-.66,3.38-.13,5.1-.15-.45,2.39-.46,6.63-1.43,6.86-6.08,1.46-12.95,3.97-18.44,2.36-5.77-1.69-11.6-6.78-14.96-11.96-2.95-4.55-3.22-11.28-3.35-17.07-.09-3.93,1.91-8,3.4-11.83.52-1.34,2.33-2.19,2.76-2.57Z"/>
      <path d="m776,376.65h10.36c0,1.76,0,3.5,0,5.23.04,9.8-.19,19.62.19,29.41.38,9.89,6.39,13.73,14.95,10.14,3.83-1.6,5.64-4.34,5.63-8.48-.02-10.14.05-20.27.08-30.41,0-1.79,0-3.58,0-5.75h10.8c0,2.86.05,5.78,0,8.71-.2,10.29-.15,20.6-.76,30.87-.52,8.62-6.99,14.58-15.65,15.16-3.14.21-6.33.28-9.46-.03-9.61-.97-15.88-7.47-16.07-17.07-.24-12.42-.06-24.85-.06-37.77Z"/>
      <path d="m1466.05,396.27c-1.47-.32-3.22-.7-5.51-1.2-.31,9.02-.58,18.21-.98,27.39-.13,2.86,1.32,6.86-3.95,6.84-4.88-.01-5.02-3.67-5.05-7-.09-10.96.02-21.92.04-32.88,0-1.83-.27-3.7.04-5.47.43-2.49.61-6.4,2.09-7.07,4.79-2.15,9.38-.06,11.36,4.29,3.96,8.68,8.32,17.08,14.19,24.7,2.22,2.88,3.37,6.59,5.55,11.02.66-1.91,1.1-2.57,1.09-3.24-.03-10.87-.07-21.74-.21-32.61-.05-4.29,2.75-4.33,5.74-4.01,4.04.42,3.37,3.89,2.37,5.63-1.79,3.12-.1,5.63-.03,8.43.19,7.67-.34,15.36-.61,23.03-.02.65-.21,1.31-.39,1.94-.57,2.07,2.21,5.77-1.93,6-4.31.24-9.45,2.42-12.63-2.95-3.13-5.29-6.49-10.44-9.4-15.84-1.11-2.06-1.23-4.65-1.81-7.02Z"/>
      <path d="m888.14,430.17c6.27-18.05,12.38-35.65,18.52-53.32.06-.03.2-.14.36-.16q11.55-1.21,15.38,9.64c4.93,13.85,9.91,27.69,14.87,41.53.26.74.47,1.49.76,2.44-1.29.1-2.27.22-3.25.24-7.92.17-8.01.19-9.91-7.49-.7-2.84-2.02-4.32-5.09-4.17-4.81.24-9.66.07-14.44.59-1.45.16-3.49,1.76-3.95,3.13-2.91,8.76-2.79,8.8-13.25,7.58Zm25.27-41.28c-.34-.04-.67-.08-1.01-.12-2.35,7.12-4.71,14.23-7.15,21.64h15.47c-2.5-7.35-4.9-14.44-7.31-21.52Z"/>
      <path d="m726.93,376.01c9.66.49,18.83.27,27.77,1.6,8.78,1.31,13.39,9.18,12.46,18.69-.91,9.29-6.21,14.15-15.75,14.32-4.47.08-8.94.01-14.12.01v19.57h-10.37v-54.21Zm10.47,26.15c4.63-.21,9.05-.52,13.48-.57,3.25-.03,5.1-1.45,5.16-4.67.07-3.68,1.5-8.58-3.35-9.84-4.78-1.25-9.99-.83-15.28-1.16v16.23Z"/>
      <path d="m1003.9,351.38h-6.1v-41.28c-.41-.08-.83-.16-1.24-.23-.94,2.86-1.85,5.74-2.83,8.59-3.44,10.01-6.83,20.05-10.47,29.99-.47,1.3-2.45,3.06-3.47,2.9-1.46-.23-3.37-1.77-3.87-3.19-3.95-11.24-7.6-22.58-11.37-33.88-.5-1.49-1.18-2.92-2.45-4.21v40.71c-1.88.19-3.59.37-5.79.6v-51.04c7.22-2.19,8.65-1.46,11.01,5.63,3.97,11.9,7.98,23.78,12.42,36.98,2.41-7.3,4.48-13.45,6.48-19.62,2.29-7.07,4.56-14.15,6.76-21.25,1.38-4.46,5.02-1.88,7.59-2.33.95-.17,3.19,1.51,3.2,2.37.19,16.26.14,32.52.14,49.27Z"/>
      <path d="m1542.84,383.75c1.76.32,3.99.22,4.2.84.94,2.7,1.31,5.6,1.88,8.42-1.55.24-3.36,1.1-4.6.59-2.05-.84-3.9-2.4-5.56-3.95-3.83-3.58-7.9-5.97-13.42-4.44-5.67,1.57-8.87,5.37-10.52,10.85-2.65,8.79-2.44,16.84,4.21,24.17,1.91,2.11,2.29,5.6,3.38,8.46.45-.14.89-.28,1.34-.41-.54-1.96-1.08-3.92-1.71-6.24,1.05-.18,2.02-.65,2.81-.44,6.06,1.63,10.69-.68,14.61-5.07.55-.62.96-1.69,1.6-1.85,2.43-.58,4.93-.88,7.41-1.28-.06,2.03.57,4.42-.28,6.04-4.12,7.86-12.27,13.91-22.15,11.65-18.73-4.28-27.46-20.64-20.68-39.04,5.01-13.61,15.77-19.21,29.74-15.85,4.77,1.15,7.94,3.21,7.74,7.56Z"/>
      <path d="m1231.87,410.61v19.6h-10.94c0-1.69-.05-3.43,0-5.17.43-13.73,1.07-27.47,1.2-41.2.05-4.85.84-7.41,6.52-6.94,7.08.58,14.26-.02,21.31.74,2.64.28,7.4.47,6.23,5.98-.12.55,2.38,1.41,3.26,2.46,5.14,6.11.58,19.98-7.9,22.54v-25.07c-2.74,4.45-6.5,2.97-9.97,2.64-3.1-.29-6.22-.43-9.71-.67-.47,6.28-.91,12.23-1.31,17.51,5.65-.55,10.84-1.27,16.03-1.36.86-.02,2.25,2.6,2.54,4.16.42,2.26.4,4.85-3.21,4.8-4.46-.06-8.92-.01-14.06-.01Z"/>
      <path d="m1098.01,339.24v-39.43h5.73v51.32c-4.01,1.29-6.51,0-8.62-3.27-7.04-10.88-14.27-21.63-21.45-32.42-.8-1.2-1.72-2.3-3.24-4.32v40.04h-6.03v-51.11c3.93-1.03,6.57-.15,8.98,3.67,7.6,12.08,15.66,23.87,23.55,35.77.36-.09.72-.17,1.08-.26Z"/>
      <path d="m859.65,299.9c10.05,0,19.83-.41,29.55.15,5.78.33,9.94,5.12,10.85,10.8.94,5.87-.56,10.88-5.87,14.24-1.37.86-2.81,1.62-3.38,1.95,3.91,7.9,7.71,15.57,11.72,23.65-5.55,1.67-7.67,1.09-9.18-3.81-5.63-18.38-8.32-18.89-27.07-17.08v21.41c-2.5.14-4.39.24-6.62.37v-51.67Zm6.69,24.01c7.42-.46,14.35-.52,21.16-1.45,3.95-.54,6.26-3.69,6.12-7.9-.13-4.05-1.38-7.95-5.96-8.55-6.96-.9-14.02-1.1-21.32-1.62v19.51Z"/>
      <path d="m663.06,299.71c7.51,0,14.34-.48,21.07.1,13.17,1.15,19.85,9.06,21,23.91,1.32,16.9-7.9,27.31-24.83,27.85-5.75.18-11.52.03-17.25.03v-51.9Zm7.08,5.73c-.51,1.2-.74,1.49-.75,1.79-.07,8.46-.13,16.93-.16,25.39-.06,14.14.84,15.09,15.16,12.3,3.75-.73,8.5-2.67,10.36-5.59,5.32-8.36,5.05-17.81.57-26.51-1.44-2.79-5.24-5.32-8.41-6.05-5.4-1.24-11.15-.97-16.77-1.33Z"/>
      <path d="m1563.18,325.85c-.32,10.75-4.16,19.61-14.47,24.14-9.01,3.96-17.9,3.02-25.81-3.14-9.42-7.33-11.88-25.03-5.29-36.61,5.86-10.3,18.75-14.24,31-9.48,9.05,3.52,14.64,13.16,14.56,25.09Zm-42.53.31c0,.09,0,1.59.16,3.07.88,8.8,6.69,15.93,14.05,17.27,9.6,1.76,17-2.66,20.07-11.99,3.5-10.63.64-22.84-6.78-27.51-5.76-3.63-12.09-3.85-18.02-.65-7.17,3.86-9.62,10.58-9.47,19.81Z"/>
      <path d="m1052.62,300c.13,1.85.23,3.45.38,5.6h-30.45v15.87h28.22v6.01h-28.2v17.77h31.29v6.06h-37.51v-51.31h36.27Z"/>
      <path d="m715.57,299.83h36.13v5.88h-30.19v15.83h28.61v6.11h-28.77v17.58h31.6v6.08h-37.39v-51.48Z"/>
      <path d="m1200.06,299.78h35.88c.09,1.82.17,3.53.28,5.82h-29.9v15.84h27.91v6.19h-27.91v17.57h31.22c.62,3.58.88,6.41-3.67,6.42-11.14.04-22.27.01-33.8.01v-51.85Z"/>
      <path d="m1247.82,349.25c0-15.43-.05-30.97.12-46.51.01-1.02,1.78-2.89,2.76-2.9,6.63-.12,13.3-.28,19.88.39,10.57,1.08,16.72,7.69,18.79,17.72,1.94,9.39.78,18.4-5.53,26.29-6.05,7.56-14.58,5.52-22.4,5.99-3.91.24-7.89-.53-13.63-.98Zm16.39-43.52c-1.79,0-2.46,0-3.12,0-7.02.04-6.87.05-7.06,6.98-.25,9.28-.9,18.56-1.04,27.84-.03,1.79,1.09,4.65,2.43,5.21,5.73,2.38,21.84-.35,25.16-7.49,3.88-8.34,4.31-16.67.06-24.89-3.7-7.16-10.38-8.13-16.44-7.65Z"/>
      <path d="m763.63,299.2c9.39.43,18.37.33,27.19,1.42,7.21.89,11.34,6.8,11.41,14.1.07,7.17-4.58,13.54-11.37,14.99-3.37.72-6.89.82-10.35.98-3.46.16-6.93.03-11.04.03,0,3.74,0,7.16,0,10.57s0,6.55,0,10.06h-5.84v-52.15Zm5.9,25.34c6.38,0,12.03.27,17.64-.08,4.88-.31,8.06-4.12,8.28-8.97.23-5.08-2.44-8.85-7.55-9.45-5.1-.6-10.29-.57-15.44-.49-.99.02-2.75,1.54-2.8,2.43-.27,5.27-.13,10.55-.13,16.56Z"/>
      <path d="m1333.6,299.92h6.3c0,4.39,0,8.65,0,12.91,0,6.65.05,13.3-.04,19.95-.2,15.65-9.08,19.92-21.82,19.5-12.24-.41-18.15-7.15-18.24-19.56-.08-10.77-.02-21.55-.02-32.68h6.43c0,1.73,0,3.47,0,5.22-.03,9.14-.22,18.29-.06,27.43.15,9.05,4.97,13.92,13.31,13.91,9.25,0,13.09-3.71,13.4-13.38.26-8.14.18-16.29.31-24.43.05-2.8.27-5.6.44-8.87Z"/>
      <path d="m852.94,351.46c-4.09.52-7.32.38-9.06-5.18-3.38-10.8-3.78-10.67-15.34-10.63-.33,0-.67,0-1,0-10.56.06-11.14-.05-13.06,10.53-1.06,5.83-3.68,6.08-8.56,4.94,1.23-3.6,2.33-7.16,3.66-10.64,4.85-12.67,9.69-25.35,14.79-37.92.55-1.36,2.72-2.84,4.16-2.85,1.72-.02,4.48,1.06,5.02,2.38,6.64,16.34,12.95,32.81,19.4,49.37Zm-33.28-21.12h18.04c-2.88-7.95-5.64-15.57-8.9-24.56-3.29,8.83-6.08,16.32-9.14,24.56Z"/>
      <path d="m1445.62,351.16c-4.56,1.13-7.77.77-8.94-4.69-.78-3.66-2.72-7.07-4.2-10.75-6.31,0-12.47-.2-18.6.14-1.45.08-3.29,1.68-4.08,3.08-1.45,2.56-2.68,5.41-3.25,8.29-.97,4.94-4,4.78-8.22,3.91,6.39-16.59,12.58-32.94,19.11-49.16.56-1.38,3.31-2.44,5.11-2.55,1.11-.07,2.9,1.71,3.44,3.04,6.58,16.04,12.98,32.15,19.62,48.7Zm-33.02-20.86h17.77c-2.9-7.94-5.71-15.61-8.95-24.48-3.21,8.91-5.94,16.48-8.82,24.48Z"/>
      <path d="m1349.51,326.29c.15-15.7,7.32-25.07,20.32-27.38,9.11-1.62,20.1,3.34,23.17,10.86.64,1.56-.31,3.77-.53,5.68-1.62-.8-3.84-1.18-4.76-2.48-5.38-7.57-10.48-10.1-17.85-8.3-7.55,1.85-13.42,8.4-13.71,16.91-.17,5.14.68,10.61,2.4,15.46,2.3,6.48,7.58,9.62,14.77,9.6,6.97-.02,11.58-2.96,14.44-9.3.55-1.22,2.8-1.66,4.27-2.47.54,1.54,2.01,3.78,1.46,4.52-2.8,3.74-5.46,8.62-9.38,10.31-15.16,6.56-31.35.42-34.34-18.77-.28-1.79-.22-3.64-.28-4.63Z"/>
      <path d="m1428.3,430.23v-53.44h10.25v53.44h-10.25Z"/>
      <path d="m924.3,305.71h-16.4c-.19-2.05-.35-3.76-.54-5.83h40.47v5.56h-16.79c0,6.33.01,11.93,0,17.54-.02,8.31.08,16.63-.25,24.94-.05,1.22-2.04,2.98-3.46,3.4-2.73.81-3.23-1.21-3.21-3.53.1-11.97.13-23.94.19-35.92,0-1.81,0-3.63,0-6.15Z"/>
      <path d="m1464.69,305.69c-4.45,0-8.27-.19-12.05.05-4.36.28-5.77-1.48-4.58-5.85h39.52v5.74h-16.09v44.9c-6.31,1.73-6.79,1.38-6.8-4.46-.01-13.24,0-26.48,0-40.38Z"/>
      <path d="m1375.28,376.99c1.92-.24,2.71-.41,3.51-.43,8.54-.22,8.44-.2,9.91,8.15.57,3.25,1.72,6.41,2.64,9.6,1.93,6.66,3.81,13.34,5.89,19.96.38,1.22,1.44,2.34,2.44,3.24,2.41,2.19,2.83,8.74.57,10.96-2.64,2.59-5.91,1.56-7.06-2.08-4.55-14.36-9.1-28.71-13.83-43.01-.67-2.04-2.35-3.75-4.06-6.39Z"/>
      <path d="m1128.99,305.44h-16.94c-.09-1.93-.17-3.62-.27-5.57h40.25c.11,1.8.22,3.52.33,5.23-4.47,0-8.59.26-12.67-.08-3.59-.3-4.63.94-4.59,4.43.15,13.62.06,27.25.06,41.45-2.05.17-3.91.33-6.17.53v-45.98Z"/>
      <path d="m1403.04,429.95c-.19-1.69-.42-3.38-.55-5.07-1.04-13.27,1.06-26.11,5.44-38.62.16-.47.43-.91.57-1.38q2.65-9.25,13.48-7.94c-5.89,17.75-11.74,35.35-17.59,52.94-.45.02-.91.05-1.36.07Z"/>
      <path d="m1163.93,389.62c-.43,7.75-.71,15.52-1.38,23.25-.18,2.14-1.44,4.2-2.34,6.25-.77,1.75-2.12,3.32-2.51,5.13-1.08,4.95-3.64,7.38-8.91,6.42-1.28-.23-2.64-.03-4.44-.03,4.69-13.35,9.28-26.32,13.81-39.32,1.36-3.9,2.39-7.91,3.88-11.76.5-1.29,1.93-2.22,2.93-3.31.38.33.76.67,1.14,1-.75,4.17-1.5,8.34-2.25,12.51l.08-.13Z"/>
      <path d="m1357.88,71.13v20.83h-20.08v-20.83h20.08Z"/>
      <path d="m373.35,60.33c12.38-6.8,20.66-18.09,30.33-27.83,6.02-6.06,11.63-12.52,18.07-18.49-4.92,28.2-15.57,55.07-17.12,83.78-2.44-5.41-1.32-19.63,1.37-29.28,4.21-15.1,7.82-30.36,11.8-46.02-9.1,9.47-17.71,18.69-26.63,27.59-4.08,4.07-8.73,7.6-13.24,11.23-1.69,1.36-3.84,2.7-4.49-1.09,0,0-.09.11-.09.11Z"/>
      <path d="m1497.04,299.76h6.25v51.52h-6.25v-51.52Z"/>
      <path d="m1194.51,430.3h-11.16c-5.16-12.26-3.74-24.88-3.75-37.4.53-.13,1.05-.25,1.58-.38,4.35,12.31,8.7,24.63,13.34,37.77Z"/>
      <path d="m1163.85,389.75c1.24-2.86,2.15-5.94,3.83-8.52,1.01-1.55,3.27-3.3,4.84-3.19,1.44.1,3.16,2.36,3.99,4.04,3.67,7.42.54,15.09,1.13,22.65-.45.08-.89.17-1.34.25-2.06-6.17-4.11-12.34-6.17-18.5-.37-.06-.75-.12-1.12-.17l-3.98,10.5c-.36-.01-.73-.03-1.09-.04,0-2.38,0-4.77,0-7.15,0,0-.09.13-.09.13Z"/>
      <path d="m1480.32,424.33c10-2.74,13.59-1.2,13.32,5.47-9.14,2.31-11.6,1.36-13.32-5.47Z"/>
      <path d="m1175.49,411.73c.13,2.44.22,4.16.33,6.2-2.22,0-4.82.53-7.01-.17-1.7-.55-2.9-2.64-4.32-4.05,1.49-.66,2.92-1.65,4.47-1.89,2.07-.33,4.23-.08,6.53-.08Z"/>
      <path d="m1159.99,320.91c.71-2.32,1.13-4.8,2.32-6.83.33-.57,3.69-.37,4.34.49.94,1.22,1.49,4.13.72,4.95-1.37,1.47-3.84,1.93-5.85,2.81-.52-.47-1.03-.94-1.55-1.42Z"/>
      <path d="m537.38,94.07c5.96-1.52,11.91-3.04,17.87-4.56.36.29.73.58,1.09.87-.99.6-1.91,1.37-2.97,1.79-4.29,1.67-8.59,3.35-12.96,4.8-2.63.87-3.83-.18-2.91-3.01,0,0-.12.12-.12.12Z"/>
      <path d="m1160.39,344.71c3.56.08,6.67-1.54,7.04,2.83.19,2.3-.13,4.38-3.36,4.14-4.91-.36-2.55-3.94-3.68-6.97Z"/>
      <path d="m254.13,216.74c-4.28.79-8.75,1.62-13.28,2.45-2.7-8.92,7.81-9.92,8.84-16.51-3.51-.51-6.73-.56-9.61-1.55-1.7-.59-2.89-2.68-4.31-4.09,1.27-1.2,2.44-2.55,3.84-3.57,2.61-1.91,5.36-3.63,8.82-5.94-2.28-1.07-3.52-1.81-4.86-2.25-3.35-1.11-5.74-2.78-4.7-6.85,1.06-4.14,4.41-2.7,6.99-2.7,2.72,0,5.43.48,8.69.81-3.04-5.26-5.67-9.8-8.68-15,7.99-3.34,13.61-1.09,19.65,2.76-.77-2.74-1.86-5.45-2.18-8.24-.2-1.78.77-3.68,1.21-5.53,1.99.76,4.32,1.1,5.87,2.38,1.92,1.59,3.2,3.95,5.24,6.62,2.74-5.77,5.04-10.63,7.34-15.48.63.05,1.27.1,1.9.15,2.65,4.99,5.29,9.99,8.5,16.04,1.71-3.07,2.85-5.72,4.55-7.95,1.03-1.35,2.91-2.06,4.41-3.05.75,1.45,2.09,2.9,2.12,4.37.09,3.84-.39,7.7-.73,12.91,3.6-2.83,5.8-5.1,8.46-6.45,1.83-.93,4.32-.57,6.51-.79-.34,2.02-.51,4.1-1.09,6.05-.36,1.23-1.58,2.2-1.98,3.42-.37,1.14-.63,2.82-.04,3.6.59.79,2.28,1.04,3.47,1.02,1.64-.04,3.28-.87,4.89-.79,1.63.08,4.54.73,4.6,1.36.19,1.87-.23,4.27-1.36,5.71-2.15,2.73-4.97,4.94-8.56,8.37,4.62.66,7.74.54,10.33,1.66,1.86.8,3.43,3.08,4.23,5.07.24.59-2.4,2.85-4.06,3.54-2.18.91-4.69,1.02-8.71,1.79,3.46,3.03,6.27,4.83,8.14,7.33,1.48,1.98,1.82,4.81,2.67,7.26-2.27.42-4.62,1.39-6.81,1.13-2.84-.35-5.55-1.68-8.32-2.59-.34.32-.68.63-1.01.95,1.58,2.92,3.4,5.74,4.67,8.78.97,2.32,1.25,4.93,1.84,7.41-2.64-.33-5.36-.39-7.91-1.09-2.31-.63-4.42-1.96-8.18-3.71,1.18,3.85,2.38,6.2,2.52,8.62.18,3.05.47,8.15-.97,8.84-4.33,2.08-6.75-1.91-8.59-5.34-1.93-3.59-3.57-7.33-5.28-10.89-.85,4.59-1.49,9.36-2.71,13.97-.54,2.06-1.91,5.02-3.49,5.46-3.54.99-3.98-2.57-4.75-5.03-.97-3.1-1.77-6.25-2.64-9.38-.5-.1-.99-.19-1.49-.29-2.13,3.2-4.1,6.54-6.47,9.55-1.08,1.38-2.97,2.12-4.49,3.15-.69-1.5-1.85-2.97-1.96-4.52-.28-3.91-.09-7.86-.09-12.26-2.99.92-6.32,1.66-9.41,2.98-4.43,1.89-5.84-.47-5.29-3.98.5-3.21,2.29-6.22,3.66-9.68Zm38.94-21.69c-.02-4.22-3.92-7.73-8.64-7.76-5.64-.03-8.78,2.83-8.65,7.89.13,4.81,4.24,8.84,8.98,8.78,4.23-.05,8.33-4.44,8.31-8.92Z"/>
      <path d="m407.44,436.19c-.72,2.06-1.48,4.26-2.25,6.46-1.65-.91-3.31-1.83-5.44-3.01-.34,1.23-.61,2.61-1.1,3.89-.5,1.31-1.22,3.57-1.86,3.58-1.39.02-2.94-.96-4.17-1.86-1.32-.96-2.41-2.27-3.53-3.5-3.17-3.5-3.38-6.79-.63-9.13,3.21-2.74,7.92-2.36,10.64.97,1.02,1.24,1.81,2.67,3.27,4.84.33-1.87.74-2.87.64-3.82-.52-4.97,1.11-8.42,5.84-10.8,6.11-3.07,11.89-6.8,18.6-10.71,1.83,4.72,4.01,9.63,5.49,14.75.33,1.14-1.8,2.99-3.4,4.08,3.01-6.58-3.6-9.65-3.99-14.6-.72.1-1.44.2-2.16.29.16,1.88-.2,4.03.59,5.6,2.83,5.61,2.28,8.83-2.76,12.63-5.78,4.35-8.71,4.36-13.77.33Zm11.46-14.07c-2.88,1.74-6.06,3.2-8.59,5.41-.98.86-1.15,3.69-.5,5.07.68,1.45,2.87,3.29,4.23,3.16,7.85-.76,10.02-6.79,4.86-13.64Z"/>
      <path d="m332.04,450.76c.7-2.11,1.17-4.33,2.17-6.29.8-1.57,2.38-4.07,3.36-3.95,1.79.21,4.6,1.83,4.85,3.23.64,3.65,1.01,7.83-.2,11.19-1.14,3.17-5.03,3.69-8.13,1.86-2.38-1.41-4.38-3.47-6.27-5.02-2.67,1.64-5.27,4.19-8.3,4.9-6.02,1.41-8.73-1.78-7.33-7.69.79-3.32,1.69-6.61,2.54-9.91.86.18,1.72.37,2.58.55-.41,2.32-1.13,4.64-1.16,6.97-.03,2.42.02,6.62,1.04,6.95,3.59,1.18,5-2.07,6.13-4.94.67-1.7,1.11-3.53,2.03-5.07.82-1.36,2.16-2.41,3.28-3.6.46,1.5,1.15,2.98,1.32,4.52.23,2.02.06,4.09.06,6.14.68.05,1.36.11,2.04.16Z"/>
      <path d="m358.32,451.5c1.08,4.4-1.71,4.86-4.03,5.36-4.32.93-7.42-.92-9.32-4.77-1.6-3.24-.2-9.39,2.72-11.27,3.71-2.39,7.23-1.88,9.45.54,3.3-1.31,6.09-3,9.04-3.36,1.55-.19,4.11,1.56,4.95,3.12,2.79,5.14-.72,12.33-6.46,13.37-1.32.24-3.4-.91-4.36-2.06-1.88-2.25-2.91-5.25-4.91-7.36-1.11-1.17-4.87-1.89-5.03-1.57-1.19,2.29-2.63,5.07-2.2,7.35.25,1.35,3.69,2.47,5.86,2.93,1.07.23,2.5-1.27,4.28-2.28Zm9.93-6.16c.36-.78.72-1.56,1.08-2.34-1.84-.7-3.67-1.47-5.56-2.02-.19-.05-.75,1.18-1.14,1.82,1.87.85,3.75,1.69,5.62,2.54Z"/>
      <path d="m301.26,453.42v-10.45c-.31-.04-.61-.07-.92-.11-.59,1.46-1.01,3.02-1.79,4.37-2.8,4.81-12.57,4.66-15.3-.3-.54-.98-.55-2.73-.04-3.73,1.58-3.06,3.24-6.18,5.44-8.79,1.91-2.25,4.21-1.43,4.57,1.45.43,3.41.1,6.9.1,10.99,1.5-2.3,3.07-4.86,4.81-7.3.88-1.23,2.08-2.24,3.13-3.35.84,1.29,2.13,2.48,2.44,3.88.99,4.54,2.27,9.23-.68,13.42-.58-.03-1.17-.06-1.75-.09Z"/>
      <path d="m263.22,438.68c-4.23-.66-4.07-3.52-3.22-6.01-3.19.25-6.56,1.4-9.29.53-4.8-1.53-6.16-7.94-3.55-13.26,1.94-3.95,5.71-4.79,10.71-2.38,7.39,3.55,9.38,8.92,6.25,16.38-.62,1.48-.67,3.2-.98,4.82l.09-.08Zm-16.27-14.47c2.67,2.91,4.54,6.3,5.87,6.1,2.55-.37,4.8-2.79,7.17-4.35-1.94-2.02-3.58-4.79-5.96-5.77-1.26-.52-3.81,2.05-7.09,4.02Z"/>
      <path d="m263.14,438.76c1.37-1.08,2.82-2.08,4.09-3.26,2.16-2,3.97-4.47,6.36-6.11,3.53-2.43,7.28-.79,8.56,3.3,1.02,3.25-3.99,12.07-7.1,11.62-2.09-.3-3.86-2.76-6.7-4.97-.75-.1-2.93-.39-5.11-.67,0,0-.1.09-.1.09Zm9.24,1.02l3.07.96c.63-2.39,1.25-4.77,1.88-7.16-.9-.16-2.5-.63-2.58-.44-.92,2.16-1.61,4.42-2.37,6.65Z"/>
      <path d="m378.61,436.42c1.6,1.49,3.9,2.7,4.63,4.53,1.15,2.89,6.78,6.1,3.05,8.38-3.72,2.27-3.97-4.16-6.06-6.46-1.27-1.39-1.91-3.37-2.83-5.08.4-.46.81-.91,1.21-1.37Z"/>
    </g>
  </g>
</svg>