<?xml version="1.0" encoding="UTF-8"?>
<svg id="uuid-64a824b5-90db-41c9-a594-6cef2affaca1" data-name="Capa 2" xmlns="http://www.w3.org/2000/svg" viewBox="0 0 840.68 328.5">
  <g id="uuid-9e484481-e6a9-4a81-84c2-6e7446c0e2fb" data-name="Capa 1">
    <g>
      <path d="m165.62,73.83c.52.16,1.08.24,1.56.48,14.51,7.28,29.85,12.17,45.63,15.75,13.02,2.96,26.2,5.01,39.48,6.37,11.92,1.22,23.87,2.26,35.8,3.34,15.6,1.42,31.18,3.02,46.46,6.66,21.55,5.13,42.19,12.67,61.67,23.29,1.82.99,3.67,1.95,5.53,2.86,2.56,1.25,5.1,1.2,7.55-.31,4.14-2.55,8.76-3.47,13.5-3.68,3.98-.17,7.99.09,11.98.1.67,0,1.49-.07,2-.43,4.43-3.12,9.25-4.6,14.7-3.83.51.07,1.22-.29,1.65-.67,25.09-22.23,54.59-35.48,87.02-42.74,30.25-6.77,59.27-16.85,86.38-32.07,17.02-9.55,32.84-20.75,46.7-34.54,4.13-4.11,7.83-8.64,11.73-12.97.46-.52.9-1.06,1.77-1.43-.57,3.01-1.02,6.05-1.73,9.03-3.39,14.18-10.79,26.02-21.27,36.02-10.12,9.67-21.94,16.74-34.61,22.49-14.68,6.66-30,11.4-45.72,14.82-9.67,2.1-19.44,3.76-29.18,5.52-13.27,2.4-26.01,6.5-38.38,11.81-18.95,8.14-36.67,18.44-53.32,30.58-.64.47-1.24.97-1.66,1.3.18,2.53.34,4.82.51,7.33,4.97,2.6,9.47,5.88,10.54,12.77-3.6-2.7-7.22-4.02-11.41-3.98-.22.77-.45,1.44-.61,2.12-1.71,7.54-5.74,13.63-11.67,18.5-6.68,5.49-14.48,8.69-22.73,10.89-6.42,1.71-12.96,2.81-19.62,3.04-1.51.05-2.74.5-3.96,1.41-5.63,4.21-11.34,8.33-16.97,12.55-1.14.85-2.04,1.06-3.43.45-5.18-2.24-10.71-3.13-16.25-3.92-10.38-1.48-20.82-2.23-31.29-2.51-.69-.02-1.38-.11-2.18-.59.83-.37,1.63-.8,2.48-1.09,6.64-2.29,13.27-4.63,19.95-6.8,7.05-2.29,13.71-5.27,19.56-9.9,5.02-3.98,9.13-8.7,11.95-14.49.48-.98.84-2.03,1.35-3.29-.87-.07-1.47-.12-2.06-.16-2.55-.16-5.11-.21-7.65-.49-4.12-.44-7.51-2.36-9.78-5.81-2.09-3.18-4.94-5.4-8.06-7.38-6.69-4.27-13.82-7.69-21.1-10.78-18.15-7.69-36.96-13.29-56.25-17.22-9.93-2.02-19.97-3.56-29.96-5.28-22.9-3.94-44.78-11.07-65.63-21.29-6.52-3.19-12.79-6.9-19.16-10.4-.66-.36-1.18-.97-1.76-1.46l-.04.05Z"/>
      <path d="m332.98,311.97h-9.22c-.1-1.05-.27-2.04-.27-3.04-.02-8.07,0-16.15-.02-24.22,0-.93-.08-1.85-.14-2.93-1.32.24-1.57,1.17-2.02,1.84-3.41,5.12-6.78,10.27-10.17,15.41-.43.65-.9,1.27-1.61,2.26-4.42-6.66-8.67-13.06-13.01-19.61-.99.99-.74,1.98-.75,2.86-.02,7.99,0,15.99-.02,23.98,0,1.03-.09,2.05-.15,3.41-3.11.24-6.08.18-9.23.03v-46.8c.62-.09,1.23-.23,1.83-.24,2.24-.03,4.48.06,6.72-.04,1.45-.07,2.33.44,3.09,1.7,3.27,5.4,6.64,10.74,9.98,16.1.45.73.95,1.43,1.66,2.5.69-.97,1.2-1.62,1.64-2.33,3.26-5.22,6.59-10.4,9.72-15.69,1.04-1.76,2.25-2.41,4.24-2.28,2.45.16,4.92.04,7.62.04.12,1.07.3,1.9.3,2.74.02,13.91.02,27.82,0,41.73,0,.78-.12,1.55-.21,2.59Z"/>
      <path d="m85.38,295.45c3.82,5.61,7.44,10.92,11.31,16.6-3.91,0-7.39.07-10.87-.07-.59-.02-1.29-.84-1.71-1.45-2.62-3.82-5.25-7.63-7.71-11.55-1.03-1.64-2.26-2.31-4.13-2.15-1.35.11-2.72-.02-4.07.05-1.66.09-1.94.34-1.96,2.03-.05,3.43-.01,6.87-.03,10.3,0,.85-.09,1.71-.14,2.71h-9.5c-.41-5.15-.12-10.3-.17-15.45-.05-5.19-.01-10.38-.01-15.57s0-10.36,0-15.75c.88-.09,1.57-.22,2.25-.22,6.31-.02,12.62-.08,18.93.02,3.03.05,6.06.37,8.91,1.54,5.55,2.28,8.64,6.4,8.99,12.42.1,1.74.11,3.54-.19,5.25-.82,4.52-3.37,7.85-7.43,10.02-.69.37-1.39.72-2.45,1.28Zm-18.95-21.27c-.38,4.43-.23,8.64-.12,12.85.02.9.75,1.21,1.52,1.19,3.98-.08,7.99.04,11.94-.39,3.7-.4,5.96-3.47,5.81-7.04-.15-3.5-2.55-6.33-6.12-6.55-4.21-.26-8.44-.06-13.03-.06Z"/>
      <path d="m659.34,265.06c.7-.04,1.47-.13,2.25-.14,6.08-.01,12.15-.08,18.23.03,2.3.04,4.63.34,6.86.87,8.55,2.03,12.06,8.73,11.31,16.71-.52,5.5-3.31,9.57-8.37,11.98-.49.23-.94.55-1.7,1,3.68,5.42,7.29,10.74,11.06,16.3-.79.12-1.3.26-1.8.26-2.48.02-4.96-.08-7.43.04-1.55.08-2.51-.45-3.35-1.75-2.42-3.76-5.05-7.39-7.4-11.2-1.12-1.8-2.45-2.54-4.52-2.35-1.8.16-3.62.12-5.62.18-.18,5.14.05,9.99-.15,14.94h-9.28c-.68-1.93-.78-44.28-.1-46.88Zm9.64,9.22v13.67c.78.12,1.39.28,2.01.29,2.87.03,5.75.06,8.62,0,1.11-.03,2.23-.2,3.3-.47,2.88-.75,4.75-2.96,4.99-5.74.4-4.64-2.18-7.69-6.87-7.87-3.58-.14-7.18-.06-10.77-.06-.38,0-.76.11-1.28.2Z"/>
      <path d="m42.82,270.61c-2.12,2.56-4.09,4.94-6.12,7.39-.98-.68-1.75-1.23-2.55-1.75-3.55-2.28-7.4-3.39-11.61-2.74-6.43,1-10.27,5.01-11.81,11.08-1.47,5.79-.26,11.15,4.12,15.45,3.28,3.21,7.35,4.3,11.89,3.85,2.41-.24,4.7-.79,6.86-1.94,1.11-.59,1.67-1.39,1.61-2.67-.08-1.72-.1-3.45-.15-5.46h-10.22v-8c2.05-.56,17.13-.61,19.54-.07.08.48.23,1.01.23,1.54.02,5.6,0,11.19.02,16.79,0,1.02-.2,1.84-1.09,2.48-8.8,6.4-18.38,8.34-28.75,4.68C4.44,307.59-.18,297.44,0,290.01c.12-4.98.53-9.73,3.22-14.02,4.57-7.29,11.16-11.23,19.78-11.64,4.09-.2,8.15,0,12.04,1.49,2.78,1.06,5.34,2.47,7.78,4.77Z"/>
      <path d="m512.4,292.81c-.51,3.6-.44,6.89-.07,10.48h25.4c.38,3.01.34,5.74.05,8.63h-35.33c-.08-.7-.22-1.38-.23-2.07-.01-14.22-.01-28.43,0-42.65,0-2.13.12-2.27,2.08-2.28,10.47-.02,20.94,0,31.4,0,.46,0,.93.11,1.59.19.57,2.54.35,5.07.17,7.58-.03.36-.68.83-1.12.96-.59.18-1.27.09-1.9.09-6.47,0-12.95,0-19.42,0-2.82,0-2.93.12-2.94,3.01,0,2.29.05,4.59.08,7.04,2.65.45,5.04.19,7.4.23,2.48.04,4.95.01,7.43.01s4.76,0,7.35,0c.38,2.97.25,5.71.09,8.75h-22.02Z"/>
      <path d="m449.74,265.08h9.36c.07.99.17,1.84.18,2.69.02,4.31,0,8.63.01,12.94,0,.64.02,1.28.08,1.91.07.83.53,1.31,1.39,1.34.48.02.96.03,1.44.03,4.8,0,9.59,0,14.39,0,.78,0,1.55-.1,2.63-.18.38-6.27-.03-12.4.26-18.79,3-.2,5.78-.14,8.54-.03.37.01.9.64,1.02,1.08.19.67.11,1.42.11,2.14,0,13.5,0,27,0,40.51,0,1.01-.13,2.02-.22,3.19h-9.24c-.11-.92-.29-1.84-.3-2.75-.03-4.23-.01-8.47-.02-12.7,0-.72-.04-1.44-.08-2.15-.05-.87-.55-1.28-1.39-1.32-.32-.02-.64-.03-.96-.04-5.04,0-10.07-.02-15.11,0-2.27.01-2.5.23-2.52,2.46-.04,4.47-.02,8.95-.02,13.42,0,.94,0,1.88,0,3.12-3.35.22-6.42.12-9.43.08-.57-1.93-.66-44.37-.11-46.96Z"/>
      <path d="m739.7,265.11h9.58c.07.81.17,1.5.17,2.19.01,8.07.08,16.15-.04,24.22-.04,2.54-.34,5.12-.93,7.59-1.78,7.45-6.67,11.8-14.09,13.34-4.2.87-8.41.75-12.58-.35-7.16-1.89-11.27-6.65-12.79-13.74-.36-1.7-.52-3.48-.54-5.23-.06-8.63-.05-17.27-.05-25.9,0-.63.09-1.26.14-1.84,1.79-.57,6.89-.65,9.55-.13.04.78.13,1.62.14,2.47.01,7.83-.06,15.67.05,23.5.03,2.05.33,4.16.94,6.11,1.23,3.96,4.51,6.27,8.64,6.39,1.19.04,2.42.06,3.58-.17,4.22-.83,7.03-3.81,7.69-8.14.25-1.65.37-3.34.38-5.01.04-7.43.01-14.87.02-22.3,0-.94.08-1.88.13-2.99Z"/>
      <path d="m199.14,271.6c-1.93,2.23-3.89,4.5-5.99,6.93-.86-.63-1.61-1.18-2.37-1.73-2.16-1.56-4.5-2.63-7.15-3.19-6.77-1.42-13.73,2.63-15.98,9.5-1.26,3.85-1.24,7.71.2,11.5,3.68,9.69,14.03,11.27,21.22,7.05,1.5-.88,2.85-2.01,4.11-2.9,2.13,2,4.21,3.94,6.39,5.99-3,3.56-6.62,5.94-10.93,7.19-1.9.55-3.9.8-5.88,1.03-2.3.26-2.41.29-2.92,3.01,1.8.37,3.89-.05,5.3,1.54.63.71,1.32,1.46,1.62,2.33.35,1.02.46,2.19.39,3.28-.21,3.01-2.64,5.23-5.71,5.38-3.57.18-5.6-1.33-6.34-4.84,1.45-.46,2.63-.39,3.78.91,1.13,1.27,2.97,1.14,4.05.02,1.18-1.23,1.26-3.21.12-4.34-.86-.85-1.88-1.21-3.05-.59-.56.3-1.09.65-1.8,1.07-.83-.4-1.72-.84-2.77-1.36.85-2.1,1.61-4.01,2.46-6.12-.7-.26-1.24-.58-1.82-.67-10.34-1.54-19.98-10.81-19.66-24.38.28-12.2,7.92-21.54,20.06-23.58,7.26-1.22,14.36-.23,20.45,4.54.63.49,1.21,1.04,1.79,1.59.16.15.21.41.42.85Z"/>
      <path d="m255.35,312.06c-3.38,0-6.32,0-9.27,0-1.04,0-1.26-.86-1.56-1.58-.99-2.36-1.99-4.71-2.88-7.1-.52-1.39-1.31-1.95-2.84-1.93-5.51.08-11.03.07-16.54,0-1.41-.02-2.2.45-2.69,1.78-.86,2.32-1.93,4.56-2.75,6.89-.54,1.54-1.43,2.07-3.03,1.99-2.45-.13-4.91-.03-7.67-.03.33-.99.49-1.66.76-2.29,6.09-14.32,12.22-28.63,18.25-42.97.67-1.6,1.55-2.2,3.22-2.09,1.67.12,3.36.11,5.03,0,1.51-.09,2.26.52,2.84,1.92,3.41,8.17,6.92,16.31,10.39,24.46,2.63,6.17,5.25,12.33,7.87,18.51.27.64.47,1.31.86,2.44Zm-24.44-34.92c-1.48,1.56-6.13,12.65-6.52,15.22,2.14.56,10.67.51,12.67-.18-2.04-4.98-4.07-9.94-6.15-15.04Z"/>
      <path d="m352.52,311.99h-9.79c.18-.65.25-1.19.46-1.67,6.17-14.54,12.36-29.07,18.5-43.62.57-1.34,1.3-2.05,2.84-1.96,1.83.11,3.68.1,5.51,0,1.42-.07,2.15.52,2.68,1.81,2.41,5.82,4.89,11.61,7.36,17.41,3.65,8.59,7.32,17.17,10.97,25.76.27.64.47,1.31.83,2.32-3.28,0-6.28.01-9.28,0-1.02,0-1.25-.86-1.55-1.59-.97-2.36-2-4.7-2.88-7.09-.52-1.42-1.36-1.92-2.86-1.9-5.43.07-10.86.08-16.3,0-1.6-.03-2.47.49-3.03,2.01-1.04,2.84-2.27,5.61-3.46,8.52Zm20.84-19.44c-.66-3.45-5.26-14.14-6.64-15.27-2.07,5.04-4.1,10.01-6.26,15.27h12.91Z"/>
      <path d="m152.29,312.06c-3.29,0-6.23-.01-9.18,0-1.02,0-1.36-.7-1.67-1.45-.98-2.36-2.02-4.69-2.88-7.09-.53-1.5-1.33-2.1-2.98-2.07-5.43.1-10.87.1-16.3,0-1.66-.03-2.44.6-2.97,2.08-.87,2.4-1.86,4.76-2.91,7.08-.26.57-.9,1.34-1.39,1.37-2.92.13-5.85.06-9.05.06.3-.9.45-1.5.69-2.06,6.12-14.39,12.26-28.77,18.34-43.18.62-1.46,1.37-2.18,3.01-2.07,1.67.12,3.36.14,5.03,0,1.74-.15,2.54.63,3.18,2.16,3.97,9.5,8.03,18.95,12.06,28.43,2.03,4.77,4.06,9.54,6.09,14.32.3.7.54,1.43.92,2.43Zm-24.42-34.72c-.26-.02-.53-.04-.79-.06-2.03,5.01-4.26,9.94-6.16,15.42,4.53.04,8.62.03,13.23,0-2.22-5.44-4.25-10.41-6.27-15.37Z"/>
      <path d="m793.99,270.35c-1.6,2.31-3.21,4.65-4.97,7.21-.82-.46-1.56-.87-2.29-1.29-3.45-1.98-7.04-3.49-11.12-3.06-1.23.13-2.55.48-3.58,1.13-2.49,1.56-2.52,4.97-.11,6.65,1.03.72,2.25,1.22,3.45,1.6,2.65.85,5.37,1.52,8.02,2.37,1.67.53,3.33,1.13,4.9,1.89,6.29,3.02,8.1,7.78,7.02,14.44-.98,6.06-5.42,9.98-12.22,11.15-7.99,1.37-15.37-.44-22.06-5-.78-.53-1.47-1.18-2.46-1.98,1.96-2.36,3.81-4.59,5.77-6.95.91.64,1.61,1.15,2.32,1.64,3.64,2.49,7.62,4.05,12.08,3.98,1.33-.02,2.69-.34,3.96-.76,1.8-.61,2.92-1.93,3.04-3.91.12-1.91-.87-3.31-2.51-3.99-2.42-1.01-4.94-1.76-7.43-2.6-2.64-.88-5.35-1.6-7.94-2.62-10.35-4.07-9.04-17.82-2.38-22.51,2.62-1.85,5.5-3,8.63-3.28,6.99-.61,13.49.91,19.22,5.14.18.14.32.34.67.74Z"/>
      <path d="m439.04,271.34c-2.11,2.43-4.09,4.7-6.21,7.14-.74-.52-1.38-.95-2-1.4-2.47-1.83-5.14-3.14-8.25-3.56-4.61-.62-8.56.69-11.8,3.93-5.76,5.75-5.79,16.02-.29,22.05,4.51,4.94,12.24,5.49,17.63,2.48,1.73-.96,3.3-2.2,5.1-3.42,1.02,1.01,2.03,2.02,3.04,3.03,1,1.01,1.98,2.04,3.09,3.19-3.41,3.65-7.21,6.26-11.96,7.38-7.22,1.7-14.17,1.14-20.49-2.98-6.99-4.56-10.52-11.18-10.81-19.5-.3-8.38,2.66-15.33,9.34-20.52,3.96-3.07,8.5-4.67,13.53-4.82,3.93-.12,7.82.03,11.56,1.46,3.16,1.21,5.94,2.97,8.51,5.54Z"/>
      <path d="m649.07,265.05v9.02c-4.68.19-9.28-.03-14.14.14-.07,1.06-.19,1.98-.19,2.89-.01,10.63,0,21.25-.01,31.88,0,.93-.09,1.87-.14,2.94h-9.49c-.09-1.05-.25-2.04-.25-3.04-.02-10.39,0-20.77-.02-31.16,0-1.09-.14-2.19-.23-3.56h-14.35c0-2.89-.03-5.49-.02-8.09,0-.77.52-1.12,1.26-1.14.48-.02.96-.01,1.44-.01,11.19,0,22.38,0,33.57,0,.78,0,1.55.07,2.58.12Z"/>
      <path d="m826.32,311.95h-9.78c-.02-3.18-.05-6.26-.06-9.35-.01-3.11,0-6.23,0-9.34v-18.9c-2.5-.41-4.8-.17-7.08-.21-2.31-.04-4.62,0-7.26,0-.33-3.06-.2-5.95-.1-8.77,1.93-.55,35.61-.67,38.2-.2.57,1.77.62,6.4.03,8.95h-13.65c-.59,4.39-.22,8.53-.29,12.64-.07,4.15-.01,8.31-.01,12.46s0,8.28,0,12.72Z"/>
      <path d="m558.95,303.14h23.42c.37,3.03.33,5.82.04,8.78h-32.86c-.62-1.96-.7-44.32-.08-46.82h9.48v38.04Z"/>
      <path d="m165.66,73.78c-.3-.05-.64-.04-.89-.18-.39-.21-.71-.53-.87-1.07.57.43,1.14.86,1.72,1.3,0,0,.04-.05.04-.05Z"/>
    </g>
  </g>
</svg>