<?xml version="1.0" encoding="UTF-8"?>
<svg id="uuid-e77f675d-d0f7-4af7-b8b9-3f9352bac1dd" data-name="Capa 2" xmlns="http://www.w3.org/2000/svg" viewBox="0 0 1114.08 245.39">
  <g id="uuid-62eeaa4f-4a9a-4af2-9b68-3a8b3674627a" data-name="Capa 1">
    <g>
      <path d="m189.29,46.11c13.53,7.25,23.1,18.22,29.67,31.83,4.25,8.81,6.59,18.09,6.3,27.99-.66,22.09-16.75,34.81-38.45,30.25-10.17-2.14-19.01-6.97-27-13.47-1.27-1.04-2.57-2.05-3.8-3.03-12.52,9.25-45.28,72.52-51.74,99.94,1.17-.13,2.25-.08,3.22-.39,49.46-15.91,93.16-41.01,127.5-80.73,14.31-16.55,25.56-34.9,30.15-56.73,5.3-25.2-4.64-44.88-28.27-55.13-17.55-7.61-36.05-8.91-54.87-7.57-23.27,1.66-45.59,7.49-67.36,15.62-.75.28-1.52.49-2.7-.08,2.5-1.21,4.99-2.44,7.51-3.61,2.57-1.19,5.09-2.53,7.75-3.46,26.64-9.28,53.87-15.01,82.28-13.2,11.88.75,23.41,3.22,34.3,8.19,24.32,11.1,36.28,34.37,31.76,61.1-4.25,25.14-16.61,46.3-32.66,65.35-39.32,46.66-88.98,77.63-147.17,95.28-1.37.41-2.82.53-4.28.79-1.65-33.68,32.78-149.45,49.07-165.29,5,5.53,9.83,11.24,15.06,16.55,6.73,6.84,14.49,12.3,23.68,15.37,20.12,6.72,33.68-5.09,30.09-25.96-2.45-14.25-9.72-26.06-18.18-37.34-.59-.78-1.23-1.52-1.85-2.27Z"/>
      <path d="m193.53,2.22c-36.17.94-70.1,10.32-101.83,27.44-26.31,14.19-49.31,32.33-65.51,57.99-7.86,12.46-13.2,25.93-12.7,40.92.64,19.55,10.6,33.61,27.21,43.17,13.73,7.89,28.83,11.1,44.48,11.91,1.16.06,3.37-1.61,3.5-2.67,2.83-23.29,5.45-46.6,8.07-69.91.07-.62-.17-1.27-.36-2.6-1.93.53-3.6.95-5.25,1.46-10.57,3.32-21.27,5.84-32.42,3.63-13.65-2.7-18.8-10.93-14.08-24.03,2.2-6.12,5.81-12.07,10.02-17.06,10.86-12.86,24.79-21.86,39.91-29.09-4.67,3.87-9.67,7.41-13.92,11.7-4.06,4.1-7.94,8.62-10.83,13.58-4.78,8.2-1.67,15.82,7.31,19.28,10.48,4.04,21.02,2.44,31.44-.34,5.76-1.54,11.42-3.5,17.08-5.26.24.49.57.87.48,1.02-13.55,24.29-20.4,50.94-27.19,77.58-2.84,11.13-5.21,22.39-7.66,33.62-.57,2.63-1.54,4.17-4.53,4.14-23.34-.19-45.47-4.64-64.43-19.19C1.62,163.62-5.07,138.71,3.88,112.06c6.63-19.75,18.62-36.12,33.55-50.22C68.89,32.13,106.25,13.41,148.61,5.25c14.62-2.82,29.69-3.25,44.56-4.77.12.58.24,1.16.36,1.74Z"/>
      <path d="m1076.93,125.54c-11.98,0-24.05.95-35.91-.22-17.4-1.72-22.71-14.18-22.09-27.88.83-18.17,9.76-26.77,28.05-27.58,11.41-.5,22.86-.22,34.29-.31,5.89-.05,7.52-1.58,5.43-6.93-1.2-3.08-4.26-6.19-7.28-7.61-3.38-1.59-7.64-1.67-11.52-1.73-12.56-.19-25.12-.19-37.67-.01-3.86.05-5.16-1.14-5.22-5.11-.21-15.18-.35-15.26,14.84-15.15,14.23.1,28.5-.1,42.69.77,19.66,1.2,30.5,12.69,30.86,32.27.34,18.36,0,36.74.15,55.11.03,3.84-1.18,5.32-5.14,5.24-10.49-.2-20.99-.07-31.49-.07,0-.26,0-.52,0-.78Zm10.89-19.11c0-5.12.15-10.11-.12-15.08-.06-1-1.72-2.76-2.64-2.75-11.17.1-22.37.15-33.51.92-4.77.33-6.63,4.4-6.61,8.99.02,4.6,2.33,7.73,6.98,7.83,11.7.25,23.4.08,35.9.08Z"/>
      <path d="m667.46,53.32c-15.76,0-30.54-.03-45.32.03-2.6,0-5.23.24-7.81.61-4.34.62-6.59,3.05-6.4,7.66.19,4.73,3.03,6.8,7.19,6.99,7.29.34,14.61.21,21.91.38,3.73.09,7.5.15,11.19.64,16.42,2.19,25.06,12.92,23.98,29.54-1.11,16.9-11.29,27.03-27.59,27.13-18.55.12-37.1-.07-55.65.1-4.07.04-5.58-1.14-5.66-5.38-.29-15.16-.43-15.16,14.93-15.16,12.93,0,25.86.04,38.79-.04,4.24-.03,8.47-.63,10.09-5.41,1.99-5.87-1.42-10.72-8.2-11.08-8.22-.44-16.49-.03-24.72-.42-6.14-.29-12.35-.78-18.33-2.08-6.97-1.52-11.9-6.34-12.66-13.45-.78-7.33-1.14-15.04.3-22.18,2.2-10.88,10.83-16.52,21.2-17.09,19.61-1.07,39.3-.86,58.96-.92,1.27,0,3.53,2.23,3.64,3.56.43,5.17.17,10.4.17,16.57Z"/>
      <path d="m429.3,79.72c0-13.67.08-27.34-.05-41.01-.04-3.88.91-5.89,5.31-5.79,16.83.4,33.69.18,50.51.9,18.38.79,28.04,9.29,29.12,27.58,1.2,20.34.52,40.8.36,61.2,0,1.25-2.58,3.41-4.09,3.54-5.21.45-10.49-.06-15.71.25-4.37.26-5.38-1.62-5.34-5.62.16-16.29.07-32.58.06-48.87,0-1.69.06-3.38-.06-5.05-.63-9.22-3.65-12.15-13.04-12.42-5.24-.16-10.5.19-15.72-.16-4.43-.3-5.83,1.29-5.79,5.7.19,19.47.08,38.95.07,58.42q0,7.93-8,7.94c-3.56,0-7.16-.36-10.66.08-6,.76-7.22-1.96-7.09-7.37.33-13.1.11-26.21.11-39.32Z"/>
      <path d="m763.89,69.75c6.93,0,13.82,0,20.71,0,9.36,0,18.73.11,28.09-.05,3.45-.06,4.95.79,5.06,4.64.47,15.21.6,15.2-14.76,15.2-11.05,0-22.1-.02-33.15.01-2,0-4.01.19-5.9.29-1.37,9.62,2.92,15.23,12.46,15.76,9.15.51,18.34.23,27.52.24,13.85.02,13.64,0,13.86,13.92.08,5.11-1.38,6.88-6.62,6.65-12.52-.55-25.16.36-37.57-1.01-24.75-2.72-36.91-16.04-38.36-40.87-.37-6.29.08-12.79,1.27-18.97,3.52-18.3,16.57-30.25,35.22-31.61,13.79-1.01,27.68-.65,41.52-1,3.48-.09,4.61,1.51,4.46,4.78-.17,3.55-.25,7.13.02,10.67.32,4.11-1.56,5.03-5.29,4.97-10.67-.18-21.35-.23-32.02,0-11.26.24-16.91,4.92-17.06,13.64-.01.7.27,1.41.54,2.72Z"/>
      <path d="m930.2,52.2c0,15.06-.46,29.44.19,43.77.33,7.41,5.21,10.62,13.2,10.9,12.17.44,11.9.44,12.23,12.67.15,5.48-1.59,7.27-6.98,6.87-6.89-.51-13.92.25-20.74-.64-15.1-1.95-23.15-11.41-23.31-26.65-.14-13.29-.03-26.59-.03-39.88,0-2.04,0-4.07,0-7.06-4.62,0-8.84-.1-13.06.03-2.83.09-3.86-.96-4.08-3.87-1.07-14.36-1.16-14.49,12.99-15.31,3.68-.21,4.23-1.88,4.19-4.95-.12-9.12-.04-18.24-.04-28.04,7.76,0,14.82-.18,21.86.18,1.14.06,3.01,2.52,3.07,3.93.31,7.66.36,15.36.08,23.02-.16,4.3,1.08,6.15,5.63,5.87,5.22-.32,10.48.04,15.72-.09,3.33-.08,4.5,1.25,4.65,4.63.62,14.61.72,14.61-13.6,14.61-3.74,0-7.47,0-11.96,0Z"/>
      <path d="m333.14,79.47c0-13.67.13-27.34-.08-41.01-.06-4.16,1.3-5.74,5.47-5.54,5.23.25,10.49.18,15.73.03,3.5-.1,5.1,1.12,5.09,4.84-.08,27.9-.08,55.8,0,83.71.01,3.61-1.3,5.03-4.96,4.88-5.42-.21-10.87-.26-16.29,0-4.1.2-5.06-1.63-5.02-5.34.14-13.86.06-27.71.06-41.57Z"/>
      <path d="m136.33,77.46c-5.21-.48-10.25-1.07-12.68-6.05-2.31-4.73-1.04-9.41,1.79-13.67,6.58-9.91,21.41-16.63,31.97-14.51,8.66,1.74,12.24,8.54,8,16.45-6.21,11.56-16.75,16.51-29.08,17.77Z"/>
      <path d="m345.92,23.74q-12.79,0-12.78-12.63,0-11.09,12.45-11.09c13.73,0,13.78,0,13.72,12.71-.06,12.39,1.31,10.88-11.15,11.01-.75,0-1.49,0-2.24,0Z"/>
      <path d="m1093.88,179.54c0,3.7.34,7.45-.14,11.09-.25,1.91-1.7,4.97-3.01,5.2-4.05.7-3.44-2.87-3.48-5.36-.09-5.61-.23-11.24.09-16.83.11-1.86,1.66-5.23,2.36-5.18,2.49.17,5.77.82,7.16,2.56,3.53,4.44,6.19,9.57,10.49,14.08,0-3.82-.33-7.68.14-11.45.24-1.92,1.68-5.03,2.96-5.24,3.96-.66,3.5,2.85,3.54,5.38.08,5.61.24,11.24-.1,16.83-.11,1.86-1.81,5.25-2.46,5.17-2.46-.29-5.6-1.06-7.01-2.83-3.43-4.31-6.03-9.27-8.96-13.97l-1.57.54Z"/>
      <path d="m643.02,234.32c0-5-.07-8.44.02-11.87.07-2.41-1.18-5.68,3.03-5.89,4.2-.21,3.49,3.01,3.52,5.51.07,5.6.22,11.22-.09,16.81-.1,1.88-1.75,5.33-2.25,5.25-2.46-.38-5.52-1.09-6.99-2.84-2.97-3.53-5.04-7.83-7.53-11.78-.65-1.02-1.49-1.93-3.26-4.2,0,5.91.31,10.32-.16,14.65-.18,1.59-2.21,2.98-3.4,4.46-1.02-1.46-2.83-2.88-2.92-4.4-.35-5.96-.35-11.96-.04-17.92.1-1.87,1.6-5.2,2.44-5.2,2.46,0,5.74.66,7.2,2.35,3.02,3.48,5.05,7.81,7.54,11.77.45.71,1.11,1.29,2.89,3.3Z"/>
      <path d="m592.16,232.56c0-3.88-.29-7.78.14-11.61.17-1.55,1.9-2.93,2.92-4.38,1.2,1.5,3.31,2.93,3.42,4.51.42,5.95.38,11.96.07,17.92-.1,1.85-1.78,5.22-2.47,5.15-2.45-.24-5.63-1-7.01-2.76-3.54-4.49-6.26-9.62-10.64-14.25,0,3.3.23,6.62-.07,9.89-.26,2.76,1.76,7.38-3.4,7.23-5.02-.15-2.97-4.73-3.15-7.48-.31-4.84-.3-9.73.03-14.56.13-1.91,1.71-5.39,2.23-5.31,2.65.37,6.04.95,7.56,2.79,3.37,4.09,5.78,8.97,8.58,13.53.6-.22,1.2-.45,1.79-.67Z"/>
      <path d="m673.69,244.62c-14-.06-19.85-6.62-16.75-18.75,1.23-4.8,4.04-8.21,9.04-8.8,4.99-.58,10.06-.58,15.1-.5,1.07.02,2.12,1.49,3.18,2.29-1.14.91-2.2,2.46-3.43,2.61-3.33.4-6.9-.44-10.03.43-2.44.68-5.9,2.95-6.2,4.92-.53,3.5-.02,8.11,2.01,10.73,1.46,1.88,6.11,1.46,9.35,1.63.49.03,1.7-2.43,1.48-3.52-.21-1.01-1.82-1.8-2.92-2.53-1.49-.99-3.08-1.84-4.62-2.74,1.74-.91,3.4-2.22,5.25-2.64,1.95-.44,4.2-.42,6.11.11,1.24.35,2.31,1.87,3.1,3.1.43.67.15,1.82.14,2.76-.1,11.93,1.26,10.81-10.81,10.9Z"/>
      <path d="m820.25,195.3c-4.48,1.8-6.98.63-8.74-2.71-.87-1.65-1.63-3.65-3.03-4.66-1.62-1.16-3.94-1.95-5.88-1.81-.89.07-1.75,2.67-2.32,4.24-.37,1.01.19,2.47-.35,3.28-.7,1.05-2.09,2.29-3.15,2.26-1.05-.03-2.93-1.5-2.96-2.39-.23-7.67-.24-15.35.06-23.01.03-.87,2.33-2.23,3.66-2.35,3.72-.33,7.49-.28,11.22-.07,4.14.23,8.64.5,10.32,5.21,1.68,4.72.37,8.86-4.45,11.91,1.85,3.32,3.62,6.49,5.63,10.09Zm-14.51-13.3c2.99-2.2,4.95-3.64,6.92-5.08-2.18-1.15-4.26-2.84-6.58-3.3-2.27-.45-6.03-.96-5.5,3.13.21,1.67,2.86,3.02,5.16,5.25Z"/>
      <path d="m480.55,195.3c-4.48,1.79-6.98.64-8.74-2.71-.87-1.65-1.63-3.65-3.03-4.66-1.62-1.16-3.94-1.95-5.88-1.81-.89.07-1.75,2.67-2.33,4.23-.37,1.01.18,2.47-.35,3.28-.7,1.05-2.08,2.3-3.14,2.27-1.05-.03-2.93-1.5-2.96-2.39-.23-7.67-.24-15.35.06-23.01.03-.87,2.32-2.23,3.65-2.35,3.72-.33,7.49-.28,11.22-.08,4.14.23,8.63.5,10.33,5.21,1.71,4.73.35,8.85-4.44,11.95,1.84,3.3,3.6,6.46,5.61,10.06Zm-13.84-13.3c2.65-2.28,4.45-3.84,6.26-5.4-2.29-1.05-4.5-2.55-6.9-3.01-2.43-.46-6.03-.52-5.18,3.46.35,1.67,3.19,2.82,5.82,4.95Z"/>
      <path d="m853.8,216.07c10.35,0,15.11,4.52,15.16,14.39.05,10.08-5.07,15.04-15.41,14.93-9.96-.1-14.88-5.03-14.9-14.91-.03-9.76,4.86-14.41,15.15-14.41Zm-8.01,14.07c-.24,5.99,2.49,9.55,7.48,9.79,5.52.26,8.46-2.9,8.63-9.26.15-5.79-2.85-9.54-7.76-9.71-4.92-.17-8.12,3.35-8.34,9.18Z"/>
      <path d="m377.26,227.88c0,3.52.12,7.04-.04,10.55-.11,2.39.98,5.85-3.15,5.93-4.58.09-3.35-3.66-3.43-6.18-.17-5.24-.29-10.5.07-15.72.14-2.02,1.95-5.69,2.5-5.6,2.63.44,5.9,1.25,7.44,3.14,3.37,4.17,5.83,9.07,8.66,13.67.51-.05,1.02-.1,1.53-.15,0-4.07-.25-8.16.12-12.2.15-1.63,1.65-3.13,2.54-4.69,1.13,1.54,3.1,3.02,3.24,4.65.49,5.96.61,11.98.33,17.95-.08,1.78-1.75,4.76-2.97,4.92-1.94.25-4.9-.84-6.07-2.39-3.41-4.55-6.15-9.6-9.16-14.46-.53.19-1.07.39-1.6.58Z"/>
      <path d="m771.42,197.05c-10.49-.01-15.12-4.67-15.04-15.1.08-9.56,4.86-14.11,14.87-14.15,10.51-.05,15.51,4.76,15.43,14.83-.08,9.76-5.03,14.44-15.26,14.42Zm8.12-14.59c0-5.88-3.01-9.56-7.9-9.64-5.01-.08-8.07,3.4-8.18,9.31-.11,6.18,3.02,10.02,8.14,9.95,4.84-.06,7.94-3.82,7.95-9.62Z"/>
      <path d="m902.36,243.62c-3.5,1.55-6.05,1.21-7.89-2-.93-1.62-1.62-3.6-3-4.7-1.83-1.47-4.22-2.24-6.36-3.31-.87,1.8-1.69,3.63-2.64,5.39-.99,1.84-1.85,4.94-3.19,5.19-4.05.73-3.47-2.83-3.51-5.33-.08-5.8.1-11.61-.07-17.41-.1-3.54,1.16-5.22,4.84-5.07,4.67.19,9.4-.22,14.02.31,6.65.76,10.4,7.94,6.07,12.81-3.9,4.37-2.37,6.98.13,10.48.71.99,1.01,2.28,1.59,3.64Zm-14.17-23.51c-2.27,1.93-4.98,3.09-5.38,4.8-.92,3.93,2.49,3.77,5.05,3.62,2.91-.17,7.2,1,7.05-3.7-.05-1.43-3.77-2.75-6.72-4.72Z"/>
      <path d="m1065.13,197.05c-10.52,0-15.18-4.66-15.09-15.04.09-9.76,4.98-14.28,15.38-14.21,10.11.07,15.02,4.93,14.94,14.78-.08,9.83-4.98,14.48-15.23,14.47Zm7.79-14.28c.1-6.38-2.36-9.72-7.34-9.94-5.22-.24-8.59,3.52-8.57,9.55.02,5.88,3.01,9.54,7.9,9.69,5.11.16,7.91-3.09,8.01-9.29Z"/>
      <path d="m515.27,243.6c-3.8,1.87-6.34.89-8.2-2.39-.74-1.3-1.26-2.92-2.36-3.77-2.02-1.54-4.4-2.61-6.63-3.88-.91,1.95-2.18,3.82-2.64,5.87-.53,2.34-.04,5.55-3.62,4.76-1.29-.28-2.77-3.09-2.87-4.82-.35-5.95-.02-11.94-.18-17.91-.1-3.5,1.09-5.26,4.8-5.08,4.84.24,9.75-.16,14.51.54,6.23.91,9.67,8.18,5.49,12.64-4.05,4.32-2.35,6.99.11,10.48.71,1,1.03,2.27,1.59,3.56Zm-14.02-13.29c2.8-2.17,6.29-3.62,6.34-5.17.13-4.41-4.03-3.2-6.73-3.4-2.57-.19-5.97-.27-5.14,3.61.36,1.69,3.09,2.87,5.53,4.96Z"/>
      <path d="m405.74,230.29c0-.19-.02-.38,0-.56.59-4.27,1.19-8.55,1.78-12.82,7.13.6,14.55.2,21.3,2.15,4.99,1.44,6.58,10.09,4.59,17.11-1.58,5.56-5.57,8.2-11.27,8.31-3.74.08-7.49-.04-11.22.16-3.93.2-5.4-1.6-5.2-5.37.15-2.98.03-5.98.02-8.98Zm6.66.27c.72,3.65-2.21,9.5,5.73,9.19,6.51-.25,8.84-2.5,8.79-9.44-.05-6.62-2.16-8.38-8.79-8.72-7.46-.38-5.3,4.89-5.73,8.97Z"/>
      <path d="m541.59,185.14c0-4.43-.23-8.88.14-13.27.11-1.3,1.94-2.44,2.98-3.66.96,1.13,2.72,2.23,2.76,3.39.25,6.92.23,13.85-.05,20.77-.05,1.26-1.68,3.49-2.56,3.49-1.99-.01-4.66-.57-5.81-1.95-2.63-3.12-4.49-6.88-6.7-10.36-.95-1.5-1.99-2.96-4.38-4.15,0,3.97.32,7.99-.15,11.9-.2,1.7-2.04,3.2-3.14,4.78-1.12-1.56-3.1-3.07-3.21-4.7-.39-5.97-.32-11.99-.06-17.97.08-1.76,1.48-4.98,2.05-4.93,2.51.22,5.85.66,7.21,2.36,3.58,4.48,6.28,9.66,9.33,14.56.53-.09,1.06-.19,1.58-.28Z"/>
      <path d="m877.84,181.72c0-.56-.13-1.16.02-1.68,1.13-3.92-2.89-9.71,2.96-11.73,7.67-2.64,20.05.65,22.97,5.12,3.43,5.24,3.46,15.17-.87,18.92-2.56,2.21-6.61,3.74-10,3.77-17.88.17-14.72,2.34-15.07-14.4Zm14.3-9.3c-5.64.35-8.13,1.92-7.63,7.07.25,2.59-.12,5.24.16,7.82.14,1.3,1.14,3.6,1.71,3.59,3.41-.06,8.41.53,9.85-1.37,2.09-2.77,2.45-7.6,1.89-11.3-.33-2.19-3.88-3.89-5.97-5.8Z"/>
      <path d="m644.58,196.2c-2.8,0-5.63.19-8.4-.1-.99-.1-1.86-1.37-2.79-2.11,1-.83,1.95-2.29,3.01-2.37,4.09-.32,8.25.06,12.32-.38,1.72-.19,3.28-1.78,4.91-2.73-1.65-1.12-3.18-2.9-4.97-3.24-3.46-.65-7.1-.25-10.6-.71-3.83-.5-5.93-3.03-6.11-6.9-.17-3.84.9-7.76,4.99-8.35,6.6-.95,13.35-.89,20.05-1,.76-.01,1.54,1.68,2.31,2.58-1.02.83-1.99,2.29-3.07,2.38-3.9.32-7.9-.21-11.75.36-1.91.29-3.57,2.27-5.34,3.49,1.8.97,3.5,2.45,5.41,2.79,2.91.51,5.97.09,8.95.31,4.59.33,7.24,2.79,7.31,7.54.07,4.88-2.35,7.83-7.24,8.28-2.96.27-5.98.05-8.97.05,0,.03,0,.06,0,.09Z"/>
      <path d="m355.23,179.15c0,3.65.13,7.3-.05,10.94-.11,2.39.86,6.06-3.2,5.64-1.18-.12-2.73-3.45-2.87-5.39-.4-5.39-.38-10.85-.01-16.25.14-2.02,1.21-4.99,2.71-5.68,2.91-1.34,5.61,0,7.38,3.15,2.7,4.81,5.76,9.42,8.67,14.11.46-.12.91-.24,1.37-.36,0-4.01-.3-8.04.13-12,.19-1.78,1.84-3.4,2.82-5.09,1.09,1.76,3,3.47,3.13,5.3.41,5.77.32,11.59.03,17.37-.09,1.74-1.5,4.86-2.25,4.84-2.29-.05-5.28-.68-6.68-2.25-2.69-3.03-4.43-6.89-6.63-10.36-.94-1.48-2.05-2.86-3.08-4.29-.49.11-.99.22-1.48.33Z"/>
      <path d="m395.59,196.26c-2.43,0-4.91.27-7.28-.1-1.36-.21-2.55-1.47-3.82-2.25,1.22-.8,2.38-2.19,3.66-2.3,3.71-.34,7.51.11,11.2-.35,1.71-.21,3.25-1.79,4.87-2.74-1.64-1.12-3.15-2.86-4.94-3.22-3.08-.62-6.33-.26-9.5-.51-4.09-.32-6.56-2.48-6.89-6.72-.34-4.33.72-8.39,5.49-9.02,6.26-.83,12.65-.74,18.98-.78.82,0,1.65,1.55,2.48,2.38-.94.9-1.82,2.51-2.83,2.59-4.09.34-8.25-.07-12.32.4-1.65.19-3.12,1.93-4.68,2.97,1.6,1.14,3.08,2.96,4.82,3.28,3.27.59,6.73.09,10.06.44,4.44.46,6.42,3.19,6.42,7.67,0,4.37-1.77,7.37-6.19,7.95-3.12.41-6.34.08-9.52.08,0,.08,0,.17,0,.25Z"/>
      <path d="m831.83,230.48c0,3.19.33,6.42-.14,9.54-.23,1.58-1.89,2.94-2.91,4.4-1.16-1.52-3.31-3.04-3.3-4.55.05-4.8-1.05-7.21-6.6-6.97-4.58.2-4.98,2.34-5.2,5.99-.11,1.89-1.64,5.06-2.92,5.28-4.08.68-3.4-2.94-3.44-5.41-.09-6-.23-12.01.14-17.98.09-1.46,2.07-2.81,3.17-4.21,1.06,1.39,2.98,2.74,3.03,4.17.15,4.15.27,7.35,5.95,7.01,3.94-.23,5.88-1.22,5.78-5.49-.04-1.8,1.14-3.64,1.77-5.46,1.54,1,4.19,1.8,4.41,3.04.61,3.45.21,7.08.21,10.65h.03Z"/>
      <path d="m675.29,179.33c4.06.2,8.15.24,12.18.68,1.2.13,2.27,1.36,3.41,2.09-1.17.85-2.29,2.35-3.51,2.44-4.24.3-8.51.12-12.87.12-.89,5.03,1.81,6.31,5.22,6.67,2.78.29,5.62-.02,8.39.31.99.12,1.84,1.33,2.76,2.04-.82.82-1.64,2.33-2.47,2.34-4.84.07-9.86.55-14.47-.57-5.92-1.44-7.58-6.54-7.57-12.29.01-7.72,1.98-12.3,7.35-13.62,4.64-1.14,9.59-1.17,14.42-1.32.94-.03,1.94,1.65,2.91,2.54-.98.87-1.88,2.33-2.97,2.49-2.75.42-5.69-.17-8.36.46-2.03.48-3.75,2.22-5.61,3.4.4.74.8,1.47,1.2,2.21Z"/>
      <path d="m593.54,179.27c4.05.21,8.12.2,12.12.74,1.43.19,2.67,1.72,4,2.63-1.34.68-2.66,1.86-4.04,1.95-4.06.26-8.14.09-12.34.09-.78,4.95,1.88,6.27,5.27,6.63,2.78.29,5.62-.02,8.39.32.97.12,1.81,1.37,2.71,2.1-.84.81-1.68,2.3-2.52,2.31-4.84.04-9.8.35-14.48-.62-5.22-1.09-7.5-5.88-7.45-12.96.05-7.48,2.31-11.82,8.02-13.18,4.29-1.03,8.87-1.04,13.32-1.04,1.07,0,2.15,1.85,3.22,2.85-1.08.77-2.08,2.04-3.24,2.22-2.38.37-4.95-.25-7.25.31-2.31.57-4.39,2.08-6.57,3.17.28.83.55,1.65.83,2.48Z"/>
      <path d="m853.44,179.29c4.05.2,8.13.23,12.15.69,1.38.16,2.63,1.4,3.95,2.14-1.36.85-2.68,2.32-4.1,2.43-4.16.33-8.37.12-12.96.12.36,5.14,2.92,6.48,6.38,6.7,2.61.17,5.25-.08,7.83.24,1.01.13,1.9,1.29,2.84,1.98-.8.84-1.59,2.41-2.39,2.42-5.01,0-10.24.48-14.97-.79-5.88-1.57-7.16-6.9-7.13-12.58.04-5.81,1.14-11.3,7.33-13.07,4.56-1.31,9.57-1.2,14.39-1.36.96-.03,1.96,1.63,2.95,2.52-.97.89-1.85,2.36-2.94,2.54-2.56.41-5.32-.24-7.8.36-2.3.56-4.35,2.18-6.51,3.33.32.78.65,1.56.97,2.34Z"/>
      <path d="m769.99,227.86c0,.75-.06,1.5,0,2.25,1.22,12.48-4.97,16.28-18.17,14.38-4.83-.69-7.95-3.23-8.15-8.42-.2-5.23-.5-10.48-.28-15.7.06-1.3,1.95-2.53,3.01-3.79,1.15,1.32,3.12,2.54,3.3,3.99.48,3.88.2,7.85.2,11.78,0,4.49,1.34,7.69,6.66,7.72,5.26.02,6.78-2.94,6.7-7.57-.07-4.12-.24-8.27.18-12.35.13-1.29,2.02-2.4,3.11-3.59,1.13,1.15,2.96,2.15,3.23,3.48.52,2.51.15,5.21.15,7.84h.05Z"/>
      <path d="m484.48,194.97c3.91-8.38,7.63-16.86,11.83-25.1,1.46-2.87,6.52-2.69,8,.27,4.06,8.14,7.67,16.49,11.47,24.76-.49.61-.98,1.22-1.47,1.82-2.11-1.06-4.81-1.63-6.21-3.29-3.91-4.63-12.41-4.63-16.19.05-1.28,1.59-3.82,2.16-5.78,3.19-.55-.57-1.1-1.14-1.65-1.71Zm16.23-18.39c-.53,0-1.05-.01-1.58-.02-.82,2.32-1.65,4.63-2.7,7.59h7.21c-1.16-2.99-2.05-5.28-2.94-7.57Z"/>
      <path d="m974.9,194.78c3.71-8.14,7.25-16.35,11.19-24.38,1.6-3.25,6.79-3.53,8.36-.43,4.11,8.14,7.74,16.53,11.67,25.05-3.81,1.79-6.04,1.45-8.09-1.79-3-4.73-12.18-4.27-15.75.14-1.3,1.61-3.79,2.27-5.74,3.37-.55-.66-1.09-1.31-1.64-1.97Zm15.2-19.87c-1.56,4.04-2.48,6.44-3.61,9.36h7.57c-1.29-3.05-2.29-5.41-3.96-9.36Z"/>
      <path d="m737.37,245.28c-2.07-1.2-4.79-1.93-6.09-3.7-3.88-5.27-12.32-5.23-16.21.12-1.21,1.66-3.74,2.35-5.66,3.49-.5-.49-1-.98-1.5-1.46,1.05-2.64,2.01-5.33,3.16-7.93,2.42-5.47,4.79-10.97,7.46-16.32,2.04-4.08,7.36-4.48,9.31-.59,3.99,7.98,7.51,16.19,11.22,24.3-.56.69-1.12,1.39-1.69,2.08Zm-9.96-12.76c-1.69-3.29-2.83-5.53-4.63-9.05-1.44,3.82-2.31,6.11-3.42,9.05h8.05Z"/>
      <path d="m445.03,179.87c0,.94,0,1.87,0,2.81-.02,12.44-10.79,18.56-21.84,12.36-1.11-.62-2.77-1.59-2.84-2.51-.6-7.56-.95-15.14-1.12-22.72-.01-.5,2.27-1.71,3.05-1.42,1.09.41,2.41,1.86,2.5,2.96.33,4.1.19,8.23.24,12.35.06,4.56,1.19,8.28,6.77,8.37,4.77.08,6.47-2.05,6.55-8.23.05-3.93-.27-7.91.23-11.78.18-1.43,2.24-2.62,3.44-3.92,1,1.28,2.6,2.45,2.86,3.86.47,2.54.13,5.22.13,7.84h.03Z"/>
      <path d="m551,243.35c-4.49,1.92-6.59,1.08-8.43-2.22-2.67-4.78-12.09-4.68-15.14-.12q-2.46,3.67-8.17,2.57c3.99-8.58,7.7-17.04,11.87-25.28,1.43-2.82,6.63-2.81,8.08.03,4.12,8.1,7.79,16.43,11.8,25.03Zm-12.24-10.86c-1.32-3.22-2.23-5.44-3.14-7.65l-1.41-.02c-.88,2.34-1.77,4.68-2.9,7.67h7.45Z"/>
      <path d="m912.93,179.66c0-2.8-.3-5.65.14-8.39.19-1.16,1.95-2.92,2.95-2.88,1.13.04,3.04,1.71,3.14,2.8.41,4.45.31,8.95.31,13.44,0,4.72,2.03,7.55,6.98,7.47,4.79-.08,6.39-3.22,6.49-7.46.1-4.3-.12-8.61.22-12.88.1-1.24,1.66-2.37,2.55-3.54,1.11,1.17,3.1,2.3,3.16,3.53.3,5.77.46,11.6-.15,17.32-.23,2.16-2.26,4.9-4.23,5.96-5.37,2.89-11.38,2.89-16.68,0-2.22-1.21-3.86-4.39-4.66-7.01-.79-2.56-.17-5.55-.17-8.35-.02,0-.03,0-.05,0Z"/>
      <path d="m333.79,243.2c3.79-8.27,7.26-16.71,11.51-24.74,1.75-3.3,6.33-3.32,7.99-.32,4.47,8.07,7.98,16.68,11.91,25.15-4.12,1.94-6.32,1.38-8.22-1.97-2.86-5.04-12.1-4.77-15.52-.12-1.32,1.79-3.76,2.74-5.69,4.08-.66-.69-1.32-1.38-1.98-2.08Zm19.37-10.7c-1.37-3.3-2.3-5.54-3.23-7.79-.47,0-.95,0-1.42.01-.88,2.37-1.77,4.74-2.9,7.78h7.55Z"/>
      <path d="m962.71,197.39c-12.92-1.11-17.19-5.44-16.3-17.09.53-7.02,3.59-10.63,10.57-11.73,3.48-.55,7.1-.61,10.62-.38,1.16.08,2.21,1.77,3.32,2.72-1.04.82-1.97,2.1-3.14,2.37-1.78.42-3.72.13-5.59.17-6.62.14-8.85,2.51-8.84,9.41,0,6.45,2.07,8.24,8.94,8.67,2.86.18,5.66,1.33,8.49,2.04-2.69,1.27-5.37,2.54-8.06,3.81Z"/>
      <path d="m570.39,196.2c-12.1.09-16.42-4.53-15.36-16.29.6-6.7,3.66-10.19,10.4-11.19,3.68-.54,7.46-.64,11.17-.51,1,.04,1.93,1.67,2.9,2.57-1,.87-1.88,2.24-3.01,2.49-1.97.43-4.09.13-6.15.19-6.18.18-8.37,2.6-8.42,9.26-.05,6.33,1.97,8.48,8.22,8.71,2.06.08,4.17-.22,6.15.19,1.13.23,2.03,1.54,3.04,2.36-.92.74-1.77,1.94-2.79,2.12-2,.34-4.1.1-6.16.1Z"/>
      <path d="m712.3,196.24c-12.57,0-18.39-8.83-13.77-20.64,2.21-5.65,6.94-6.86,12.14-7.32,2.59-.23,5.24-.39,7.81-.08,1.12.14,2.09,1.54,3.13,2.36-1.11.94-2.1,2.43-3.35,2.71-2.14.47-4.46.07-6.69.25-5.06.4-6.97,3.1-6.98,9.46,0,4.65,1.33,8.16,6.73,8.41,2.24.1,4.51-.15,6.7.21,1.21.2,2.27,1.32,3.4,2.02-1.17.87-2.24,2.19-3.55,2.51-1.76.44-3.7.11-5.57.11Z"/>
      <path d="m936.07,216.46c3.18,0,6.38-.21,9.52.11,1.11.11,2.09,1.53,3.13,2.36-.98.88-2.04,2.59-2.91,2.5-6.09-.61-6.71,3.13-6.66,7.69.04,3.74.24,7.52-.28,11.19-.21,1.49-2.15,2.74-3.3,4.09-1.12-1.37-3.05-2.66-3.2-4.13-.44-4.45-.29-8.96-.18-13.45.09-3.39-.97-5.21-4.74-5.31-1.46-.04-2.88-1.51-4.32-2.32,1.51-.93,2.93-2.42,4.54-2.68,2.73-.45,5.59-.12,8.39-.12,0,.02,0,.04,0,.06Z"/>
      <path d="m470.26,216.45c3.18,0,6.37-.21,9.52.11,1.12.11,2.1,1.51,3.15,2.32-.95.89-2,2.65-2.83,2.55-7.32-.85-7.15,3.82-6.94,8.81.15,3.54.28,7.14-.19,10.63-.18,1.3-2.09,2.36-3.21,3.54-1.07-1.22-2.95-2.37-3.06-3.67-.4-4.64-.31-9.33-.19-14,.09-3.47-1.16-5.1-4.84-5.21-1.47-.04-2.9-1.49-4.35-2.3,1.51-.94,2.92-2.43,4.54-2.69,2.73-.45,5.59-.12,8.39-.12,0,.01,0,.03,0,.04Z"/>
      <path d="m950.28,217.24c8.86-2.79,9.53,5.34,13.81,8.41,5.12-1.96,5.41-11.77,14.46-8.43-1.86,2.74-3.36,5.45-5.33,7.75-3.68,4.29-5.97,8.83-5.46,14.75.13,1.47-2.01,3.13-3.11,4.71-1.14-1.53-3.39-3.21-3.22-4.57.86-6.76-2.82-11.37-6.55-16.1-1.48-1.88-2.77-3.9-4.6-6.51Z"/>
      <path d="m788.81,216.48c3.17,0,6.36-.21,9.5.12,1.09.12,2.04,1.58,3.06,2.42-1,.85-2.09,2.53-3,2.43-6.89-.72-6.97,3.55-6.73,8.44.18,3.72.21,7.48-.19,11.17-.13,1.19-1.86,2.21-2.86,3.31-1.06-1.04-2.96-2.01-3.05-3.12-.36-4.44-.26-8.93-.12-13.4.12-3.9-.69-6.52-5.48-6.35-1.36.05-2.78-1.57-4.17-2.42,1.55-.89,3.01-2.31,4.65-2.57,2.73-.43,5.58-.12,8.38-.12,0,.02,0,.05,0,.07Z"/>
      <path d="m738.87,168.17c3.36.18,6.74.16,10.05.65,1.07.16,1.94,1.66,2.9,2.55-.97.67-2,2-2.9,1.91-6-.6-6.16,3.11-5.97,7.43.16,3.54.37,7.15-.13,10.63-.24,1.7-2.04,3.18-3.14,4.76-1.18-1.51-3.19-2.91-3.39-4.54-.5-4.05-.32-8.21-.16-12.31.15-3.78-.76-6.08-5.23-5.92-1.38.05-2.82-1.47-4.23-2.28,1.45-.8,2.82-2.07,4.35-2.3,2.56-.38,5.21-.1,7.83-.1,0-.15,0-.3,0-.46Z"/>
      <path d="m1017.46,168.71c3.36,0,6.73-.16,10.07.1.98.08,1.87,1.36,2.81,2.09-.98.83-2.05,2.47-2.92,2.37-6.39-.74-6.96,2.95-6.65,7.85.24,3.72.29,7.49-.13,11.18-.16,1.36-1.89,2.54-2.91,3.8-1.19-1.27-3.26-2.45-3.41-3.84-.47-4.24-.36-8.58-.16-12.86.19-4.06-.81-6.41-5.54-6.11-1.29.08-2.69-1.57-4.04-2.43,1.31-.74,2.57-1.97,3.95-2.13,2.95-.33,5.96-.1,8.95-.1,0,.02,0,.05,0,.07Z"/>
      <path d="m562.98,230.43c0,3.36.34,6.76-.16,10.04-.22,1.45-2.16,2.65-3.32,3.96-1.1-1.19-3.1-2.35-3.15-3.59-.31-6.88-.32-13.79-.02-20.68.05-1.25,2.02-2.41,3.1-3.62,1.19,1.27,3.17,2.42,3.39,3.85.51,3.28.16,6.69.15,10.04Z"/>
      <path d="m1043.08,182.6c0,3.37.32,6.79-.16,10.09-.18,1.26-2.17,2.27-3.34,3.39-1.01-1.09-2.85-2.15-2.89-3.27-.27-7.11-.3-14.23,0-21.34.05-1.16,2.18-2.22,3.35-3.33,1.01,1.07,2.79,2.07,2.9,3.24.38,3.71.14,7.48.13,11.22Z"/>
      <path d="m607.14,230.21c0-3.37-.31-6.79.16-10.09.19-1.31,2.11-2.38,3.24-3.56,1.11,1.18,3.14,2.32,3.19,3.55.31,6.92.31,13.86-.01,20.78-.06,1.23-2.11,2.36-3.24,3.54-1.11-1.18-3.02-2.26-3.19-3.56-.45-3.5-.15-7.1-.15-10.66Z"/>
      <path d="m917.11,230.75c0,3.37.31,6.79-.15,10.09-.18,1.32-2.06,2.4-3.16,3.58-1.14-1.17-3.2-2.3-3.26-3.53-.32-6.92-.33-13.86-.02-20.78.05-1.23,2.07-2.38,3.18-3.57,1.14,1.17,3.08,2.24,3.25,3.54.46,3.5.16,7.1.17,10.66Z"/>
      <path d="m340.07,182.29c0,3.36.3,6.76-.15,10.07-.18,1.35-1.98,2.49-3.04,3.73-1.13-1.17-3.18-2.29-3.23-3.51-.32-6.9-.33-13.82-.04-20.72.05-1.27,1.95-2.46,3-3.68,1.15,1.16,3.11,2.21,3.28,3.49.46,3.49.16,7.08.17,10.62Z"/>
    </g>
  </g>
</svg>