<?xml version="1.0" encoding="UTF-8"?>
<svg id="uuid-a9ef16de-964a-4315-ab88-105191ccf43b" data-name="Capa 2" xmlns="http://www.w3.org/2000/svg" viewBox="0 0 794.93 169.24">
  <g id="uuid-b3dbf2e0-cdf7-4670-9e9b-dc9bcdf5e47e" data-name="Capa 1">
    <g>
      <path d="m94.02,169.17c-1.67,0-3.35.15-5-.04-2.39-.28-4.83.77-7.22-.67-1.9-1.14-4.58.64-6.45-1.3-10.27-2.13-18.96-4.72-26.7-9.12-4.77-2.71-9.38-5.81-13.68-9.35-2.77-2.29-5.45-4.64-8-7.16-8.91-8.78-15.46-19.2-20.37-30.56-2.19-5.07-3.98-10.46-4.58-16.12-.21-2.02-.78-4.02-1.06-6.07-.27-2.02-1-3.98-.88-6.1.11-1.99.02-4,.02-6,0-2.17-.15-4.35.04-6.5.21-2.4-.77-4.87.63-7.23,1.28-2.15-.3-4.69.96-7.11,1.04-2,.81-4.63,1.41-6.91.58-2.23,1.47-4.38,2.26-6.56,2.92-8.06,6.96-15.65,11.88-22.53,4.5-6.29,9.61-12.39,16.34-16.7,2.68-1.72,5.33-3.45,8.77-2.99,1.76.24,2.51.94,2.73,2.68.42,3.33-.52,6.35-2.29,9.05-1.31,2.01-2.87,3.91-4.58,5.6-8.09,8.02-14.01,17.51-18.63,27.8-1.64,3.64-2.43,7.66-3.5,11.54-2.36,8.59-2.51,17.41-1.84,26.15.32,4.11,1.32,8.31,2.36,12.44,1.5,5.93,3.61,11.53,6.52,16.82,2.73,4.97,5.68,9.83,9.54,14.06,1.96,2.15,3.53,4.72,5.72,6.59,6.58,5.66,13.36,11.12,21.46,14.52,4.83,2.03,9.71,3.95,14.67,5.61,1.9.63,4.01.41,6.06,1.04,2.7.84,5.68.92,8.55,1.09,2.82.17,5.66.08,8.5.03,8.77-.15,17.15-2.46,25.24-5.46,5.62-2.08,11.15-4.68,15.99-8.49,2.63-2.07,5.55-3.77,7.92-6.21,2.44-2.51,4.93-4.97,7.42-7.43,3.54-3.51,6.14-7.72,8.8-11.86,3.44-5.36,5.76-11.27,7.43-17.41,1.15-4.24,2.26-8.46,2.84-12.87.56-4.22.98-8.4.78-12.61-.47-9.96-2.74-19.48-6.46-28.81-3.67-9.19-9.25-16.84-15.97-23.91-2.63-2.76-4.96-5.87-7.05-9.07-1.72-2.62-1.74-5.81-1.43-8.87.12-1.2,1-1.82,2.33-2.04,3.27-.55,6.16.75,8.44,2.53,4.71,3.66,9.08,7.66,12.9,12.44,4.57,5.72,8.55,11.73,11.77,18.19,2.95,5.94,5.2,12.21,6.64,18.76.41,1.88.2,4.1,1.05,5.51,1.09,1.83.38,3.53.86,5.18,2.01,6.96,1.27,14.13.76,21.08-.57,7.89-2.57,15.69-5.16,23.29-2.9,8.48-7.43,16.03-12.44,23.35-3.59,5.24-7.53,10.26-12.4,14.33-6.77,5.66-13.73,11.16-21.83,14.85-6.04,2.76-12.27,4.98-18.75,6.7-3.79,1.01-7.64,1.76-11.45,2.4-3.85.64-7.89.14-11.85.14,0,.1,0,.2,0,.29Z"/>
      <path d="m485.93,104.07h-15.71v-58.99c-3.39,1.88-4.14,5.31-6.15,7.68-2.04,2.42-3.8,5.08-5.69,7.62-1.99,2.68-4.04,5.32-6,8.02-1.86,2.57-3.65,5.19-5.74,8.18-7.77-10.7-15.31-21.1-23.43-32.28v59.87c-4.44,0-8.71-.04-12.99.03-.88.01-1.76.41-2.65.64-.72-3.88-1-73.53-.29-89.67,3.6,0,7.24.23,10.84-.07,2.83-.24,4.78.79,6.32,2.93,3.58,5.01,7.07,10.08,10.67,15.07,3.34,4.63,6.69,9.27,10.24,13.74,1.59,2.01,1.71,1.77,3.1-.48,1.41-2.28,2.94-4.49,4.59-6.6,4.28-5.49,8.43-11.06,12.09-16.99,1.08-1.76,2.48-3.33,3.81-4.92,1.51-1.82,3.14-3.06,5.89-2.77,3.61.37,7.28.09,11.1.09v88.9Z"/>
      <path d="m758.93,104.17c-4.64,0-9.12-.06-13.6.03-1.48.03-2.44-.48-3.24-1.67-4.61-6.93-9.22-13.85-13.89-20.74-3.61-5.34-7.32-10.63-10.94-15.97-1.93-2.85-3.78-5.76-5.66-8.65-1.88-2.88-3.77-5.77-5.66-8.65-.18-.27-.43-.52-.71-.7-.38-.25-1.01-.72-1.19-.59-.42.28-.9.87-.9,1.34-.06,6.66-.04,13.33-.04,19.99v35.5h-15.81V15.17c4.42,0,8.74.2,13.03-.08,2.24-.15,3.59.94,4.5,2.4,3.25,5.2,6.92,10.13,10.15,15.31,2.5,4.01,5.5,7.64,8.01,11.64,5.5,8.77,11.38,17.3,17.14,25.9.69,1.03,1.62,1.91,2.93,3.43V15.27h15.88v88.9Z"/>
      <path d="m151.1,75.05c0-1.83-.1-3.67.02-5.49.2-3.01-2.07-11.54-3.61-15.5-2.24-5.77-5.22-11.02-9.51-15.57-2.61-2.78-4.78-5.98-7.11-9.03-1.17-1.54-1.96-3.19-1.83-5.25.22-3.34,3-4.99,6.16-3.34,2.07,1.08,4.1,2.36,5.88,3.88,4.44,3.81,7.76,8.55,11.06,13.36,4.1,5.98,6.22,12.75,8.72,19.39.72,1.9.56,4.01,1.02,6.04.96,4.21.81,8.68,1.21,13.03.27,2.95-1.53,5.56-1.09,8.59.41,2.85-1.58,5.41-1.82,8.16-.24,2.75-1.43,5.12-2.2,7.63-.81,2.62-2.27,5.07-3.68,7.46-4.56,7.74-9.65,14.98-17.16,20.36-4.35,3.12-8.61,6.2-13.51,8.46-4.97,2.29-10,4.04-15.41,5.13-2.58.52-5.39-.03-7.54.99-2.65,1.26-5.14.51-7.67.8-2.25.26-4.41-.25-6.6-.91-1.94-.59-4.26.66-6.06-1.07-7.83-.52-14.56-4.11-21.36-7.55-3.56-1.8-6.71-4.22-9.64-6.8-5.13-4.51-9.81-9.51-13.51-15.34-1.47-2.31-8.39-16.6-8.75-18.86-.46-2.84-.3-5.83-1.12-8.55-1.36-4.52-.73-9.07-.89-13.6-.07-1.91-.07-3.76.9-5.62.77-1.48-.72-3.62.99-5.08-.31-5.4,2.46-9.99,4.25-14.73,1.51-4.01,4.42-7.49,6.69-11.22,2.87-4.7,7.14-8.14,11.03-11.87,1.47-1.41,3.79-2.03,5.82-2.72,1.25-.42,3.18,1.61,3.31,3,.39,4.32-1.24,7.8-4.29,10.72-5.46,5.22-9.69,11.33-12.68,18.23-1.55,3.57-3.3,7.15-3.04,11.23-1.73,1.8-.2,4.36-1.14,6-1.21,2.11-.71,4.12-.82,6.16-.11,1.9-.14,3.74.86,5.63.84,1.6-.78,3.94,1.1,5.53-.1,6.04,2.63,11.25,5.44,16.22,3.62,6.39,7.83,12.44,14.28,16.55,2.12,1.35,3.77,3.37,6.02,4.75,4.82,2.95,10.08,4.69,15.34,6.41,2.52.82,5.09,1.72,7.88,1.55,1.53-.09,3.03-.21,4.68.77,1.26.75,3.46-.04,5.23-.24.93-.1,1.85-.61,2.75-.55,5.38.36,10.35-1.55,15.06-3.49,4.09-1.68,8.52-3.18,11.78-6.53,2.85-.28,3.68-3.32,6.15-4.44,1.96-.88,3.42-3.23,4.83-5.29,1.69-2.47,3.79-4.73,5.57-7.22,2.95-4.12,4.32-8.88,5.94-13.54,1.88-5.39,2.4-10.97,2.02-16.65Z"/>
      <path d="m581.82,15.17c-2.68,2.07-4.02,4.19-6.45,5.41-1.84.92-3.09,2.97-4.66,4.47-7.51,7.19-15.03,14.36-22.63,21.62,12.92,19.07,25.85,38.14,38.98,57.5-6.51,0-12.96.05-19.4-.06-.82-.01-1.92-.65-2.38-1.34-8.1-12.11-16.13-24.28-24.17-36.43-1.81-2.73-3.63-5.46-5.35-8.04-4.2,3.77-8.31,7.53-12.5,11.2-1.6,1.4-2.23,2.94-2.2,5.12.13,8.99.06,17.98.06,26.97v2.48h-15.82V15.28h15.82v11.34c0,6.66-.02,13.32.03,19.98,0,.52.37,1.12.74,1.52.11.12.82-.28,1.23-.48.14-.07.24-.23.36-.34,6.46-6.12,12.77-12.41,19.42-18.31,4.67-4.15,9.3-8.31,13.69-12.75.51-.52,1.35-1.02,2.04-1.03,7.45-.07,14.89-.05,23.21-.05Z"/>
      <path d="m602.73,104.17c-.67,0-1.34.08-2-.01-2.2-.32-4.54.76-6.63-.65.74-2.02,1.29-4.15,2.27-6.05,3.02-5.93,4.88-12.31,7.32-18.46,2.68-6.72,5.33-13.45,8.08-20.14,1.57-3.83,2.7-7.85,4.22-11.74,1.57-4.01,3.32-7.96,4.73-12.03,1.66-4.8,3.57-9.51,5.37-14.26.22-.58.43-1.16.59-1.75.8-2.92,2.31-4.46,5.72-3.99,2.94.41,5.99.16,8.98.05,1.41-.05,2.37.68,2.65,1.72,2.11,7.6,5.76,14.62,8.11,22.14,1.19,3.81,2.97,7.43,4.42,11.16,2.57,6.6,5.34,13.12,7.57,19.85,1.26,3.79,2.85,7.48,4.46,11.14,2.99,6.76,4.86,13.97,8.43,20.5.71,1.31-.16,2.51-1.66,2.52-4.33.02-8.66-.04-12.99.03-1.89.03-2.8-.62-3.42-2.56-1.4-4.39-3.21-8.66-4.86-12.97-.22-.57-.49-1.13-.71-1.7-.83-2.15-1.65-4.31-2.47-6.47-2.62-.1-5.24-.28-7.87-.3-6.5-.04-12.99.01-19.49-.03-1.8-.01-2.9.4-3.54,2.4-.89,2.77-2.21,5.4-3.11,8.2-1.37,4.24-3.56,8.18-4.85,12.48-.12.41-.87.87-1.33.89-2.66.08-5.33.04-7.99.04Zm24.04-40c5.74,0,11.14.06,16.54-.05,1.12-.02.91-.93.48-1.8-1.41-2.89-2.05-6.06-3.58-8.95-1.48-2.81-2.09-6.07-3.12-9.13-.13-.39-.46-.72-.7-1.07-.43.33-1.07.57-1.25,1.01-2.75,6.47-5.44,12.97-8.37,19.99Z"/>
      <path d="m320.1,15.26h16v4.94c0,16.99-.12,33.99.06,50.98.07,6.32,2.42,11.74,8.34,14.99,1.98,3,5.51,3.08,8.39,3.82,3.35.87,6.98-.43,9.96-2.18,4.76-2.79,8.33-6.63,9.69-12.37.35-1.45.52-2.85.52-4.23.06-17.16.04-34.32.04-51.48v-4.46h16v4.93c0,17.99.13,35.99-.06,53.98-.08,7.48-3.09,14.01-8.05,19.64-3.45,3.91-7.56,6.91-12.22,9.13-1.79.86-3.8,1.61-5.75,1.73-3.82.23-7.54,3.22-11.51.53-.34-.23-.99-.09-1.48-.02-5.05.67-9.33-1.81-13.26-4.15-6.1-3.64-10.89-8.85-13.84-15.51-1.67-3.78-2.84-7.64-2.84-11.82.02-19.33,0-38.65,0-58.43Z"/>
      <path d="m313.01,88v16.01h-61.43c-.73-4.25-1-71.3-.32-88.66h15.53c-.07-.07.07.04.15.18.08.13.15.29.15.43,0,23.96,0,47.92,0,72.05h45.91Z"/>
      <path d="m93.9,112.13c8.16.48,14.71-2.45,20.97-6.25,5.5-3.33,9.18-8.35,12.18-13.86,1.31-2.42,2.15-5.11,3.02-7.74.53-1.63.9-3.37.99-5.08.16-2.82.52-5.78-.11-8.46-.51-2.15-.36-4.46-1.28-6.44-1.63-3.5-2.69-7.3-5.25-10.33-1.67-1.97-3.22-4.04-4.98-5.92-1.62-1.74-2.54-3.63-2.35-6.04.17-2.23,1.27-3.3,3.53-2.77,1.46.34,2.94,1.14,4.1,2.11,6.22,5.27,10.39,11.92,12.73,19.69.72,2.39,1.61,4.74,1.7,7.32.06,1.71.91,3.39.9,5.09-.09,9.27-2.13,18.24-7.07,26.02-5.95,9.37-14.47,16.09-25.21,19.37-2.48.76-5.12,1.71-7.97,1.42-1.48-.15-3.03.69-4.58.88-1.31.16-2.97.53-3.94-.06-2.59-1.59-5.44-.28-8.01-1.23-3.32-1.23-6.73-2.28-9.95-3.73-2.4-1.08-4.86-2.35-6.77-4.11-5.69-5.25-11.37-10.62-14.42-17.99-1.24-2.99-2.49-6.1-2.87-9.26-.24-1.93-1.21-3.63-1.17-5.56.04-2-.12-4.01.03-6,.79-10.28,3.73-19.62,10.79-27.58,2.14-2.42,4.1-4.54,7.04-5.91,1.65-.77,2.63-.63,3.82.6,1.27,1.3,1.6,2.27.69,4.21-1.05,2.24-2.36,4.07-4,5.84-4.23,4.56-6.79,9.98-8.45,16-1.29,4.71-1.22,9.46-.76,14.09.51,5.22,2.48,10.26,5.39,14.71,4.96,7.55,11.95,12.6,20.46,15.49,3.66,1.24,7.44,2.06,10.79,1.49Z"/>
      <path d="m794.93,104.07h-15.65V15.26h15.65v88.81Z"/>
      <path d="m76.11,81.35c-.11-6.59,1.93-14.53,6.3-23.02,2.05-3.99,4.33-7.79,7.79-10.73.32-.28.94-.5,1.29-.37.3.11.55.72.59,1.14.6,5.54,3.34,10.04,6.88,14.11,1.85,2.13,3.96,4.04,5.98,6.02,3.45,3.38,5.38,7.68,6.97,12.08,1.02,2.81,0,5.74-1.14,8.36-2.22,5.14-5.76,8.96-11.41,10.5-8.48,2.31-16.17-.28-20.53-7.9-1.99-3.47-3.27-6.87-2.72-10.17Zm14.58-12.42c-2.1,2.89-3.93,5.54-3.62,9.15.17,1.97-.02,3.97.06,5.96.03.75.28,1.53.6,2.23,1.95,4.35,5.71,6.02,9.53,4.25,4.58-2.12,6.27-5.82,4.48-10.17-.47-1.13-1.13-2.55-2.11-3.03-3.8-1.87-6.96-4.31-8.94-8.38Z"/>
      <path d="m457.74,141.03c-.99-.51-1.79-.98-2.64-1.35-1.41-.61-2.83-2.16-4.32-1.41-1.78.9-4.13.88-5.28,2.97-.68,1.24-2.47,1.63-2.44,3.5.04,2.41-.19,4.88,1.16,7.02,2.18,3.45,8.16,4.56,11.55,2.23,1-.69,1.26-1.67,1.39-2.93.39-3.83.51-3.82-3.14-3.88-.82-.01-1.65,0-2.74,0-.06-.64-.15-1.25-.18-1.86-.03-.63,0-1.26,0-1.82.55-.15.85-.3,1.15-.31,2.82-.02,5.63-.01,8.85-.01,0,3.35-.13,6.64.06,9.9.09,1.62-.76,2.5-1.77,3.27-4.17,3.15-10.79,4.44-15.35.46-2.16-1.89-3.6-4.09-4.87-6.45-.74-1.39.02-8.38.98-9.49,2.18-2.52,4.21-5.34,8.01-5.71,1.38-.14,2.83-1.13,4.06-.86,2.06.45,4.01,1.53,5.94,2.47,2.45,1.19,2.42,1.25.41,3.45-.22.25-.47.47-.83.83Z"/>
      <path d="m420.23,159.17c-6.88.21-12.06-4.45-13.02-11.76-.25-1.91.31-4.2,1.23-5.92,1.32-2.46,3.23-4.74,5.87-5.94,1.67-.76,3.76-1.61,5.39-1.24,3.11.72,6.62.85,8.91,3.81,1.98,2.56,3.6,5.1,3.54,8.55-.12,6.83-5.41,12.49-11.91,12.5Zm7.88-11.86c.3-2.83-1.21-4.78-3.02-6.73-1.54-1.65-3.78-2.28-5.48-2.21-2.34.1-4.79,1.36-6.5,3.32-1.38,1.59-2,3.56-1.98,5.63.03,3.73,4.66,7.8,8.77,7.85,4.15.05,8.18-3.8,8.2-7.86Z"/>
      <path d="m350.1,135.17c2.77,0,5.24-.07,7.71.01,4.44.15,7.09,3.32,6.21,7.69-.23,1.12-1.34,2.13-2.21,3.04-.86.89-.84,1.45-.07,2.46,2.56,3.35,4.96,6.84,7.8,10.79-1.61,0-2.72-.01-3.82,0-.85.01-1.17-.27-1.72-1.11-1.72-2.62-3.73-5.04-5.41-7.73-.82-1.31-1.85-3.22-4.06-3.1-.14,1.44-.35,2.87-.41,4.31-.07,1.66-.11,3.33.01,4.98.11,1.43-.78,2.09-1.77,2.62-1.01.54-2.25-.31-2.25-1.48-.01-7.43,0-14.87,0-22.49Zm4.15,4.14v3.76c1.58,0,3.05.18,4.43-.09.56-.11,1.31-1.16,1.32-1.79,0-.62-.72-1.7-1.28-1.8-1.38-.26-2.85-.09-4.47-.09Z"/>
      <path d="m516.28,135.27h3.69v7.67h10.05v-7.57h4.08c0,7.39,0,14.69-.02,21.99,0,.72.38,1.65-.96,1.84-1.39.2-2.32-.45-2.86-1.47-.35-.65-.15-1.61-.15-2.43-.01-2.63,0-5.27,0-8.02h-9.95v11.77h-3.88v-23.8Z"/>
      <path d="m326.19,159v-23.83c4.53,0,8.98,0,13.44,0,1.56,0,2.3.94,2.47,2.39.1.86.07,1.63-1.18,1.61-3.48-.04-6.96-.01-10.62-.01v3.81c2.99.51,6.27-.06,9.64.32v3.74h-9.83c0,2.13-.06,3.93.02,5.72.07,1.48.91,2.38,2.44,2.41,2.66.04,5.32.01,8.34.01.08,1.2.15,2.42.24,3.83h-14.95Z"/>
      <path d="m568.1,135.17c2.62,0,4.92.02,7.22,0,2.53-.03,4.38.83,5.85,3.11,1.72,2.67.91,4.94-.7,6.89-1.28,1.55-1.5,2.25-.09,3.94,2.49,2.98,4.47,6.39,6.86,9.93-.93.05-1.71.09-2.48.14-1.72.11-2.71-.35-3.81-2.1-1.91-3.05-3.51-6.43-6.33-8.84-.57-.48-1.69-1.17-1.97-.96-.7.52-1.52,1.52-1.47,2.27.13,2.03-.85,4.14.78,6.15.86,1.07-.32,2.99-1.66,3.48-1.12.41-2.2-.32-2.2-1.57-.02-4.64,0-9.29,0-13.93v-8.5Zm6.63,8c.17,0,.33,0,.5,0,1.51-.08,2.88-1.04,2.88-2s-1.37-1.92-2.88-2c-.17,0-.33.01-.5,0-1.57-.16-3.05,0-3.6,1.76-.39,1.23,1.35,2.27,3.6,2.24Z"/>
      <path d="m486,154.99v4.03h-14.68v-23.74h14.59v3.73c-3.33.43-6.94-.06-10.65.25v3.79h9.71v4.06h-9.76v7.88h10.79Z"/>
      <path d="m558,142.99v4.06h-9.68v8.06h10.59v3.73c.08-.09-.03.13-.13.14-4.78.02-9.57.02-14.51.02v-23.59h14.71v3.7h-10.76v3.88h9.79Z"/>
      <path d="m268.1,138.67c-.59.59-1.22,1.14-1.76,1.77-.82.95-1.42.81-2.46.11-1.57-1.05-3.38-1.67-5.41-1.42-1.35.17-2.04.85-2.36,2.04-.3,1.1.14,1.99,1.06,2.54,1.49.89,3.01,1.7,4.89,1.48,1.9-.22,3.14,1.23,4.65,2.03,1.91,1.01,1.12,3.21,2.24,4.65.51.66-.28,2.8-1.06,3.85-.79,1.07-1.8,2-3.37,2.58-4.69,1.71-8.51.6-12.44-2.03-1.47-.98-1.14-1.96-.71-2.73.44-.79,1.07-1.95,2.72-1.01,2.11,1.21,4.13,2.76,6.89,2.71,2.01-.03,2.84-1.4,3.97-2.5.2-.2.13-1.07-.12-1.28-1.07-.91-1.66-2.38-3.53-2.37-1.69,0-3.4-.54-5.08-.94-1.94-.47-4.19-3.33-4.09-5.4.09-1.71-.74-3.57.94-5.11,1.87-1.72,3.9-2.6,6.49-2.51,3.66.13,5.84.92,8.54,3.53Z"/>
      <path d="m294.12,159.17c-.88-.08-2.11.47-2.07-1.26,0-.37-.62-.71-.83-1.13q-2.39-4.67-7.39-4.61c-2.31.03-2.97.48-3.72,2.63-.31.87-.46,1.81-.82,2.65-.27.63-.66,1.44-1.2,1.65-.72.28-1.69.25-2.44,0-.34-.12-.63-1.16-.5-1.67.39-1.48,1-2.9,1.54-4.34,1.46-3.88,2.91-7.76,4.42-11.62.67-1.71,1.36-3.45,2.28-5.03,1.02-1.76,3.29-1.74,4.4-.03.58.89.93,1.94,1.3,2.94,2.04,5.46,4.05,10.94,6.11,16.4.16.43.72.7.87,1.13.55,1.52-.15,2.31-1.96,2.29Zm-6.3-11.19c-.26-.96-.4-1.84-.74-2.63-.31-.71-.84-1.32-1.27-1.97-.57.46-1.32.81-1.66,1.4-.52.89-.76,1.95-1.22,3.2h4.89Z"/>
      <path d="m314.01,143.17v3.87h-5.9c0,3.25-.09,6.36.04,9.46.06,1.44-.78,2.1-1.75,2.65-.98.55-2.27-.31-2.28-1.46-.02-5.16,0-10.31,0-15.47,0-1.16-.37-2.51.09-3.45.59-1.22-1.81-1.57-.42-2.88,1.06-1,2.14-.69,3.22-.7,3.96-.05,7.91-.02,11.99-.02v3.95h-10.88c0,.98.03,1.62,0,2.26-.05,1.08-.05,1.98,1.51,1.82,1.32-.13,2.66-.03,4.4-.03Z"/>
      <path d="m392.27,139.19h-5.99v-3.7c-.07.07.05-.14.17-.14,5.1-.02,10.2-.01,15.48-.01v3.69c-1.7.08-3.61.17-5.67.27v19.69c-1.36.08-2.58.15-3.99.23v-20.02Z"/>
      <path d="m493.2,139.17v-4c4.55,0,9.01.02,13.46-.01,1.41-.01,2.15.81,2.38,1.96.16.81.54,2.11-1.17,2.06-1.48-.04-2.95,0-4.77,0,0,5.76-.07,11.38.05,16.99.03,1.37-.5,2.24-1.47,2.89-1.11.74-2.56-.16-2.57-1.53-.02-4.83.02-9.65-.02-14.48-.02-3.47-.37-3.77-4-3.86-.5-.01-1,0-1.89,0Z"/>
    </g>
  </g>
</svg>