<?xml version="1.0" encoding="UTF-8"?>
<svg id="uuid-5a301a0b-e94d-41b7-8911-f5ab903d7ad9" data-name="Capa 2" xmlns="http://www.w3.org/2000/svg" viewBox="0 0 1476.17 311.9">
  <g id="uuid-a4f67e30-6a27-4db7-a473-dd91150d0e1c" data-name="Capa 1">
    <g>
      <path d="m305.28,62.39c-1.16,2.09-2.41,4.13-3.46,6.27-16.35,33.31-32.76,66.59-48.98,99.97-18.69,38.47-37.26,77-55.77,115.56-3.31,6.89-5.91,14.13-9.2,21.02-.78,1.63-3.08,3.52-4.65,3.49-1.53-.03-3.69-2.06-4.43-3.72-17.43-39.23-34.65-78.55-52.02-117.81-17.85-40.34-35.81-80.63-53.73-120.93-.85-1.9-1.78-3.76-2.67-5.64-.52.05-1.04.1-1.55.15-.28,3.16-.67,6.31-.83,9.48-1.89,38.59-4.13,77.16-5.48,115.77-.95,27.27-.67,54.59-.94,81.88-.01,1.17-.01,2.34.12,3.5,1.38,12.49,3.85,21.8,21.78,22.21,3.82.09,7.64.93,11.45.84,4.43-.11,5.46,2.46,5.51,5.96.06,4.13-2.29,5.14-6.17,5.04-19.31-.47-38.62-.86-57.93-.96-9.98-.05-19.98.39-29.94.95-4.13.23-5.88-1.55-6.31-5.23-.47-3.95,1.34-5.56,5.36-5.96,5.61-.55,11.22-1.55,16.71-2.87,6.41-1.55,11.57-5.57,12.8-12.06,2.51-13.19,4.68-26.51,5.92-39.87,2.34-25.2,4.11-50.45,5.76-75.7,1.45-22.26,2.59-44.55,3.56-66.84.85-19.46,1.58-38.94,1.77-58.41.14-14.25-5.56-21.08-19.27-24.59-4.82-1.23-9.76-2.25-14.71-2.69-4.08-.36-4.55-2.62-4.29-5.74C13.96,2.22,14.75-.14,19.05,0c15.64.55,31.29.92,46.94,1.03,7.31.06,14.63-.62,22.05-.96.95,6.51,1.44,12.95,2.89,19.16,5.21,22.37,15.09,42.97,24.97,63.52,16.51,34.36,33.13,68.66,49.79,102.95,8.95,18.41,18.09,36.73,27.16,55.08.65,1.32,1.52,2.53,2.96,4.9,1.98-3.47,3.69-6.17,5.1-9.01,12.93-26.1,25.92-52.17,38.67-78.35,17.78-36.52,35.53-73.06,52.98-109.74,7.22-15.18,13.62-30.76,15.42-48.2,2.7,0,5.31,0,7.92,0,20.47-.07,40.95-.05,61.42-.32,3.75-.05,5.6.72,5.72,4.74.12,3.95-.81,5.99-5.38,6.45-7.07.71-14.14,2.01-21.02,3.8-8.63,2.25-13.46,8.64-14.67,17.16-1.05,7.38-1.46,14.94-1.31,22.4,1.12,57.94,2.34,115.88,3.76,173.82.36,14.8,1.33,29.6,2.46,44.37,1.01,13.14,7.47,19.25,20.67,20.57,3.48.35,6.96,1.08,10.43,1.02,4.12-.07,5.82,1.72,5.77,5.62-.05,4.31-2.29,5.61-6.44,5.44-12.81-.5-25.63-1-38.45-.96-20.31.07-40.62.56-60.93.9-5.09.08-6.59-1.47-6.3-6.41.18-3.03,1.5-4.32,4.65-4.56,5.46-.41,10.96-.98,16.32-2.1,10.29-2.16,14.62-7.03,15.04-17.62.53-13.48.6-26.98.56-40.48-.07-24.32-.37-48.63-.56-72.95-.24-31.32-.47-62.64-.72-93.96-.01-1.54-.21-3.07-.32-4.61-.44-.1-.87-.21-1.31-.31Z"/>
      <path d="m929.83,104.4c23.96-.39,47.96-1.51,71.74,2.86,18.81,3.46,36.96,8.76,52.59,20.3,19.94,14.72,31,34.78,34.52,59.15,3.21,22.18.76,43.52-9.95,63.5-13.63,25.44-34.99,41.32-62.23,49.8-22.32,6.94-45.32,7.63-68.27,5.91-25.48-1.91-50.9-1.39-76.36-.58-5.18.16-7.23-1.56-6.81-6.02.25-2.63,1.1-4.63,4.44-4.95,4.46-.43,8.87-1.4,13.27-2.31,8-1.67,11.78-5.7,12.93-13.79.49-3.46.94-6.96.94-10.44.05-42.49.04-84.98-.07-127.48-.01-3.97-.63-7.98-1.37-11.89-1.09-5.77-4.39-8.58-10.2-9.31-3.14-.39-6.26-1.08-9.41-1.2-3.65-.14-5.78-1.67-5.79-5.34-.01-3.94,1.97-6.09,6.14-6.25,15.97-.59,31.94-1.31,47.9-1.95,2-.08,4-.01,6-.01Zm42.72,189.68c4.81-.57,11.5-.92,18-2.2,22.04-4.34,38.76-16.14,49.12-36.33,6.4-12.49,9.11-25.97,10.34-39.83,1.79-20.28-.31-39.9-10.19-58.09-19.84-36.55-65.22-45.83-99.61-39.02-7.75,1.53-9.42,3.8-9.46,11.73-.19,39.98-.23,79.95-.22,119.93,0,5.48.2,11.01.91,16.43,2.15,16.34,10.87,24.87,26.82,26.54,4.13.43,8.3.5,14.29.84Z"/>
      <path d="m741.14,310.9c-24.13-.43-46.98-5.51-67.13-19.36-27.31-18.77-40.71-45.46-42.71-78.08-1.66-27.06,4.98-51.9,21.83-73.46,19.46-24.91,45.61-37.57,76.71-40.54,20.86-1.99,41.29.27,60.7,8.4,30.58,12.81,49.62,35.87,57.15,67.93,7.43,31.67,3.8,62.06-14.77,89.42-18.92,27.87-46.33,41.56-79.32,44.98-4.13.43-8.3.48-12.46.71Zm71.5-93.01c-.25-17.76-2.93-35.14-9.1-51.82-6.9-18.67-17.06-35.26-34.66-45.58-34.94-20.49-79.49-4.05-93.16,34.08-8.73,24.35-7.51,49.1-1.78,73.79,4.79,20.62,13.35,39.33,29.46,53.84,26.51,23.86,71.72,19.89,93.07-8.27,12.56-16.57,15.84-35.89,16.17-56.03Z"/>
      <path d="m499.65,311.9c-25.53-1.46-49.51-6.79-70.23-22.15-29.93-22.19-42.3-52.93-40.22-89.3,3.1-54.16,39.25-93.21,93.11-100.38,31.97-4.25,62.53.69,88.96,21.04,19.94,15.35,31.19,36.09,35.61,60.54,4.86,26.89,1.78,52.79-11.88,76.83-13.94,24.54-34.95,40.34-62.07,47.55-10.85,2.88-22.18,3.96-33.29,5.86Zm71.04-94.38c-.19-3.16-.33-5.48-.47-7.81-1.39-23.1-6.95-44.94-19.17-64.87-15.54-25.36-40.65-37.35-69.7-31.63-26.6,5.24-42.59,22.53-49.96,48.13-4.77,16.59-4.8,33.53-2.61,50.5,2.98,23.17,10.15,44.68,25.23,63.05,27.29,33.25,81.38,29.85,104.08-6.52,9.92-15.89,11.96-33.59,12.6-50.86Z"/>
      <path d="m1190.42,207.18c12.74-23.44,24.99-45.94,37.17-68.48,2.29-4.24,4.58-8.53,6.26-13.02,2.05-5.49.29-8.1-5.51-9.2-2.78-.53-5.58-.98-8.4-1.24-3.88-.35-5.87-2.42-5.54-6.2.31-3.55,2.52-4.95,6.2-4.93,20.3.13,40.6.14,60.9.03,3.46-.02,4.9,1.56,5.22,4.62.32,3.11-.44,5.67-4.01,6.42-4.4.92-8.82,1.74-13.19,2.78-7.22,1.73-12.41,6.26-16.21,12.43-13.18,21.41-26.29,42.85-39.43,64.28-1.39,2.27-2.68,4.61-4.18,6.81-8.86,13.01-12.56,27.26-11.43,43.04.74,10.28.25,20.65.59,30.97.36,10.78,4.09,15.02,14.58,16.95,4.74.87,9.54,1.68,14.34,1.95,4.13.23,4.98,2.47,4.99,5.88.01,3.82-1.84,5.27-5.61,5.19-19.15-.41-38.29-.87-57.44-.96-10.98-.05-21.97.5-32.95.95-3.69.15-6.36-.62-6.47-4.86-.09-3.86,1.3-5.99,5.78-6.29,5.95-.39,11.86-1.62,17.73-2.78,4.62-.91,8.51-3.94,8.98-8.41,2.37-22.61,6.3-45.58-4.61-67.13-12.02-23.76-24.76-47.15-37.21-70.69-2.33-4.41-4.84-8.74-7.23-13.11-4.89-8.93-12.26-14.26-22.44-15.61-2.14-.28-4.23-1.04-6.37-1.19-4.34-.3-5.15-2.92-4.76-6.54.4-3.69,2.3-4.76,6.08-4.73,24.13.21,48.26.21,72.39.03,3.7-.03,6.22.48,6.76,4.57.55,4.17-1.44,6.26-5.46,6.71-.16.02-.33.06-.49.1-12.71,3.12-14.32,5.89-8.43,17.5,12.05,23.75,24.5,47.29,36.81,70.9.43.83,1.16,1.49,2.59,3.28Z"/>
      <path d="m1408.55,311.05c-18.07.43-35.18-2.79-51.34-10.9-4.2-2.11-7.15-4.91-8.78-9.56-4.28-12.25-6.06-24.84-6.44-37.73-.1-3.52.91-6.05,4.49-6.59,3.79-.57,6.07,1.21,7.36,5.06,5.74,17.11,15.5,31.32,31.32,40.59,14.5,8.5,29.54,8.47,44.36.9,14.39-7.35,19.95-27.6,12.69-44.29-4.44-10.21-11.95-17.59-21.35-23.05-12.8-7.44-26.14-13.99-38.63-21.89-14.21-8.98-24.91-21.24-28.1-38.38-5.48-29.45,11.38-54.74,41.5-62.78,16.04-4.28,32.19-4.8,48.45-1.3,6.02,1.3,12.11,2.35,18.02,4.03,1.8.51,4.2,2.59,4.46,4.24,1.99,12.78,3.55,25.62,5.19,38.45.45,3.52-1.83,4.69-4.76,5.09-3.24.44-5.64-.25-7.13-3.78-3.08-7.31-5.77-15-10.15-21.5-12.17-18.04-40.17-21.86-57.36-8.48-12.79,9.95-14.92,30.83-3.44,43.26,5.65,6.12,12.82,11.12,20,15.47,13.49,8.18,28.18,14.53,41.14,23.44,25.3,17.39,33.44,52.75,19.02,78.68-8.68,15.62-23.2,23.45-39.89,27.61-6.74,1.68-13.74,2.3-20.63,3.4Z"/>
      <path d="m1362.76,44.83c-.78,24.44-12.9,41.65-33.14,53.66-5.12,3.04-10.8,5.13-16.23,7.63-2.84,1.31-4.89.31-6.07-2.42-1.21-2.79-.87-5.08,2.2-6.66,9.22-4.76,18.07-10.12,24.55-18.47,7.68-9.9,10.52-20.74,4.76-32.58-3.74-7.69-10.25-12.32-18.59-13.62-6.28-.98-11.45-2.77-12.82-9.68-1.46-7.35,1.92-14.7,8.14-18.47,8.47-5.14,21.29-3.94,29.99,3.08,11.99,9.69,16.79,22.74,17.22,37.52Z"/>
    </g>
  </g>
</svg>