<?xml version="1.0" encoding="UTF-8"?>
<svg id="uuid-766cefec-37b0-4f03-a870-f08bdde301b2" data-name="Capa 2" xmlns="http://www.w3.org/2000/svg" viewBox="0 0 2496.02 1082.68">
  <defs>
    <style>
      .uuid-d5729982-62c5-42ca-8808-58e51b2bae7a {
        fill: #145cac;
      }

      .uuid-d5729982-62c5-42ca-8808-58e51b2bae7a, .uuid-0f8f231e-5695-44a9-9147-542bbc7e193f {
        fill-rule: evenodd;
      }

      .uuid-0f8f231e-5695-44a9-9147-542bbc7e193f {
        fill: #185cac;
      }
    </style>
  </defs>
  <g id="uuid-68037c80-7eb6-4db4-b497-bc102dfc43fd" data-name="Capa 1">
    <g>
      <path class="uuid-d5729982-62c5-42ca-8808-58e51b2bae7a" d="m2152.45.97c-32.28.98-59.56,6.49-33.87,5.76,0-1.16,10.08-2.13,43.31-4.14,114.95-5.54,224.67,11.99,328.38,44.27,5.03-.66,3.32,3.39,1.36,6.3-3.52,10.87-6.03,22.05-10.28,33.09-10.28,32.86-19.93,65.9-31.33,98.7-6.44-5.02-25.17-22.05-33.87-25.22.09,5.92,10.9,8.65,15.82,14.36,20.19,17.58,20.95,18.77,26.15-7.29,2.34.95,6.78-25.57,6.72-23.77,2.28,3.64,8.44-21.98,8.63-27.22,6.75-9.14,13.11-40.84,18.24-53.25,1.25-6.66,10.97-17.68-3.66-18.81-11.89-3.53-30.48-9.97-41.56-10.83-84.66-27.97-199.08-35.99-294.04-31.98m-75.5,8.91c-119.23,19.98-227.37,68.79-321.34,147.64-2.57,2.06-3.2,3.19-2.42,4.38-.04,5,10.99-9.42,16.69-12.72,4.57-2.13,9-8.39,11.58-9.44,24.07-17.59,75.89-51.93,113.95-70.5,45.12-20.23,90.63-37.23,138.48-48.56,15.17-3.93,120.82-20.25,43.05-10.82m-1743.77,3.21c4.91,7.27,16.79,13.81,20.26,19.54-4.23-2.4,3.1,7.65,4.66,6.35-.05.94,3.78,16.36,5.4,16.4,1.7-3.68-4.65-21.55-6.91-20.14-101.85-53.19,469.54-8,459.39-20.98,1.67,2.76,22.17.05,23.51-.31,0,1.94,5.55,2.84,7.54,1.23,38.54,5.27,86.44,13.19,124.99,33.89,108.11,50.38,140.88,156.79,104.77,276.45-9.2,35.17-24.19,71.64-41.18,103.08-.21,10.98,8.72-11.65,9.91-12.37,69.13-135.7,77.13-315.61-87.62-375.85C898.8-7.18,407.34,13.69,333.17,13.09m29.64,56.99c-.66,12-5.99,38.81.72,16.74,4.49-6.68,2.53-53.71-.72-16.74m1829.61,18.58c-3.37-.13-10.96,1.37-12.25,2.37.96-1.63-11.51-.81-12.73.84-5,1.51-37.58,9.32-8.15,4.75,26.18-7.33,54.34-7.21,82.24-7.16-.51-1.52-45.23-2.24-49.11-.8m50.51,1.17c26.79,4.76,53.5,12.01,77.4,18.43-10.61-7.74-28.49-11.04-45.11-14.02-8.44-2.38-23.7-7.38-32.3-4.41m-1612.65,6.05c-47.63,159.51-101.46,323.42-151.2,484.41-1.12,8.88-4.65,7.78,12.87,9.75,6.82,1.33,9.02,3.71,12.12,1.35,23.14,3.31,49,.42,70.52-4.33-5.96-3.64-34.44,4.05-44.89,3.45-9.35,2.46-41.81-3.54-48.41-4.69,45.29-155.7,96.25-307.91,145.46-466.7,2.36-14.2,4.47-13.24,7.58-24.09,22.68.37,95.16,1.05,98.32,5.8,93.24,22.56,85.25,133.26,65.13,214.1,18.86-49.4,26.28-132.91-5.88-178.48-36.06-47.92-101.95-47.48-161.6-40.57Zm1511.06,2.06c-87.63,28.85-156.23,93.01-213.19,174.37-3.84,7.76-12.94,16.44-14.15,23.06,2.18,5.68,8.46-12.46,8.91-12.19,10.12-12.81,27.6-32.85,33.92-47.79-.82-3.1,1.83,3.82,4.28-1.65,2.75-2.82,12.32-15.64,13.45-17.86,26.98-29.42,64.26-59.89,93.91-82.3,7.27-1.86,26.92-12.78,32.98-17.96,3.94-.39,61.24-21.19,39.88-17.68m-1783.74,1.41c-64.79,206.13-127.09,407.02-191.01,609.86-.97,1.75-5.52,16.84-5.52,18.32,5.97-.7,8.37-22.36,12.01-30.67,40.02-129.3,84.03-261.81,121.15-390.33,14.76-32.2,26.1-88.93,38.95-118.49,2.65-15.45,9.25-26.29,10.9-39.39,1.57-2.27,3.25-9.86,5.29-12.65,1.79-4.65-2.94-.87-.3-3.25,3.01-6.44,15.69-40.79,8.54-33.39m1963.74,8.86c13.87,10.31,39.74,16.65,55.32,28.47,12.38,4.02,27.81,22.47,39.37,21.59-11.39-5.71-7.28-7.66-19.85-12.39-2.14-2.29-12.94-10.88-16.78-8.99-.97-4.47-7.65-5.76-13.69-9.54-2.37-2.71-6.17-2.67-8.41-4.13.2-1.71-4.23,1.01-2.89-1.02.69-1.13-.44-1.56-3.3-1.23-1.14-.14-4.75-5.36-6.6-4.1-.56-1.18-9.1-3.58-13.65-5.68-3.45-.85-6.26-5.94-9.51-2.97m-574.44,56.63c-4.94,2.69-4.46,11.61.46,3.79,3.9-3.36,8.5-10.08-.46-3.79m-7.28,7.16c-181.42,155.71-277.55,458.82-196.12,695.54,2.8,12.61,5.92.63.98-3.85-7.96-20.23-11.77-36.37-16.44-58.77-33.49-163.62,9.91-339.71,85.37-475.3,19.69-33.24,41.85-67.58,68.4-95.12,11.56-14.81,25.34-28.18,43.35-45.56,10.2-11.05,11.56-8.83,16.8-18.23-.3-.89-1.14-.43-2.34,1.28m-437.12,79.52c-5.2-1.07-47.22,9.74-21.61,6.45,37.27-9.42,91.7-6.02,125.53,11.25,5.75,4.11,34.19,16.61,16.99,6.03-34.02-21.88-75.52-26.68-120.92-23.72m-40.99,8.29c-9.39.1-90.51,38.74-73.68,39.01,12.41-9.65,31.79-19.27,45.33-25.96,7.7-3.08,27.78-10.55,35.39-12.63,4.91-1.83,4.81-4.27-7.04-.43m168.78,20.9c106.07,85.92,41.11,198.11-54,258.7-21.21,14.92-43.1,25.47-66.02,38.37-16.93,11,27.71-10.49,29.11-13.01,49.09-25,102.81-68.1,127.57-111.9,35.11-51.25,22.32-142.64-36.67-172.16m481.3,15.49c-1.14.68,1.75,5.56-.61,4.02-.93-.57-1.2-.48-.75.26-2.05,5.26-4.39,4.18-8.23,12.5-3.27,8.58-16.47,23.29-15.19,28.3-1.6,3.95-9.03,12.01-9.67,17.38,1.54,3.8-2.28-.27-1.27,1.89,1.22,1.67-2.01.91-1.24,1.97.38.38-.08,1.45-1.01,2.39-2.33,2.08.05,5.25-2.47,7.16-3.86,3.08,2.08-2.41.06-2.46-1.17,0-5.44,9.84-4.94,11.38-1.27.78-1.86,3.27-3.13,4.16-1.77-.41.91,5.06-.83,4.01-3.32,1.69-4.27,11.77-7.89,14.8-3.92,11.69-13.84,27.87-15.99,41.8-6.35,8.2-11.35,25.46-13.98,35.98-1.47,5.89-8,15.34-7.43,23.02,18.82-43.53,35.5-96.79,60.11-140.71,9.2-17.85,14.4-27.85,24.69-44.81,2.42-7.81,16.88-19.83,9.76-23.05m-733.44,5.77c-84.57,71.23-103.9,182.06-100.17,288.14-49.36,23.06-115.29,38.36-164.49,72.16-97.95,53.17-155.86,171.45-119.49,280.27-.46,6.95,17.01,37.86,11.01,22.2-3.38-3.61-6.63-21.94-10.1-26.64-13.49-38.28-10.93-93.93,1.39-133.46,31.51-99.02,127.55-154.62,218.64-187.31,10.37-6.47,22.41-6.52,32.24-12.44,9.48-4.35,42.6-7.43,31.99-21.1,2.15-15.27.42-57.01,3.52-69.57,2.63-56.69,25.68-120.04,52.14-161.28,8.8-13.49,24.18-27.52,33.69-40.29,3.3-.46,10.95-8.57,14.08-10.9,4.59,1.48-.5-5.04-4.44.22m138.52,7.19c-49.11,11.57-81.51,72.67-93.2,121.51-2.21,9.3-8.28,34.31-6.03,41.93-2.97,3.27-2.51,5-.79,6.37-1.11,2.31-1.88.76-1.63,6.57-.53,6.7,2.6,4.08.89,6.72-1.7,2.09-2,10.72-1.3,37.23-1.81,16.13,6.9,19.56,4.63,11.67-10.7-55.13,8.42-131.45,31.06-173.19,18.81-29.48,66.2-77.56,105.42-48.81,3.29-9.03-34.8-12.9-39.05-9.98m-520.05,9.09c-5.86,19.67-12.2,37.17-16.3,55.41,2.13,2.27,5.2-11.99,5.89-14.86,4.01-5.61,2.73-10.35,6.01-17.94,2.12-8.08,4.16-11.14,5.37-17.9,1.58.4-.97-6.2.79-5.02,3.17.24-.74-3.8-1.75.31m560,.94c39.58,71.07-57.14,163.26-112.24,206.37-12.53,6.87-7.13,11.04-.28,3.92,4.11-4.67,11.12-6.29,14-12.2-.38-.68,2.81-3.29,1.77-1.29-.19,5.72,13.96-14.06,13.36-11.21-2.1,5.3,7.08-6.96,7.05-5.84,7.48-6.02,18.31-18.13,22.98-24.11,9.01-3.87,14.44-16.39,21.91-23.1,6.19-9.12,15.77-18.92,18.81-29.44,15.87-18.01,40.93-84.46,12.64-103.1m-577.87,57.24c-7.93,21.45-25.49,53.1-33.9,75.5,2.78,1.7,3.13-5.18,4.71-6.28,3.23-4.47,9.18-17.5,11.02-21.15,4.76-.36-1.14-6.75,1.49-6.04,1.3,0,2.2-1.15,2.64-3.35,2.14-3.29,20.43-45.76,14.03-38.69m252.9,59.05c-37.67,67.1-94.04,121.04-155.5,155.13-26.35,17.1,13.83-2.81,19.16-7.8,45.84-29.18,85.81-68.69,114.11-106.93,5.65-6.22,34.26-52.53,22.23-40.4m-291.98,22.07c-20.63,33.72-48.69,69.43-91.99,96.83-2.26,5.65-55.55,24.64-60.19,28.52,1.66,1.34-10.92-.22-10.92,3.14-.57,2.66,4.98-.98,7.01-.56,9.08-.84,8.27-2.38,10.34-4.5,8.23-.96,17.1-3.73,23.53-7.22-6.7-1.76,6.52-.53,6.04-3.3-.61-1.32,3.23.84,2.84-1.07,0-.78.29-1.13.64-.77,25.77-10.19,58.16-35.54,71.16-53.18,7.99.2,61.19-78.8,41.55-57.88m1075.81,50.52c-38.99,128.12-120.68,425.87,59.41,482.59,17.61,8.43,95.13,15.4,111.41-1.5,3.45-15.96,14.39-41.58,14.65-51.67,20.19-54.43,36.82-114.82,55.53-174.32,2.53-11.52,11.2-24.22,9.47-33.83-22.17,59.02-35.87,116.1-56.23,174.88-7.85,26.04-16.94,55.36-26.87,86.89-69.52,15-134.11,3.14-176.28-49.96-86.6-123.16-17.18-310.98,8.9-433.07m234.98,13.41c60.84,33.78,61.07,66.15,39.99,129.02,9.9-20.07,18.95-48.75,14.87-72.7-2.12-11.08-6.95-19.35-14.47-29.83,0-3.72-9.76-6.43-8.2-7.89,1.84-3.39-2.72,0-2.4-1.63-45.91-28.28-12.52-8.29,178.26-14.43,126.68-3.14,198.41,6.46,209.19-1.74.13-1.36-416.4-2.14-417.24-.79m340.73,1.05c-197.85.76-339.21.76-339.21,0,0-.46,93.06-.71,206.8-.56s173.32.4,132.41.55m62.07,4.17c-13.39,7.1-21.81,9.85-35.23,20.52-9.22,13.81,20.6-12.66,27.04-13.29,5.51-1.86,18.03-9.69,8.18-7.23m-1223.47,8.88c-6.96,4.26-8.32,5.38-8.32,6.88,2.85,4,25.41-16.2,8.32-6.88m1179.96,18.27c-2.92,5.24-8.52,4.58-7.2,9.08,2.01,3.1,20.38-19.93,7.2-9.08m-9.25,9.55c.81,2.72-10.14,7.93-8.28,11.48-3.42,4.69-8.46,10.34-9.57,17.31-9.35,11.74-10.31,30.18-16.13,41.93-8.18,31.16-20.4,59.14-27.47,90.85-29.91,88.65-57.06,177.79-85.26,269.85-23.5,16.65-55.43,24.84-78.96,35.95-36.73,12.73-69.54,23.06-102.86,30.19-33.3,8.32-67.42,12.23-107.7,17.5,0,1.85,50.78-2.54,56.07-4.84,63.62-11.58,127.22-26.5,184.42-52.94-.35-.93.05-1.21,1.11-.8,2.21.85,5.7-.57,33.2-13.54,6.11-2.88,12.14-5.63,13.41-6.12,2.82.33,5.97-15.92,7.2-17.18,30.52-96.79,57.53-182.97,86.5-274.8,12.95-36.82,22.16-78.66,37.68-114.36,2.15-5.61,5.71-8.86,5.11-11.94.93.84,6.11-5.89,6.11-7.95,2.02-2.16,11.31-10.55,5.42-10.59m-1099.1,18.1c-15.94,9.15-38.29,17.42-52.69,25.77-6.99,4.8-25.17,3.84-18.31,21.58,6.83,35.22,15.76,67.83,30.07,99.37,3.63,3.49,4.17,15.86,9.63,19.97,6.33,13.86,3.03-2.71-.82-6.65-11.89-28.99-43.68-97.99-33.89-125.46,11.72-6.16,81.96-35.54,66.01-34.58m-439.68,16.77c-4.08,3.5,6.08,3.5,5.22.73-.55-1.68-3.18-2.05-5.22-.73m-9.84,5.52c-62.65,32.52-135.37,52.9-209.74,61.06-17.63,5.24,41.78-2.1,46.91-4.29,38.06-8.52,96.06-20.21,122.62-37.12,6.21,2.84,66.59-28.21,40.2-19.65m1237.41,48.74c-1.47,1.22-1.89,13.79.78,6,.44-2.16,3.27-9.46-.78-6m-5.07,13.34c-4.62,22.05-16.91,46.53-17.75,62.35,1.19,3.43,29.95-85.61,17.75-62.35m-1458.26.9c-9.95,2.31-40.19,2.74-65.15,6.34,11.41,2.69,106.65-6.2,65.15-6.34m-173.46,1.43c-25.17,72.45-44.8,139.75-66.81,211.19-8.55,23.06-15.9,50.27-23.66,74.23-9.47,26.65-22,62.67-2.9,89.17,4.09,4.39,3.49,7.97,10.88,11.3.4-.29,3.25,2.29,1.2,1.24-.76-.44-1.39-.33-1.39.26.05,2.19,5.9,2.74,5.47-.09-3.2-2.75-13.5-12.45-13.5-13.89-25.3-36.31,2.33-79.63,11.5-115.2,12.6-41.42,26.21-83.12,39.28-125.59,11.13-38,25.94-81.3,38.34-122.02,3.86-17.73,50.56-.7,65.01-5.09,29.75-1.7-17.66-2.54-24.52-2.67-33.54.01-23.11-5.41-38.91-2.85m74.99,4.58c-1.36,1.37,33.97,1.36,32.2-.07,1.8-1.46-33.56-1.29-32.2.07m560.99,2.93c-6.8,3.72-18.67,9.97-24.7,14.12-1.66,1.19-8.64,1.76-6.9,5.29,11.67-3.05,30.68-17.67,32.75-15.65,8.25-3.52,11.65,50.61,17.44,36.21-7.38-4.66-6.26-44.9-18.58-39.96m-36.19,20.83c-15.05,9-27.6,18.47-41.81,29.73-3.74,2.75,1.1-.03,1.11,1.84-3.71,2.54-12.06,6.5-13.18,10.9-6.48,3.18-16.53,14.92-19.29,21.69-.62.82-7.39,1.75-2.78,2.43-6.9,8.93-17.01,21.82-20.83,33.92-26.72,58.73-13.73,129.52,38.63,160.61,40.76,24.77,102.88,21.39,146.67,4.63-5.67-.54-31.51,5.43-33.24,7.65-104.95,23.58-188.34-51.02-156.97-154.56,12.07-38.28,41.36-69.9,71.54-94.75,1.14-2.73,46.15-30.21,30.15-24.09m281.3-.03c1.3,2.37,15.13,11.77,15.54,14.64,2.33,2.26,7.59,19.62,11.1,16.55,0-1.15-3.78-10.05-4.49-10.57-2.05-4.81-12-15.71-15.5-19.4,5.39-.69,105.26-.63,128.25-.59-4.46,63.18-30.34,129.27-70.73,175.57-9.91,12.28-15.73,19.69-27.08,30.28-1.82,3.34,12.22,13.23,8.07,6.7-4.18-6.17-5.52-4.53,5.18-16.47,48.12-51.34,80.37-115.66,86.83-193.02-2.72-13.47-148.55-2.21-137.17-3.68m-227.2,23.35c19.8,68.79,53.62,130.69,93.59,191.02,13.95,20.97,16.39,13.36.96,25.4-4.55,2.58-75.3,27.5-55.14,25.38,12.94-5.63,32.64-12.09,43.44-17.95,4.68-4.35,26.93-9.81,25.54-15.96-3.45-6.87-14.04-19.7-17.64-25.19-6.84-10.15-13.59-25-21.95-33.95-4.32-6.55-8.72-20.69-14.62-24.91-3.95.29,2.86-2.13.02-2.19-.8-.01-1.17-.48-.82-1.05-6.63-15.82-17.94-34.38-25.49-52.83-4.44-8.92-10.79-28.08-16.72-38.19.72-5.61-5.84-15.94-7.65-21.83-2.33-2.96-1.1-12.59-3.52-7.74m-947.07,13.57c-14.87,47.45-25.12,79.3-40.46,128.59-1.57,7.99-26.29,78.02-15.68,59,.97-8.46,7.08-14.27,6.2-23.04-.56-.89-.35-1.03.64-.43,2.38,1.79-.39-4.03,1.21-3.89,3.83-11.67,9.22-23.95,10.48-36.58,1.05-.54,5.11-3.94,3.22-7.94,1.76-2.15,3.13-8.49,4.09-12.1,3.48-9.23,7.15-19.81,8.67-28.27,3.57-8.42,32.33-95.49,21.63-75.34m1198.7-1.31c6.92,32.79-14.35,80.65-28.42,103.99-13.25-2.67-27.21-38.36-38.67-53.47-4.49-6.54-8.93-17.47-13.03-23.32-5.14,5.36,18.57,33.73,20.18,41.11,1.5,3.13,3.06.04,3.04,4.07-.95,3.59,9.14,10.75,7.1,10.93-1.54.79,5.96,9.45,7.79,9.85.43-2.01,2.36,9.92,4.27,9.11,2.09-.74,4.17,4.98,4.8,6.63,3.96,6.67,26.52-39.82,26.89-46.09,3.79-7.15,15.95-62.63,6.06-62.81m-84.39,24.96c.66,1.23,1.68,2.24,2.26,2.24,4.34-.15-4.92-7.81-2.26-2.24m272.87,117.26c15.04,45.98,60.82,113.74,97.69,129.6.13-3.34-9.31-4.91-9.69-6.39-3.43-6.44-11.82-10.61-16.65-16.32-.3-2.72-7.78-7.28-8.64-7.26.55-1.7-3.28-6.2-3.92-4.6-.39.97-.62.81-.68-.48.03-2.56-2.29-1.27-2.31-3.61-3.11-2.92-2.21-2.93-6.09-7.97-13.21-17.21-25.29-35.03-33.33-51.43-1.98-3.92-9.05-19.3-12.47-25.56-3.02-2.7.65-7.5-3.91-5.98m-166.48,38.79c-.64.64,6.02,8.29,7.23,8.29,3.42.44-6.17-11.74-7.23-8.29m8.67,8.92c11.39,13.24,35.69,33.37,49.33,40.85-1.62-7.52-28.25-22.31-35.33-31-6.27-1.91-8.73-12.28-14-9.86m-1289.9,6.85c-6.32,20.34-23.28,59.87-24.23,77.42,4.68-12.1,16.75-39.34,19.23-58.45.83-2.82,10.54-19.17,5-18.97m1339.93,34.34c1.17,4.42,54.06,41.02,51.93,33.6-8.76-5.12-30.55-22.43-40.51-25.98-1.25-1.54-8.03-9.88-11.43-7.62m-633.07,8.17c.5,1.62,3.45-.97,2.26,1.02-1.15,5.76,5.16,10.02,6.89,13.09,4.56.58-7.83-18.98-9.15-14.11m462.99,14.4c.57,1.8-3.98-1.56-2.45,1.47.39,1.01.35,1.77-.08,1.66-1.71-.39-6.79,2.82-6.14,3.87-.04,1.08-2.53-.84-4.12,1.66-10.69,8.75-18.51,11.26-30.19,19.37-4.53,1.85-59.96,32.24-34.2,20.25,126.62-65.2,43.56-52.69,166.52,27.79,5.04,11.64,264.61,2.77,269.87,3.5-7.27-5.04-40.37-15.33-44.43-18.65-18.75-8.8-41.17-19.39-58.6-30.04-10.05-4.33-12.1-9.18-22.32-11.13.21-.25-7.13-8.35-10.85-7.07-2.63,3.32,16.48,10.54,19.6,13.99,20.77,12.85,42.94,22.35,64.4,34.69-.16,1.46,5.63-.34,5.55.94,1.24,3.45,7.94,3.34,10.38,4.91,5.84,1.85,10.45,6.03,15.91,5.74,17.12,8.24,2.19,2.83-116.42,4.69-69.42.02-126.38-.32-126.57-.77-20.51-11.17-44.38-34.02-64.21-49.55-5.07-8.52-9.5-5.93-15.35-14.9-5.62-3.26-15.65-16.48-16.3-12.43m-453.01,1.13c-8.78,2.88,72.57,75.61,50.94,51.1,2.12-2.37-6.29-3.1-7.1-6.18-2.18-3.31-6.02-3.04-7.5-5.16.58-.52-15.03-17.34-18.11-17.82-1.63-2.04-15.91-25.96-18.23-21.94m828.29,18.9c63.25,47.43,167.77,74.4,243.73,73.55-58.14-2.73-134.03-20.42-180.49-40.6-.46-2.25-3.49-.11-3.82-1.66.18-2.62-9.08-2.64-8.45-3.36-4.25-4.15-16.71-9.84-23.75-11.2-1.28-.11-1.34-.35-.25-1.04,2.02-1.6-12.13-7.17-12.15-8.23-4.38-3.15-13.36-9.35-14.82-7.46m-1575.08,2.91c-1.33,7.02-17.56,20.05-22.3,29.72.03-.29-9.35,5.19-8.95,7.61-.66,0-7.68,3.49-6.57,5.91-166.86,33.6,395.88,6.94,362.13,13.74-37.95-12.7,22.55,3-194.95-2.23,5.15-2.52-207.49,5.08-177.02-3.21,7.88-4.69,9.24-8.11,16.75-11.23,3.03-1.93.44-3.63,3.24-4.15,6.7-1.89,42.44-46.39,27.67-36.16m1111.34,28.46c-79.57,38.8-160.27,56.74-260.14,28.29-3.34-4.46-14.85-5.02-19.6-8.26-10.23-7.31-15.37-2.55,2.03,3.61,83.18,37.45,217.62,20.43,277.72-23.64m-305.61,7.3c-3.99.14,15.65,12.46,14.65,8.27-.27-2.57-2.87-.84-3.1-2.84-.01-.92-.38-.84-1.1.28-.35,2.66-7.68-10.02-10.45-5.7m747.16,20.13c-1.16,1.59-80.94.57-97.71.59,17.31.59,96.45-2.67,97.71-.59m-1289.37.83c-29.46.17-77.68.17-107.15,0-73.65-.39,180.8-.39,107.15,0m1611.63,13.15c4.22,1.19-69.64-.69-53.47,3.11,12.66,3.54,107.82-4.24,53.47-3.11"/>
      <g>
        <path class="uuid-0f8f231e-5695-44a9-9147-542bbc7e193f" d="m2173.72,1.72c-149.57,8.92-259.14,45.42-374.19,125.06.46,2.92-11.59,6.68-13.48,8.52-1.07,1.63,3.89-1.12,2.32.93-9.67,5.06-12.62,8.43-23.52,17.14-17.1,17.08-6.39,3.11-16.03,12.75-1.31,7.41-6.85,3.1-6.62,4.8.56,5.04-7.24,5.04-6.51,6.78-48.21,47.95-89.78,93.05-122.29,151.91-103.19,185.5-150.16,463.67-10.02,637.33,1.62-.85.82,4.81,1.88,2.42.64-1.6,4.47,2.9,3.92,4.6,1.29-.33,8.05,4.78,8.64,7.26,5.79,5.5,13.7,11.46,17.68,17.42,2.98-1.26,9.49,5.11,8.7,6.79,1.57-.92,5.98,1.43,5.16,2.75-.37.02,11.6,4.18,10.04,6.74,2.02.56,13.05,4.95,11.45,6.61-2.65,2.52,4.74.64,5.6,1.87,2.1-.34-.37,2.52.96,2.18,4.26-2.19,8.54,5.19,10.91,3.93,2.33-.33,1.41,1.74,4.48,2.29,3.7-.37.81,3.42,2.43,2.49,4.91-1.4,8.71,3.52,11.89,4.48,14.55,6.59,48.28,16.79,70.55,23.97,136.79,34.55,281.37,10.63,397.31-32.12,23.79-10.95,54.7-18.96,78.77-35.82,11.67-39.68,24.93-84.48,37.54-117.69,17.94-66.51,40.21-128.65,60.47-194.97,3.87-15.35,13.82-42.45,18.62-60.45,6.6-9.44,3.02-20.06,12.22-29.53,1.23-5.9,4.71-11.92,8.46-15.65,1.3-3.85,6.5-10.52,10.43-12.89,1.34-.05.59-5.81,3.57-4.72,2.06-.78,4.8-7.49,7.85-6.81,4.22-2.25,17.64-17.39,19.2-13.59-.86,1.96,2.04-.49,1.23-1.24-.75-1.22,2.63-2.47,4.14-1.54.65-1.5,11.34-7.19,15.74-9.07,57.34-2.81-472.3-7.74-386.19,2.23,3.23,1.72,11.28,5.69,13.16,9.53-.16,1.67,4.11-1.81,2.4,1.63-.44,1.16-.47,1.77-.05,1.35,5.14-.07,8.12,7.47,11.67,11.47,21.09,26.75,10.54,69.05-3.98,97.87-1.22.96,4.18,2.32.38,2.41-.75-.47-.98-.31-.56.37.11,9.43-2.69,9.7-5.3,20.29-4.3,14.06-10.53,36.83-14.39,44.79-21.87,73.62-47.22,148.95-68.73,221.3-4.53,6.47-7.6,33.6-14.38,39.64-1.07-.65-1.1-.47-.14.76,2.02,2.03-1.31,6.59-.87,8.82,2.13,4.94-11.12,4.78-13.15,6.65-72.62,13.39-156.79-10.29-184.69-79.5-42.89-84.45-23.09-202.99-3.26-298.96,14.64-57.89,29.29-110.35,50.18-169.19,4.15-.56,5.66-8.22,2.88-3.21-1.25-2.19,4.82-11.18,4.53-10.67,1.28-10.95,8.92-20.69,11.63-30.31,7.27-11.56,9.59-22.97,16.8-34.36,1.93-.06-3.85,5.62-.06,2.46,7.01-17.61,12.91-26.84,21.91-43.82,50.1-86.32,118.14-170.98,206.1-212.91,44.82-22.8,114.6-37.47,176.08-21.1,15.29,2.2,33.69,6.92,41.22,12.45,1.5-2.44,4.41,1.94,5.33,1.06,2.75-2.07,6.01,2.69,9.08,3.42,10.1,3.66,17.67,6.85,23.56,11.02-1.25,1.93,3.03-.62,2.89,1.02.62,1.31,2.26-.36,3.66,1.5,3.85.24,4.86,4.45,8.65,5.05,6.54,2.48,18.69,9.55,24.59,14.43,2.9,1.33,11.75,6.01,13.05,8.54-.15.85,2.69,3.85,1.73,1.54-.13-2.09,7.52,4.56,6.33,4.8,2.39.07,8.36,4.05,10.01,7.1,27.47,15.03,22.23,32.22,32.04-3.19,8.69-27.34,16.15-49.98,23.99-76.73,4.26-11.06,6.75-22.21,10.27-33.1,8.22-8.44-10.87-7.65-11.25-9.18-1.54.4-2.14.21-1.67-.55.79-2.08-4.74.64-5.64-.89-4.92-1.81-6.7-3.71-12.78-4.59-1.99-.22-3.78-.89-3.98-1.49-1.5-1.59-3.76.4-8.15-1.23-4.78-1.03-5.49-1.46-3.7-2.2-83.32-20.73-181.19-34.91-270.75-31.31M337.62,14.21c0,.57.87,1.33,1.94,1.7.11-1.63,18.89,15.78,13.43,15.49-2.1-1.35.61,2.44,1.36,1.17,1.94,2.47,8.37,7.06,9.23,20.87,8.34,18.03-3.03,40.49-7.08,58.57-10.99,30.65-18.21,61.61-29.88,93.27-26.01,87.55-54.74,175.01-82.25,264.26-39.41,125.77-79.07,252.89-118.43,378.62-4.23,14.73-10.08,29.62-13.93,44.68-.45,1.41-1.96.6-1.18,3.23.47,1.78.25,2.16-.83,1.49-1.56-1.32.58,9.64-2.35,7.09-.62-.97-.73-.21-.29,2.07.39,5.73-3.04,3.57-3.02,9.87.43,3.46-3.41,9.61-5.45,11.01,4.42,2.57-1.41,10.14-2.85,15.48-11.69,40.54-20.2,74.87-54.89,101.84-.21,1.56-2.36-1.08-1.57,1.28,1.49,1.14-3.55,4.47-3.98,3.56-4.48,2.76-8.38,6.97-14.43,10.54-31.7,8.98,183.35.27,177.01,3.23,181.28-1.79,190.5,4.01,176.93-5.33.17-.81-.17-1.19-.73-.83-1.64,1.35-7.12-2.56-3.18-2.03,1.89,1.42-9.09-6.31-9.16-7.6-14.85-21.89-17.06-46.58-6.64-74.12,23.69-72.81,43.69-138.77,64.93-206.53,12.33-36.01,17.71-60.59,31.18-96.94.47-3.55,8.32-3.7,10.64-1.89-.78,2.84,58.99,2.36,65.24,4.8,85.48-1.27,170.35-12.81,243.96-35.03,10.5-5.7,30.17-10.32,38.58-14.92,1.05.4,1.66.34,1.36-.14-1.2-2.45,15.63-3.81,14.86-6.32-1.07-2.9,6.12-.51,6.66-2.84,1.69-.89,6.91-3.21,8.62-2.78-2.4-3.28,19.99-10.24,19.6-10.87-1.92-3.87,6.9-1.54,5.74-2.79,3.92-5.4,15.99-10,21.77-12.79,2.22,1.07-1.37-2.15,1.39-1.79,2.85-.44,7.58-7,10.98-5.93,35.96-26.91,83.22-66.2,109.93-108.78,39.92-55.95,67.59-126.32,77.26-198.41,7.32-33.13.74-70.6-6.97-103.96-.18-3.12-2.68-.55-2.94-3.14,0-1.12.55-1.57,1.39-1.15-1.52-2.61-5.46-10.28-5.27-12.79-2.28-4.67-8.56-14.22-10.55-19.99-.47-2.15-7.47-7.18-6.05-10.45.52-1.85.41-1.98-.52-.65-1.84,1.24-7.85-9.37-9.6-11.53-2.06-2.72-7.61-6.03-9.37-11.3-4.77-4.03-24.87-20.96-33.24-27.14-3.14,0-1.58-2.01-4.53-2.78-3.26.27-.02-3.59-1.99-2.34-4.28.19-5.79-3.73-10.04-4.71-3.15-1.89-8.01-5.18-10.44-6.54-1.28-.38-1.46-4.36-3.26-1.32-12.82-5.53-24.65-11.44-37.55-15.47C906.02,2.32,405.46,14.64,337.62,14.21m373.07,80.39c173.14,17.82,86.22,259.76,40.94,347.31-12.23,22.25-26.16,45.71-47.36,68.3-2.84,1.16-1.88,5.79-6.16,5.21.23-.33-2.9,6.46-5.33,5.63-1.4-.7,1.16,3.73-.66,2.5-1.61-1.09-2.08,3.06-3.66,2.02-1.11.49-2.28,4.81-6.21,7.29-14.99,12.57-41.55,30.76-52.02,34.44.58.93-.94,1.5-3.1,1.16-1.29.19-.39,2.57-2.56,1.67-1.3.72-3.61,3-7.14,2.1-.78-1.18-3.28,2.38-1.31,1.2,4.14-.57-2.8,3.91-3.93,2.27-5.08,1.93-11.93,5.34-18.31,5.27.31,2.1-13.78,7.1-17.56,5.03-.98.39-21.03,5.95-24.3,4.05-1.65-.08-8.05,4.91-7.34,1.59-11.85,1.18-57.51,2.64-66.68-5.35,4.41-19.43,11.06-38.81,17.74-57.38,2.68-10.62,2.23-9.02,4.56-14.94-1.57-4.48,2.46-5.93,3.57-8.65,1.35-5.25,1.98-15.84,4.73-18.04,30.65-102.66,64.15-199.77,93.27-300.32,11.35-27.56,18-60.57,27.7-84.45,1.8-.7-.42-6.57,1.47-9.64,17.18.43,71.52.83,79.64,1.72m623.57,157.11c-190.03,6.28-257.38,158.63-255.02,330.56,10.21,16.56-23.57,17.8-36.28,24.32-8.43,5-18.86,4.69-28.03,10.69-1.75,2.05-10.53,3.89-9.34,1.96.5-.8.31-.98-.5-.48-.99,4.35-2.1,1.14-5.52,3.55-56.36,23.17-108.22,51.47-152.4,95.3-102.73,114.16-73.54,286.85,60.33,343.07,109.22,42.69,229.41,5.96,318.15-46.83,5.75-6.1,12.18-5.69,15.79-9.16,7.87-5.69,16.3-12.55,24.66-15.75.43.1.47-.65.08-1.66-1.69-3.29,3.2.54,2.45-1.47-2.36-6.22,8.93,7.6,9.63,7.11,23.22,20.85,52.71,46.52,78.65,66.2,12.98,7.31,53.41,3.05,134.16,4.34,116.54-.04,125.81-.18,120.97-1.8-5.11-3.88-10.69-2.07-13.58-5.98-3.98-3.07-13.66-2.68-17.26-7.56.06-1.28-5.68.52-5.55-.94-61.33-31.58-121.17-66.12-172.65-111.06-2.25-2.75-1.44-3.29-4.07-4.42-3.38.71-9.29-8.36-10.18-9.85.52-1.35.33-1.66-.66-1.05-3.49,1.16-8.05-8.62-8.9-8.87-10.61-4.35-9.65-8.97-1.22-16.12,5.52-3.65,4.78-9.12,10.2-10.69.69.27,3.04-1.37.83-1.49,38.91-44.28,71.92-104.9,76.59-168.64,1.97-5.67,3.29-10.74,2.89-17.86-23,.05-122.88-.22-128.24.59,37.06,32.63,17.94,88.17.2,124.32-1.99,4.41-16.76,26.39-15.38,18.97-.66-2.59-2.07-3.48-3.15-6.21-2.51-1.45-1.49.96-3.9-3.67-2.67-6.78-.47-3.8-4.59-7.91-6.64-6.71-2.96-7.07-10.75-14.53-2.33-1.09-.02-7.96-2.34-6.67-2.91-1.91-11.84-16.37-11.39-19.99-4.78-.9-7.97-14.66-12.34-19.39.21-2.45-5.22-7.69-3.09-7.29,1.98,1.22,1.4-.31-1.04-2.75-2.69-1.87-.44-3.87-2.39-4.41-17.27-29.97-27.37-67.67-36.4-102.14-11.69-39.56,1.77-30.59,28.85-45.51,10.38-5.02,25.05-13.56,35.13-15.31,10.88-8.14,33.18-19.08,45.52-24.42,14.43-9.97,32.5-21.4,47.77-30.87,2.31.07.06-1.95,3.69-3.8,4.14-3.17,2.45.19,5.68-3.45,4.72-2.84,3.12-5.96,9.07-5.79,2.36-5.07,10.93-12.8,15.96-14.94-1.97.74,7.37-10.17,6.45-8.17-.55,1.03-.31,1.36.72,1.02,2.58-2.65,5.86-9.61,8.57-9.13-.76-.82,7.3-12.36,10.23-11.95.53-1.25,2.67-8.62,4.88-6.71,1.04-.36-1.71-3.74,1.58-3.82,3.32-2.9,7.19-14.92,11.84-19.8,3.93-11.69,11.06-26.87,12.58-36.74,1.99.68-.84-3.3,1.39-3.88,2.86-1.71-4.31-1.92-.03-4.57,5.85-29-5.08-62.04-21.41-85.52-3.52-5.03-2.11-3.54-6.24-6.52-1.22-1.95-1.22-2.23,0-1.6,1.63.29-3.87-3.23-2.66-4.02-3.18-.43-9.63-7.61-10.27-10.22-1.06-.41-1.53-.24-1.14.4,1.53,2.48-1.08.83-4.86-3.07-4.15-4.35-6.73-3.64-7.92-7.49-1.28.78-6.77-2.3-5.81-3.26.25-.65-9.84-2.35-9.73-4.05-23.43-14.27-54.59-17.85-79.27-21.19m11.89,58.97c41.94,17.78,17.71,88.56-1.87,110.08-.81,5.69-8.25,18.38-14,22.68.2,3.26-7.6,11.98-10.56,12.77-7.1,14.92-21.5,22.03-29.77,33.38-11.14,12.15-16.64,14.96-27.2,25.66-4.05,4.34-2.18.11-3.37.24-4.01,7.52-18.2,15.68-22.89,18.5-2.21,2.6-12.48,10.84-15.43,8.47-.25.23-3.89,5.54-5.55.04-1.09-5.56-1.9-52.63.24-62.53,1.6-35.52,16.02-93.46,42.47-126.41,18.54-26.37,46.93-53.06,87.94-42.89m-131.03,198.26c0,3.66.22,5.03.47,3.03.58-2.82-.38-12.62-.47-3.03m941.49,13.6c56.64.16,149.33.16,205.97,0,141.57-.37-347.55-.37-205.97,0m-1062.14,154.02c8.25,28.06,15,51.28,25.93,78.31,10.02,26.93,24.25,51.64,34.98,78.83,4.04.94,3.78,4.5,5.2,7.8,2.9.07-4.01,2.46-.02,2.18,4.82,4.73,10.54,14.56,13.13,23.35,8.04,8.26,15.51,22.7,22.21,33.45,3.89,7.16,14.78,18.93,18.87,27.25,3.89,3.6-11.72,7.75-12.92,8.99-4.95,3.32-16.28,9.81-21.17,9.88-23.19,13.51-47.64,17.82-69.65,24.58-71.74,16.22-157.92-9.08-167.19-92.52-4.17-42.77,2.67-75.51,25.27-105.3.04-3.56,6.48-8.12,7.22-10.24-4.51-.66,2.1-1.58,2.78-2.43,6.98-13.44,20.62-25.22,32.47-32.6-5.58-1.3,10.1-10.35,13.09-12.7,9.45-6.27,14.57-11.73,27.92-19.26,5-1.43,37.51-26.11,41.87-19.59m478.39,388.1l-48.85.59,48.51.26c67.34.4,61.69-2.66.34-.85m-1347.66.83c29.47.17,77.68.17,107.15,0,73.65-.39-180.8-.39-107.15,0"/>
        <path class="uuid-0f8f231e-5695-44a9-9147-542bbc7e193f" d="m2173.72,1.72c-462.53-7.41-837.47,567.01-570.34,965.25,6.61,7.03,23.3,20.9,32.13,31.68,2.98-1.26,9.48,5.11,8.7,6.8,1.57-.92,5.98,1.43,5.16,2.75-.37.02,11.6,4.18,10.04,6.74,2.02.56,13.05,4.95,11.45,6.61-2.65,2.52,4.74.64,5.6,1.87,2.1-.34-.37,2.52.96,2.18,4.26-2.19,8.54,5.19,10.91,3.93,175.16,85.84,403.13,51.57,565.44-34.7,44.37-138,79.55-268.16,128.85-402.64,8.01-21.65,30.9-45.47,49.53-53.66,156.11-25.39-501.92-25.68-351.92-.12,36.61,19.25,25.93,86.11,9.86,115.14-26.67,96.76-60.74,191.35-88.41,286.38-4.18,11.55-13.46,39.79-15.39,49.23-322.75,74.06-219.61-391.48-143.5-554.89,84.91-236.02,322.44-468.65,572.54-275.19,25.12,8.34,35.08,47.84,42.04,3.91,12.07-37.73,23.09-72.49,34.26-109.82,8.22-8.44-10.87-7.65-11.25-9.18-88.79-27.9-203.62-46.11-306.66-42.27M337.62,14.21c60.66,41.83,3.26,130-11,191.05-74.95,237.12-150.83,494.9-227.72,722.33-31.77,179.8-189.62,128.15,99.29,135.93,196.9-5.46,200.91,13.26,163.86-15.79-36.16-88.01,45.83-194.2,58.27-280.65,13.07-21.21,17.71-100.17,41.84-98.84,114.3,12.6,247.83-4.94,349.15-45.29,178.37-59.57,354.16-320.61,245.9-505.42C971.93-40.84,508.91,25.4,337.62,14.21m373.07,80.39c207.13,40.51,60.65,356.1-28.42,438.26-58.83,47.55-128.5,73.16-204.26,53.45,8.28-33.06,21.34-68.64,30.59-99.02,40.33-129.6,80.15-258.2,120.97-384.77-.74-21.52,74.23-3.6,81.11-7.92m623.57,157.11c-190.03,6.28-257.38,158.63-255.02,330.56,7.27,23.38-48.56,22.1-64.31,35.02-444.46,147.26-166.02,645.24,210.73,396.55,15.47-9.75,33.45-20.48,42.97-28.03-2.36-6.22,8.93,7.6,9.63,7.11,23.22,20.85,52.71,46.52,78.65,66.2,12.98,7.31,53.41,3.05,134.16,4.34,124.34-3.29,141.36,6.93,107.4-7.77-74.69-31.1-152.01-77.18-209.72-133.84.52-1.36.33-1.66-.65-1.05-3.49,1.16-8.05-8.62-8.9-8.87-10.61-4.35-9.65-8.97-1.22-16.12,43-44.98,82.53-110.49,87.63-180.82,21.79-37.74-124.49-9.96-125.35-17.28,41.74,35.27,13.33,117.95-15.18,143.31-1.7-5.79-3.54-4.5-7.06-9.88-2.67-6.78-.47-3.8-4.59-7.91-16.66-22.83-32.82-52.67-43.34-75.02-17.27-29.97-27.37-67.67-36.4-102.14-11.69-39.56,1.77-30.59,28.85-45.51,58.56-26.8,115.79-57.36,162.83-98.57,105.64-101.04,65.32-237.95-91.1-250.27m11.89,58.97c80.75,61.02-71.36,207.26-125.09,231.79-27.37-54.61,18.72-252.8,125.09-231.79m-131.03,198.26c0,3.66.22,5.03.47,3.03.58-2.82-.38-12.62-.47-3.03m941.49,13.6c56.64.16,149.33.16,205.97,0,141.57-.37-347.55-.37-205.97,0m-1062.14,154.02c26.13,94.15,65,172.94,120.3,251.18-270.11,169.53-390.16-145.35-120.3-251.18m478.39,388.1l-48.85.59c36.09,1.5,165.35-1.91,48.85-.59m-1347.66.83c29.47.17,77.68.17,107.15,0,73.65-.39-180.8-.39-107.15,0"/>
      </g>
    </g>
  </g>
</svg>