<?xml version="1.0" encoding="UTF-8"?>
<svg id="uuid-1caa4904-70e4-4a6a-9d2f-5fe16e2b686a" data-name="Capa 2" xmlns="http://www.w3.org/2000/svg" viewBox="0 0 2559.32 663.4">
  <g id="uuid-6cd7447f-833d-4040-a0ac-5f6160c4d45a" data-name="Capa 1">
    <g>
      <path d="m1939,0c9.03,1.36,18.11,2.4,27.07,4.13,67.95,13.13,119.5,49.35,153.78,109.72.48.85.83,1.78,1.59,3.45-2.18.16-3.88.38-5.58.39-20.66.02-41.33-.11-61.99.11-4.97.05-8.3-1.59-11.58-5.31-24.06-27.29-53.05-46.68-89.46-52.75-48.56-8.1-92.14,3.83-129.27,36.15-40.44,35.2-59.27,80.72-56.21,133.81,3.56,61.87,33.14,108.93,87.37,139.76,21.9,12.45,45.76,18.49,70.84,18.28,35.26-.3,66.54-12.4,93.79-34.64,7.07-5.77,13.26-12.62,20.05-18.75,1.7-1.53,4.16-3.12,6.29-3.14,22.99-.23,45.99-.15,68.99-.14.97,0,1.95.23,3.96.48-2.26,3.84-4.09,7.28-6.22,10.53-37.15,56.8-89.24,90.88-156.4,100.37-65.38,9.24-123.57-8.43-173.52-51.55-41-35.39-66.71-80.22-74.69-133.76-11.87-79.71,11.38-148.03,71.82-202.24,36-32.29,78.87-49.64,127.04-53.91,1.46-.13,2.88-.65,4.32-.98,9.33,0,18.67,0,28,0Z"/>
      <path d="m828,0c3.76.63,7.5,1.32,11.27,1.89,32.76,4.98,60.03,19.39,79.52,46.8,11.86,16.68,18.01,35.55,20.13,55.8.36,3.48.53,6.97.82,10.46.25,2.99-1.11,4.2-4.09,4.19-18-.06-36-.11-54,.03-4.17.03-4.41-2.32-4.53-5.44-.46-11.56-3.5-22.41-10.07-32-9.65-14.08-23.6-21.24-40.12-23.68-34.82-5.14-58.66,17.56-65.78,45.13-5.65,21.85,3.22,44.24,22.14,56.62,14,9.17,29.88,13.86,45.34,19.5,21.14,7.71,42.42,14.99,61.9,26.55,33.25,19.74,52.11,48.78,56.47,87.14,2.93,25.85,1.51,51.28-8.8,75.6-16.16,38.15-44.78,61.99-84.7,71.81-37.68,9.27-73.99,4.86-107.54-15.16-36.38-21.71-55.18-54.85-59.87-96.47-.54-4.79-.62-9.63-.97-14.45-.21-2.88.82-4.28,3.94-4.26,18,.08,36,.11,54-.02,4.26-.03,4.35,2.74,4.57,5.6,1.03,13.46,4.39,26.26,10.7,38.23,13.29,25.2,35.93,34.89,62.09,33.74,21.14-.93,39.02-9.03,52.05-26.5,16.15-21.65,20.7-64.67-1.48-87.42-9.28-9.51-20.7-15.61-32.83-20.5-21.94-8.84-44.01-17.37-65.89-26.36-14.23-5.85-27.45-13.46-39.33-23.46-19.37-16.31-29.35-37.62-33.6-61.93-6.83-39.05,2.76-73.8,29.05-103.49,19.28-21.78,44.02-33.46,72.78-36.9,1.63-.19,3.21-.7,4.82-1.06,7.33,0,14.67,0,22,0Z"/>
      <path d="m0,548c30.92-9.53,61.83-19.07,93.48-28.83.21,2.79.47,4.54.47,6.3.03,30.78-.07,61.57.12,92.35.03,4.8-1.41,6.24-6.21,6.21-29.28-.17-58.57-.05-87.85-.03,0-25.33,0-50.67,0-76Z"/>
      <path d="m0,455c29.14,0,58.28,0,87.42,0,6.19,0,6.34.26,6.24,6.47-.11,6.65-.16,13.3-.06,19.95.04,2.87-.8,4.6-3.77,5.51-28.81,8.82-57.59,17.75-86.39,26.61-1.09.34-2.29.31-3.44.46,0-19.67,0-39.33,0-59Z"/>
      <path d="m2559.32,436.45c-2.8.17-4.44.34-6.07.35-18.33.02-36.66-.07-54.98.1-3.79.04-5.62-1.33-6.93-4.83-13.99-37.45-28.14-74.84-42.18-112.27-3.55-9.45-3.44-9.56-13.19-9.57-45.32-.03-90.64-.03-135.96,0-8.46,0-8.54.05-11.49,7.87-14.18,37.56-28.38,75.1-42.37,112.73-1.64,4.41-3.67,6.21-8.59,6.12-17.49-.32-34.99-.12-52.48-.12-1.94,0-3.89,0-6.83,0,2.76-7.61,5.1-14.3,7.61-20.92,22.05-58.09,44.13-116.16,66.21-174.24,24.62-64.77,49.25-129.54,73.88-194.31,4.32-11.36,8.77-22.68,12.89-34.12,1.33-3.7,3.26-5.17,7.29-5.11,15.16.21,30.32.17,45.48,0,3.7-.04,5.67,1.13,7.02,4.72,20.92,55.49,41.93,110.94,63,166.37,15.86,41.73,31.87,83.4,47.73,125.13,14.92,39.24,29.74,78.51,44.6,117.77,1.69,4.47,3.35,8.94,5.36,14.34Zm-135.2-183.59c-18.23-54.83-36.24-108.98-54.24-163.13-.56.03-1.13.07-1.69.1-18.16,54.1-36.32,108.2-54.72,163.02h110.66Z"/>
      <path d="m1029.74,436.44c.74-2.55,1.08-4.15,1.66-5.67,20.17-53.11,40.38-106.21,60.54-159.32,21.7-57.16,43.36-114.34,65.06-171.5,10.94-28.81,21.97-57.59,32.8-86.45,1.43-3.82,3.29-5.48,7.57-5.41,15.16.25,30.33.2,45.49.02,3.79-.05,5.65,1.38,6.97,4.84,35.63,94.11,71.32,188.19,107.03,282.27,16.85,44.39,33.76,88.76,50.63,133.15.88,2.31,1.61,4.68,2.66,7.76-2.2.26-3.9.64-5.61.64-18.33.04-36.66-.09-54.99.11-4.05.05-5.84-1.46-7.21-5.13-14.21-38.09-28.59-76.11-42.9-114.16-2.77-7.36-2.73-7.39-10.67-7.39-46.33,0-92.65.07-138.98-.1-5.26-.02-7.93,1.48-9.84,6.64-14.01,37.98-28.44,75.8-42.5,113.76-1.71,4.61-3.87,6.5-8.94,6.41-17.49-.3-34.99-.11-52.49-.14-1.78,0-3.56-.19-6.26-.35Zm245.43-183.66c-18.2-54.83-36.17-108.96-54.14-163.09-.56.02-1.12.05-1.68.07-18.15,54.11-36.3,108.21-54.68,163.02h110.51Z"/>
      <path d="m1519.16,221.99c0-68.83,0-137.65,0-206.48q0-7.3,7.47-7.31c16.33,0,32.66.09,48.99-.07,3.96-.04,5.96,1.1,5.81,5.28-.09,2.66.22,5.33.22,7.99.01,135.48.01,270.97,0,406.45,0,1.5-.07,3-.03,4.5.09,3.14-1.36,4.48-4.54,4.47-18-.06-36-.05-53.99-.01-2.7,0-4.04-1.04-3.92-3.84.08-1.83-.02-3.67-.02-5.5,0-68.49,0-136.98,0-205.48Z"/>
      <path d="m346.54,436.34c.12,2.42.28,4.21.28,5.99.01,57.95.01,115.9,0,173.86,0,7.5-.02,7.51-7.34,7.51-26.81,0-53.62-.09-80.43.09-4.49.03-6.05-1.18-6.04-5.87.15-49.29.12-98.58.02-147.88,0-3.72,1.03-5.6,4.81-6.76,28.19-8.58,56.31-17.41,84.46-26.13,1.08-.33,2.22-.44,4.23-.82Z"/>
      <path d="m599.27,321.37v183.34c-9.12-2.78-17.69-5.35-26.23-7.99-20.52-6.35-41.01-12.82-61.58-19.01-4.07-1.23-5.38-3.2-5.36-7.43.16-38.15.18-76.29,0-114.44-.02-4.69,1.48-6.63,5.96-7.98,27.27-8.2,54.44-16.74,81.64-25.14,1.68-.52,3.43-.84,5.58-1.35Z"/>
      <path d="m219.87,287.27v178.2c-1.69-.3-2.98-.4-4.19-.77-28.16-8.68-56.29-17.45-84.49-26-3.74-1.14-4.92-3.05-4.91-6.77.09-37.13.06-74.27.03-111.4,0-2.81.19-5.05,3.63-6.09,28.83-8.78,57.6-17.72,86.4-26.59.91-.28,1.9-.32,3.53-.57Z"/>
      <path d="m506.16,315.88c-.11-2.26-.27-4.06-.27-5.85-.01-44.14.06-88.28-.11-132.42-.02-4.56,1.18-6.71,5.76-8.09,27.74-8.34,55.38-17.02,83.07-25.56,1.38-.43,2.82-.66,4.85-1.12.2,2.03.49,3.6.49,5.18.02,44.8-.02,89.61.09,134.41,0,3.62-1.2,5.31-4.66,6.37-28.19,8.6-56.33,17.36-84.49,26.04-1.38.43-2.84.63-4.73,1.04Z"/>
      <path d="m127.1,471.03c2.33.54,3.79.78,5.19,1.21,27.52,8.49,55.02,17.08,82.58,25.43,4.1,1.24,5.36,3.23,5.34,7.41-.15,37.47-.19,74.94.03,112.4.03,5.19-1.65,6.42-6.57,6.38-26.64-.22-53.29-.1-79.93-.11-7.01,0-7.02-.02-7.02-6.78,0-46.29,0-92.59.02-138.88,0-2.12.21-4.23.37-7.06Z"/>
      <path d="m253.45,430.12c-.1-2.09-.25-3.89-.25-5.68-.01-35.8.09-71.59-.13-107.39-.03-4.97,1.77-7.04,6.27-8.4,27.56-8.36,55.06-16.89,82.55-25.47,3.62-1.13,4.84-.1,4.83,3.57-.05,37.13,0,74.26-.17,111.39,0,1.63-1.65,4.28-3.07,4.73-29.2,9.24-58.48,18.22-87.76,27.24-.44.14-.97.02-2.27.02Z"/>
      <path d="m506.31,509.73c2.3.57,4.06.91,5.76,1.43,27.82,8.61,55.62,17.28,83.46,25.8,3.2.98,4.54,2.43,4.52,5.93-.13,25.3-.13,50.6,0,75.9.02,3.88-1.18,5.22-5.15,5.2-27.96-.14-55.93-.11-83.89-.05-3.29,0-5.24-.49-5.23-4.56.13-35.29.08-70.58.1-105.87,0-.98.21-1.95.42-3.79Z"/>
      <path d="m506.36,11.29c1.81.4,3.25.61,4.64,1.04,28.14,8.7,56.25,17.48,84.43,26.06,3.53,1.07,4.66,2.78,4.63,6.35-.14,19.97-.09,39.95-.05,59.93,0,2.67-.23,4.72-3.42,5.7-29.28,8.96-58.52,18.06-87.77,27.1-.61.19-1.28.17-2.46.31V11.29Z"/>
      <path d="m379.79,287.59c14.09,4.34,27.29,8.38,40.47,12.46,16.06,4.96,32.09,10.03,48.2,14.84,3.59,1.07,5.09,2.67,5.05,6.58-.18,18.65-.1,37.3-.06,55.95,0,2.64-.18,4.75-3.39,5.73-29.29,8.96-58.53,18.06-87.8,27.1-.6.19-1.28.11-2.47.2v-122.85Z"/>
      <path d="m380.21,534.83c-.19-2.17-.45-3.76-.46-5.36-.02-26.63.06-53.27-.08-79.9-.02-4.01,1.32-5.94,5.18-7.11,27.55-8.37,55.03-16.94,82.55-25.42,1.54-.47,3.15-.71,5.37-1.2.16,2.48.39,4.4.39,6.32.02,26.13-.09,52.27.11,78.4.03,4.46-1.43,6.35-5.7,7.64-26.61,8.02-53.12,16.35-79.68,24.56-2.34.72-4.73,1.28-7.69,2.07Z"/>
      <path d="m472.73,540.92c.11,1.91.28,3.53.28,5.14.02,23.81-.1,47.61.1,71.41.04,4.55-1.2,5.88-5.87,5.85-27.8-.19-55.6-.06-83.4.09-2.84.01-3.9-.93-3.89-3.7.05-15.81-.08-31.63.17-47.44.02-1.54,1.93-3.96,3.44-4.44,28.4-8.99,56.88-17.75,85.35-26.52,1.05-.32,2.23-.24,3.81-.39Z"/>
      <path d="m1536.15,564.28c0-17.99.07-35.98-.06-53.96-.03-3.55.75-5.94,4.73-5.97,13.28-.1,26.73-1.52,39.81.07,26.89,3.27,43.06,20.43,45.91,47.42.95,9.03.97,18.42-.35,27.38-3.98,27.2-19.41,42.34-46.69,45.24-12.15,1.29-24.55.09-36.84.06-4.95,0-6.73-2.08-6.63-7.29.34-17.65.13-35.31.12-52.96Zm16.74.24c0,12.98.24,25.97-.12,38.94-.14,5.23,1.74,7.54,6.72,7.15,8.41-.66,16.95-.83,25.15-2.56,9.02-1.9,15.76-7.75,19.69-16.29,6.83-14.86,7.15-30.31,3.18-45.85-3.94-15.42-14.16-24.61-29.87-27.03-6.36-.98-12.92-.6-19.39-.97-4.16-.24-5.46,1.66-5.41,5.67.16,13.64.06,27.29.05,40.93Z"/>
      <path d="m2191.59,551.19c6.72-9.32,14.48-14.11,25.06-14.23,10.65-.13,18.08,4.55,22.83,14.47,1.88-2,3.11-3.29,4.33-4.6,9.61-10.39,23.49-12.98,36.01-6.57,5.14,2.63,8.75,6.91,10.13,12.44,1.4,5.61,2.58,11.43,2.7,17.18.36,16.16,0,32.33.22,48.49.06,4.42-1.48,6.18-5.76,5.72-.33-.04-.67.02-1,.03-9.86.23-9.54.24-9.47-9.4.1-15.32-.05-30.66-.52-45.97-.33-10.7-4.8-16.22-12.7-16.99-9.84-.96-17.47,4.36-19.76,14.41-1.02,4.5-1.31,9.24-1.37,13.88-.18,12.83-.19,25.66,0,38.49.06,4.12-1.45,5.9-5.51,5.56-.33-.03-.67.02-1,.02q-9.51.23-9.49-9.09c.01-14.33.05-28.66-.05-42.99-.02-3.15-.16-6.38-.88-9.42-2.85-11.99-14.9-15.6-24.23-7.39-5.18,4.56-7.84,10.6-8.14,17.2-.66,14.63-.57,29.3-.98,43.94-.07,2.44-.78,6.76-1.78,6.94-4.15.73-8.53.34-12.8,0-.53-.04-1.28-2.21-1.28-3.4-.07-25.66-.02-51.32-.1-76.98,0-3.34,1.73-4.61,4.58-4.51,3.55.12,8.11-1.78,9.62,3.56.71,2.51.78,5.19,1.34,9.21Z"/>
      <path d="m253.41,196.12c5.69,1.65,10.61,2.99,15.48,4.51,24.31,7.55,48.57,15.24,72.93,22.63,3.97,1.2,5.44,3.11,5.05,7.07-.25,2.47,0,4.99-.04,7.48-.24,11.66,1.88,9.49-9.64,13.1-25.71,8.07-51.48,15.96-77.23,23.93-6.48,2-6.85,1.75-6.85-4.9,0-22.63,0-45.26.02-67.89,0-1.63.15-3.26.29-5.93Z"/>
      <path d="m1121.39,549.66c2.95-2.74,5.04-5.1,7.52-6.92,15.3-11.21,39.13-6.17,47.16,11.05,8.12,17.44,8.32,35.87-1.38,52.85-9.16,16.05-25.04,19.91-42.26,18.78-10.44-.68-10.41-1.16-10.41,9.52,0,7.66-.13,15.32.06,22.97.1,3.92-1.51,5.18-5.3,5.29-10.79.31-10.77.43-10.77-10.21,0-35.95.01-71.91-.03-107.86,0-3.52-.19-6.66,4.78-6.9,6.97-.34,8.7.54,9.68,6.07.26,1.46.51,2.92.93,5.37Zm43.07,30.51c.17-.04.34-.08.51-.12-.96-5.37-1.49-10.86-2.98-16.08-1.72-6.06-5.62-10.41-12.09-12.12-14.39-3.81-26.89,5.32-27.72,21.06-.58,11.11-.26,22.29.03,33.42.04,1.58,1.95,4.17,3.39,4.49,18,3.95,34.11-.11,38.19-22.2.51-2.76.45-5.63.66-8.44Z"/>
      <path d="m2091.92,624.35c0,4.42,0,8.2,0,11.98,0,7.33-.13,14.67.02,22,.07,3.43-1.29,4.67-4.66,4.86-11.38.62-11.38.71-11.39-10.64,0-35.66-.03-71.32.08-106.98,0-2.24.77-6.09,1.94-6.4,3.2-.86,6.83-.42,10.23-.05.7.08,1.42,2.03,1.73,3.22.54,2.07.76,4.22,1.26,7.21,1.42-1.26,2.38-1.97,3.18-2.83,14.49-15.68,42.03-12.53,51.44,6.68,8.28,16.91,7.98,34.79-.28,51.67-7.22,14.75-24.93,22.5-42.96,20.49-3.26-.36-6.52-.72-10.61-1.18Zm.04-34.95h-.02c0,5.49-.16,10.98.1,16.46.07,1.57.91,3.83,2.11,4.51,11.99,6.75,31.64-.26,36.94-13.28,4.57-11.23,4.45-22.74.37-34.12-2.08-5.81-6.06-9.77-12.29-11.31-14.11-3.49-26.47,6.07-27.16,21.28-.25,5.48-.04,10.97-.04,16.46Z"/>
      <path d="m345.74,190.59c-2.05-.57-3.95-1.04-5.81-1.61-27.04-8.33-54.05-16.75-81.13-24.93-4.2-1.27-5.94-3.15-5.7-7.66.38-6.97.19-13.98.07-20.97-.06-3.22,1.24-4.42,4.44-4.42,28.3.07,56.6.05,84.9.03,2.51,0,4.22.62,4.21,3.57-.08,18.14-.12,36.28-.2,54.42,0,.29-.28.59-.77,1.57Z"/>
      <path d="m697.29,564.25c0-17.82.12-35.65-.08-53.47-.05-4.55,1.35-6,5.99-5.94,17.99.25,35.98.32,53.96-.02,5.89-.11,5.88,3.05,5.91,7.2.04,4.21-.08,7.35-5.92,7.17-12.31-.38-24.65.07-36.97-.19-4.89-.1-6.4,1.72-6.22,6.42.29,7.82.2,15.66.05,23.48-.07,3.68,1.44,5.05,5.03,5.01,9.66-.1,19.33.18,28.98-.1,5.14-.15,5.9,2.8,5.64,6.63-.25,3.63.46,7.9-5.72,7.68-9.48-.34-18.99.06-28.48-.15-4.13-.09-5.58,1.4-5.49,5.51.21,10.16.19,20.32.02,30.48-.06,3.89,1.37,5.27,5.26,5.22,12.49-.16,24.98-.05,37.48-.04,7.46,0,7.54.07,7.71,7.39.16,6.56-.44,7.21-6.84,7.21-17.82.01-35.65.01-53.47,0-6.79,0-6.82-.02-6.83-7.04-.02-17.49,0-34.98,0-52.47Z"/>
      <path d="m988.04,585.1c-7.83,0-15.65.11-23.47-.05-3.82-.08-5.34.98-4.87,5.19,1.43,12.87,9.34,21.24,22.54,21.61,7.71.22,15.5-1.22,23.18-2.37,2.66-.4,4.78-.89,5.22,2.35.47,3.45,4.12,8.47-1.05,10.06-17.68,5.44-35.73,7.05-51.83-4.16-14.5-10.1-16.51-25.87-15.19-42.06,1.02-12.47,4.91-24.05,15.82-31.52,13.19-9.03,27.48-9.83,41.69-2.81,12.64,6.25,21.12,27.09,17.05,40.6-.42,1.39-2.99,2.95-4.62,3.01-8.15.31-16.31.14-24.47.15Zm-7.42-12.02v.03c5.65,0,11.31.19,16.93-.14,1.36-.08,3.68-1.84,3.75-2.94.62-10.47-7.59-19.43-18.05-20.13-12.26-.81-21.66,7.1-23.1,19.28-.35,2.92.79,3.94,3.53,3.91,5.65-.05,11.29-.02,16.94-.02Z"/>
      <path d="m1439.51,585.1c-8.16,0-16.32.07-24.47-.03-3.4-.04-4.69,1.03-4.31,4.73,1.34,13.1,9.05,21.54,22.12,22.06,7.53.3,15.18-1.05,22.7-2.19,3.01-.46,5.23-1.64,6.41,2.53,1.84,6.51,1.57,9.65-2.73,10.3-9.3,1.42-18.74,2.78-28.11,2.64-13.17-.19-24.27-5.58-31.45-17.21-10.97-17.75-7.55-48.31,6.73-61.31,11.66-10.62,31.56-12.92,45.26-5.13,13.87,7.88,18.26,24.92,16.85,39.55-.31,3.25-2.09,4.11-5.02,4.08-7.99-.08-15.98-.03-23.97-.02Zm-8.27-11.99c5.82,0,11.65.19,17.44-.14,1.33-.08,3.7-2.04,3.64-3.01-.47-7.25-2.97-13.63-9.63-17.56-13.15-7.76-31.21,2.13-31.4,17.33-.01,1.11,2.22,3.14,3.51,3.23,5.46.36,10.96.15,16.44.15Z"/>
      <path d="m1893.17,608.67c.55,1.01,1.03,1.69,1.32,2.44,3.33,8.75,2.3,11.48-6.81,12.57-9.5,1.13-19.33,2-28.74.84-15.77-1.95-26.58-11.13-30.58-26.93-3.99-15.77-3.24-31.24,6.05-45.17,8.63-12.93,25.54-18.42,41.78-14.34,13.86,3.48,22.87,14.41,24.9,30.42.46,3.62.39,7.31.68,10.95.35,4.41-1.73,5.75-5.95,5.7-15.33-.17-30.66-.07-45.99-.06-6.49,0-6.83.42-5.8,6.9,1.85,11.63,9.24,19.12,21.04,19.8,7.05.4,14.21-.78,21.3-1.45,2.26-.21,4.47-1.08,6.81-1.67Zm-28.5-35.58v.03c5.48,0,10.97-.11,16.45.04,3.45.1,4.71-1.01,4.27-4.67-1.36-11.29-8.88-18.57-19.65-18.61-11.67-.04-20.35,7.81-21.58,19.31-.31,2.93.85,3.93,3.57,3.91,5.65-.05,11.3-.01,16.95-.01Z"/>
      <path d="m2360.73,585.11c-7.99,0-15.99.1-23.98-.05-3.81-.07-4.97,1.36-4.42,5.12,2.07,14.11,10.3,21.91,24.53,21.85,6.91-.03,13.86-1.26,20.71-2.46,2.99-.52,5.44-1.16,5.92,2.66.44,3.51,4.25,8.23-2.02,9.98-5.89,1.64-12.02,3.03-18.09,3.29-15.8.68-30.91-1.52-40.91-15.76-8.06-11.48-8.65-24.66-6.64-37.94,2.93-19.4,12.88-30.31,30.22-34.03,23.8-5.11,43.27,9.91,43.96,34.22.46,16.19.85,12.74-12.27,13.08-5.66.15-11.33.02-16.99.04Zm-7.68-11.99c5.31,0,10.62.05,15.93-.02,4.95-.07,5.76-1.14,4.84-6.05-2.11-11.29-9.81-17.61-20.89-17.16-10.69.44-18.82,8.32-20.11,19.22-.38,3.21.82,4.12,3.81,4.05,5.47-.13,10.95-.04,16.43-.04Z"/>
      <path d="m1693.83,585.09c-7.83,0-15.67.12-23.49-.05-4.08-.08-5.68,1.02-4.91,5.53,2.42,14.23,10.33,21.63,24.8,21.44,7.08-.09,14.17-1.46,21.17-2.74,2.94-.54,4.19-.05,5.1,2.79,2.59,8.15,1.79,9.77-6.68,11.63-10.86,2.38-21.8,2.96-32.69.3-14.39-3.51-23.85-12.38-27.33-26.84-3.41-14.15-2.89-28.17,4-41.36,7.55-14.45,25.25-21.88,42.48-18.08,15.12,3.33,25.45,15.77,26.63,32.23.24,3.32.04,6.66.22,9.99.2,3.84-1.4,5.33-5.3,5.22-7.99-.21-16-.06-23.99-.07Zm-27.94-12.39c1.7.16,3.15.41,4.6.42,10.47.03,20.93.04,31.4-.02,5.01-.03,5.78-1.05,4.91-5.98-2.06-11.66-10.46-18.1-22.36-17.15-10.89.87-18.56,9.98-18.55,22.72Z"/>
      <path d="m1972.54,581.32c.14-10.97,2.11-21.42,9-30.16,11.19-14.17,26.43-16.8,42.81-12.54,15.97,4.16,24.2,16.24,26.19,31.91,1.09,8.57.81,17.71-.95,26.16-3.93,18.91-18.71,29.4-38.72,29.04-18.69-.34-33.03-12.18-36.71-30.58-.91-4.54-1.1-9.22-1.63-13.84Zm63.23.21c-1.7-6.85-2.78-13.8-5.2-20.25-3.06-8.15-10.21-11.12-18.44-11.15-8.31-.04-15.02,3.31-18.4,11.3-5.66,13.39-5.48,26.98.11,40.29,3.33,7.92,10.12,11.21,18.49,11.17,8.38-.04,15.23-3.38,18.29-11.39,2.4-6.27,3.43-13.07,5.15-19.97Z"/>
      <path d="m802.74,551.51c1.92-2.08,3-3.21,4.05-4.38,10.43-11.63,30.17-13.73,41.78-4.39,6.32,5.08,8.9,12.25,9.09,19.85.48,19.14.27,38.3.38,57.45.01,2.72-1.25,3.72-3.9,4.01-11.3,1.25-12.07.65-12.08-10.33,0-12.99.02-25.98-.02-38.98,0-2.66-.01-5.36-.47-7.96-1.18-6.79-3.12-13.17-11.18-14.8-8.52-1.72-18.12,1.66-21.6,8.96-2.64,5.54-4.5,11.89-4.85,17.99-.72,12.78-.41,25.64-.13,38.46.11,4.92-1.36,6.82-6.45,6.81-10.07-.02-10.07.22-10.07-9.94,0-22.99.06-45.97-.06-68.96-.02-4.19.4-7.13,5.71-7.12,7.14.02,8.43.78,8.99,6.83.16,1.75.43,3.48.81,6.49Z"/>
      <path d="m2430.28,551.78c1.93-2.24,3.07-3.62,4.27-4.94,8.08-8.81,18.26-11.23,29.61-9.24,12.23,2.14,19.87,10.11,20.46,23.59.87,19.62.51,39.3.38,58.95,0,1.3-2.5,2.59-3.85,3.87-.09.09-.32.02-.49.04-11.36.93-11.49.8-11.48-10.4.01-12.99,0-25.99,0-38.98,0-1.67-.02-3.33-.11-5-.5-9.98-4.46-16.3-11.01-17.66-9.43-1.95-19.4,2.19-23.14,10.7-2.22,5.05-3.66,10.8-3.9,16.3-.57,12.97-.37,25.98-.13,38.97.08,4.49-1.28,6.19-5.89,6.21-10.13.03-10.13.23-10.14-9.93,0-22.99.06-45.98-.05-68.96-.02-4.21.54-7.1,5.77-7.1,6.47,0,7.74.69,8.48,6.21.28,2.06.67,4.11,1.2,7.38Z"/>
      <path d="m1349.49,536.54c5.5.92,11.89,1.95,18.26,3.06,5.22.91,4.33,4.37,3.34,7.99-.96,3.55-1.9,6.18-6.75,4.59-7.34-2.4-14.96-3.4-22.64-1.27-3.89,1.08-7.17,2.82-7.74,7.4-.59,4.7,1.28,8.37,5.42,10.31,5.11,2.39,10.47,4.28,15.79,6.18,14.65,5.25,20.65,13.06,19.59,25.72-1.02,12.16-10.62,21.68-24.36,24.17-10.36,1.88-20.54.83-30.71-1.53-3.67-.85-4.42-2.57-3.58-6.04,1.97-8.11,1.96-7.65,10.17-6.48,7.12,1.01,14.58,1.28,21.67.32,6.76-.92,10.31-5.73,10.54-10.99.25-5.6-2.61-9.42-9.32-12.1-5.72-2.29-11.6-4.19-17.24-6.67-10.91-4.8-15.55-12.09-14.45-22.02,1.23-11.11,7.85-18.46,19.1-20.86,3.89-.83,7.89-1.11,12.89-1.78Z"/>
      <path d="m1734.29,538.69c5.65,0,10.46-.41,15.11.23,1.59.22,3.46,2.86,4.11,4.77,6.57,19.39,12.92,38.86,19.34,58.3.55,1.67,1.19,3.31,2.21,6.12,1.09-2.26,1.74-3.32,2.13-4.47,6.49-19.42,13.16-38.78,19.27-58.32,1.64-5.26,4.19-7.53,9.49-7.07,2.92.25,5.86.37,9.65.6-1.19,3.39-2.02,6.02-3.02,8.59-9.22,23.74-18.54,47.45-27.65,71.23-1.45,3.79-3.46,5.48-7.64,5.52-10.01.08-10.12.3-13.73-8.9-9.29-23.72-18.47-47.48-27.67-71.23-.53-1.37-.85-2.82-1.61-5.36Z"/>
      <path d="m874.03,550.93c10.45-11.61,19.86-22.07,29.27-32.52.5.2,1,.39,1.5.59,0,4.57.31,9.17-.08,13.71-.45,5.22,1.73,6.81,6.62,6.41,3.8-.31,7.65-.04,11.48-.03,4.7.01,4.07,3.53,4.05,6.42-.02,2.92.45,6.36-4.24,6.29-4.33-.06-8.66.1-12.98-.02-3.24-.09-4.92.91-4.88,4.52.16,13.98-.11,27.97.26,41.95.3,11.46,4.8,15.04,16.36,13.47,3.84-.52,6.36-.63,6.79,4.3.6,6.9.59,7.78-5.07,8.25-5.59.46-11.38.74-16.86-.2-11.12-1.9-17.04-9.18-17.23-20.54-.24-14.65-.08-29.3-.11-43.95-.01-7.72-.02-7.68-7.6-7.81-1.86-.03-3.72-.42-7.29-.85Z"/>
      <path d="m2502.53,549.66c9.28-10.4,18.56-20.8,27.84-31.2.53.17,1.05.34,1.58.51,0,4.89.19,9.79-.06,14.67-.21,4.13,1.36,5.74,5.49,5.45,3.65-.26,7.36.23,10.99-.11,5.06-.48,5.85,2.26,5.76,6.35-.08,3.82-.22,7.04-5.54,6.55-3.97-.37-7.99.02-11.99-.08-3.03-.08-4.68.89-4.66,4.24.11,14.16-.2,28.34.23,42.49.35,11.25,5.28,14.99,16.74,13.07,4.27-.72,6.16.17,6.68,4.57.75,6.34.44,7.48-4.74,8.03-4.94.52-10.01.92-14.93.44-12.54-1.23-19.5-9.02-19.76-22.14-.29-14.66-.11-29.33-.15-43.99-.02-6.6-.05-6.58-6.69-6.69-1.92-.03-3.84-.24-5.76-.37-.34-.59-.67-1.18-1.01-1.76Z"/>
      <path d="m1941.76,553.89c0,14.81-.06,29.63.02,44.44.06,10.98,2.7,13.71,13.58,13.37,3.81-.12,4.19,2.13,4.28,4.6.1,2.84,2.16,6.94-2.63,7.82-14.07,2.58-31.28-.31-31.19-21.61.13-31.63.08-63.25-.03-94.88-.01-4.02,1.29-5.6,5.41-5.69,10.55-.25,10.54-.4,10.54,10,0,13.98,0,27.96,0,41.95h.02Z"/>
      <path d="m1222.59,550.44c5.27-6.44,11.37-11.57,20.01-11.84,2.59-.08,7.15.53,7.48,1.74.96,3.5.41,7.48-.01,11.22-.07.61-2.46,1.27-3.81,1.37-15.52,1.05-22.89,8.29-23.46,24-.5,13.64-.61,27.3-.49,40.95.04,4.88-1.74,6.34-6.39,6.31-9.72-.05-9.72.14-9.72-9.32,0-23.31.05-46.63-.07-69.94-.02-4.04.47-6.71,5.47-6.74,7.21-.06,8.56.57,9.23,5.99.24,1.93.39,3.87.58,5.8.4.15.8.31,1.2.46Z"/>
      <path d="m1058.97,550.99c1.35-1.86,2.51-3.91,4.1-5.54,5.22-5.35,11.82-7.18,19.1-6.98,4.94.14,4.9,3.74,4.58,7.14-.31,3.2.72,7.36-4.91,7.42-16.87.16-23.04,10.25-23.66,25.47-.54,13.13-.29,26.3-.07,39.45.07,4.45-1.25,6.19-5.88,6.24-10.21.1-10.22.31-10.22-9.84,0-23.14.03-46.29-.04-69.43-.01-3.66.16-6.52,5.01-6.72,7.07-.29,8.52.36,9.43,5.67.33,1.95.57,3.93.84,5.89l1.71,1.23Z"/>
      <path d="m1291.09,581.69c0,11.98-.17,23.97.09,35.94.1,4.62-1.21,6.55-6.1,6.57-9.82.03-9.82.26-9.82-9.7,0-18.8-.11-37.61.08-56.41.05-4.55-1.02-7.03-6.06-6.39-5.39.68-5.21-3.03-5.3-6.72-.11-3.93.79-6.32,5.52-6.02,5.47.34,10.99.26,16.47.02,3.99-.18,5.21,1.47,5.17,5.27-.14,12.48-.05,24.96-.05,37.44h.02Z"/>
      <path d="m1280.78,502.97c8.93-.01,8.97.03,9,8.16.03,8.96-.54,9.56-9.04,9.6-8.92.04-9.61-.66-9.6-9.58.02-7.93.29-8.16,9.64-8.17Z"/>
    </g>
  </g>
</svg>