<?xml version="1.0" encoding="UTF-8"?>
<svg id="uuid-a0509eb8-9cc1-4de8-99b6-2829293a1678" data-name="Capa 2" xmlns="http://www.w3.org/2000/svg" viewBox="0 0 2309.05 580.62">
  <g id="uuid-a4c39bcc-7800-41c6-8992-34147fd31497" data-name="Capa 1">
    <g>
      <path d="m1824.87,222.41c3.41-4.35,5.44-6.88,7.4-9.45,25.78-33.69,59.77-51.06,102.29-51.68,16.08-.23,31.99,1,47.6,4.93,32.45,8.17,57.42,25.9,71.92,56.83.7,1.49,1.62,2.89,2.49,4.3.16.26.52.38,1.72,1.21,1.66-2.09,3.53-4.16,5.09-6.45,8.87-13.05,19.55-24.4,31.64-34.53,20.53-17.18,44.37-25.24,70.84-26.17,17.04-.6,33.96.25,50.7,3.94,40.48,8.93,67.7,32.6,81.08,72.04,7.8,22.99,11.04,46.78,11.16,70.83.4,83.33.21,166.65.18,249.98,0,12.13-.66,12.74-12.65,14.55-28.55,4.32-57.13,4.05-85.69.23-14.04-1.88-14.19-2.13-14.19-16.15-.04-66.99.08-133.99-.11-200.98-.04-13.64-.37-27.37-2.03-40.88-1.29-10.47-4.13-20.91-7.58-30.92-4.93-14.28-16.1-22.06-30.78-23.55-9.52-.97-19.4-.9-28.86.48-20.14,2.95-34.79,14.21-44.13,32.37-7.79,15.13-11.29,31.33-11.72,48.17-.42,16.66-.28,33.33-.29,49.99-.03,54.66,0,109.33-.03,163.99-.01,15.39-.12,15.58-14.99,17.59-27.23,3.68-54.5,3.65-81.75.15-15.79-2.03-15.82-2.17-15.83-17.75-.03-33,0-66-.01-98.99,0-37.66.31-75.33-.19-112.99-.18-13.6-1.94-27.23-3.73-40.74-.82-6.19-3.12-12.26-5.34-18.16-5.62-14.91-16.93-22.93-32.49-24.33-8.57-.77-17.37-.67-25.91.34-20.77,2.44-35.73,13.64-45.19,32.23-8.02,15.75-11.26,32.72-12.09,50.17-.51,10.65-.38,21.33-.39,31.99-.03,58-.01,115.99-.02,173.99,0,3.33.04,6.67-.04,10-.26,11-.96,11.96-11.57,13.48-29.88,4.29-59.78,4.38-89.66,0-10.37-1.52-11.11-2.4-11.35-12.58-.13-5.66-.05-11.33-.05-17,0-118.32,0-236.65,0-354.97,0-18.49.14-18.33,18.58-20.6,20.67-2.54,41.18-1.87,61.79.78,9.35,1.2,14.45,5.54,16.13,14.65,1.87,10.16,4.03,20.26,6.07,30.38.45,2.23.96,4.46,1.99,9.25Z"/>
      <path d="m560.64,405.43c-37.99,0-75.97-.04-113.96.02-15.6.02-16.84,1.73-13.78,16.88,5.47,27.12,20.53,46.45,45.98,57.68,16.72,7.38,34.24,10.83,52.38,11.53,35.67,1.38,70.4-4.06,104.4-14.68,13.3-4.16,13.74-3.93,19.34,8.87,8.49,19.4,13.44,39.72,15.3,60.8.83,9.41.03,10.9-8.84,14.02-23.35,8.21-47.4,13.54-71.95,16.52-37.54,4.54-75.08,5.24-112.55-.89-16.5-2.7-32.48-7.24-47.94-13.7-47.33-19.77-79.91-53.67-95.92-102.38-19.34-58.87-19.21-118.12,1.5-176.62,26.02-73.49,89.85-119.61,167.83-121.72,16.89-.46,34.23-.23,50.72,2.99,64.62,12.66,107.98,50.74,129.43,113.1,8.98,26.1,12.14,53.21,11.26,80.75-.38,11.97-1.07,23.96-2.27,35.88-.97,9.64-2.23,10.38-11.98,10.84-3.33.16-6.66.1-9.99.1-36.32,0-72.64,0-108.96.01Zm-52.67-78.1c22.29,0,44.58.09,66.87-.04,10.88-.06,13.43-2.46,11.4-13.23-1.89-10.04-4.58-20.19-8.73-29.48-9.49-21.22-26.21-34.02-49.37-37.58-6.53-1-13.27-1.03-19.9-.87-36.42.88-60.7,19.26-71.63,54.1-1.49,4.75-2.65,9.63-3.57,14.52-2.04,10.94-.85,12.5,10.05,12.55,21.62.12,43.25.03,64.88.03Z"/>
      <path d="m1665.58,370.71c.67,29.71-3.12,58.05-12.38,85.43-23.1,68.33-70.97,107.98-141.73,119.49-35.52,5.78-71.21,4.72-105.94-5.88-58.44-17.83-95.95-57.48-114.36-114.79-19.16-59.65-18.54-119.84,3.94-178.46,26.75-69.74,79.39-106.18,153.22-113.22,24.08-2.29,48-1.43,71.59,3.6,70.01,14.92,114.83,57.34,135.27,125.66,7.69,25.71,11.15,52.09,10.39,78.17Zm-119.31-.61h.05c0-17.65.21-35.31-.06-52.95-.27-17.97-6.2-33.97-18.27-47.43-21.03-23.44-52.59-31.24-82.04-20.44-28.63,10.5-47.49,36.42-48.09,68.35-.66,34.96-.34,69.94-.06,104.9.12,15.67,4.67,30.18,13.96,43.04,18.36,25.39,51.18,36.44,81.78,27.48,30.37-8.9,51.65-35.99,52.63-68,.56-18.3.1-36.63.1-54.95Z"/>
      <path d="m261.23,342.85c0,70.67,0,141.33,0,212,0,16.1-.04,16.16-16.41,17.82-29.27,2.98-58.56,2.93-87.81-.21-11.38-1.22-12.23-2.22-12.26-13.71-.1-40.67-.06-81.33-.06-122,0-102.33,0-204.66,0-306.99q0-17.95-17.57-18c-35-.03-70,0-105-.01-2.33,0-4.67.03-7-.07-9.32-.43-10.82-1.58-12.23-10.95-3.8-25.22-3.87-50.48.02-75.69,1.45-9.37,2.92-10.51,12.26-10.93,2.99-.13,6-.08,9-.08,119.33,0,238.66,0,357.99,0,21.18,0,19.57-.11,22.08,19.18,2.9,22.26,2.54,44.56-.97,66.75-1.66,10.51-2.83,11.68-13.54,11.72-36.33.14-72.66.07-109,.09q-19.46.01-19.48,19.11c0,70.67,0,141.33,0,212Z"/>
      <path d="m859.06,288.57c0,88.33,0,176.65,0,264.98q0,18.42-18.31,21.07c-15.63,2.3-31.22,2.61-46.72-.82-27.24-6.02-42.77-23.26-45.78-51.01-.75-6.94-1.05-13.96-1.05-20.95-.06-159.32-.05-318.65-.04-477.97,0-19.41.02-19.48,19.46-21.75,26.62-3.11,53.21-2.83,79.75.94,12.02,1.71,12.64,2.35,12.66,14.52.06,69.66.04,139.32.04,208.99,0,20.67,0,41.33,0,62Z"/>
      <path d="m1033.52,288.86c0,88.31,0,176.62,0,264.93q0,17.97-17.93,19.97c-27.28,3.05-54.54,3.22-81.72-1.02-10.85-1.7-11.36-2.43-11.6-13.43-.05-2.33-.03-4.67-.03-7,0-175.96,0-351.91.01-527.87,0-21.22-1.28-19.57,19.94-22.17,26.58-3.25,53.21-2.7,79.73,1.17,10.51,1.53,11.49,2.54,11.55,13.48.12,23.66.06,47.32.06,70.98,0,66.98,0,133.97,0,200.95Z"/>
      <path d="m1266.74,171.37c-2.74,5.71-4.61,10.21-6.97,14.43-29.08,52.08-58.27,104.09-87.35,156.17-8.5,15.22-8.52,12.4.19,27.94,34.54,61.62,69.16,123.2,103.71,184.82,2.55,4.55,4.75,9.31,7.75,15.22-3.94,1.04-6.62,2.07-9.39,2.44-32.86,4.4-65.71,4.71-98.66.53-8.55-1.08-13.65-4.64-17.78-12.1-28.11-50.71-56.6-101.21-84.96-151.78-7.33-13.08-14.47-26.27-22.07-39.19-3.38-5.73-3.75-10.68-.54-16.74,30.76-57.99,61.31-116.09,91.83-174.21,2.83-5.39,6.36-8.72,12.82-9.57,32.21-4.2,64.42-4.97,96.69-1.01,4.46.55,8.84,1.81,14.73,3.05Z"/>
    </g>
  </g>
</svg>