<?xml version="1.0" encoding="UTF-8"?>
<svg id="uuid-fa92f318-4451-4495-a2f5-91fb0e41d7b2" data-name="Capa 2" xmlns="http://www.w3.org/2000/svg" viewBox="0 0 2218.61 682.26">
  <g id="uuid-18297c81-68f0-4380-9bdf-8d301031f7fe" data-name="Capa 1">
    <g>
      <path d="m446.39,190.82c0-55.99-.08-111.98.14-167.97.02-4.94,1.12-10.33,3.33-14.7,2.95-5.83,8.79-8.02,15.46-8.01,34.33.07,68.65.03,102.98.03,49.16,0,98.32.25,147.47-.18,11.95-.1,21.17,8.66,20.52,20.7-.62,11.46.1,23-.24,34.48-.2,6.88-2.39,13.22-9.58,15.96-2.68,1.02-5.8,1.24-8.71,1.25-59.99.07-119.98.05-179.97.06q-7.62,0-7.63,7.75c0,23,0,45.99,0,68.99,0,7.17.01,7.19,7.07,7.19,51.82,0,103.65.23,155.47-.17,11.07-.09,20.16,8.92,19.6,19.43-.62,11.46-.56,23.01-.02,34.48.54,11.66-7.62,19.91-20.12,19.88-51.32-.11-102.65-.05-153.97-.04q-8.02,0-8.03,8.22c0,21.83.14,43.66-.1,65.49-.06,5.03,1.43,6.52,6.51,6.51,60.49-.16,120.98.09,181.47-.27,11.55-.07,17.97,7.34,18.1,18.2.14,11.83.08,23.66.02,35.49-.06,11.24-7.45,18.56-18.7,18.56-82.98,0-165.97-.18-248.95.16-16.22.07-21.92-7.8-22.02-22.51-.22-32.49-.07-64.99-.07-97.48,0-23.83,0-47.66,0-71.49Z"/>
      <path d="m208.14,74.28c-3.21-.14-5.32-.32-7.42-.32-56.83-.01-113.66.02-170.49-.05-7.33,0-13.76-2.3-16.86-9.74-.86-2.06-1.22-4.46-1.24-6.72-.12-12.83.43-25.69-.22-38.49C11.37,7.9,19.4,1.46,29.63.42c1.65-.17,3.33-.05,5-.05,96.49,0,192.98-.02,289.47.08,4.58,0,9.36.53,13.71,1.91,8.48,2.68,11.59,14.93,6.61,22.12-10.61,15.3-21.7,30.26-32.61,45.35-16.78,23.23-33.54,46.47-50.37,69.67-13.16,18.14-26.42,36.2-39.57,54.35-14.78,20.4-29.44,40.89-44.25,61.27-11.62,15.99-23.41,31.85-35.09,47.79-1.43,1.96-2.62,4.1-4.54,7.15h7.07c60.49,0,120.99.16,181.48-.16,9.56-.05,16.36,6.61,16.03,15.86-.48,13.48-.05,26.99-.15,40.49-.08,9.84-6.31,15.88-16.26,15.88-103.16.02-206.32,0-309.47.04-6.13,0-11.08-2.2-14.27-7.33-3.46-5.57-3.18-11.36.65-16.78,6.57-9.28,13.18-18.52,19.82-27.75,11.16-15.51,22.34-31.02,33.53-46.5,8.01-11.08,16.08-22.12,24.11-33.19,11.22-15.45,22.43-30.91,33.63-46.37,9.67-13.35,19.34-26.71,28.99-40.07,9.74-13.48,19.46-26.97,29.21-40.45,9.56-13.2,19.14-26.39,28.71-39.59,2.12-2.93,4.21-5.87,7.07-9.86Z"/>
      <path d="m1007.07,209.82c7.19-14.84,14.06-29.02,20.93-43.2,16.21-33.47,32.41-66.95,48.64-100.41,8.9-18.35,17.97-36.62,26.72-55.04,3.5-7.37,9.64-10.49,17.02-10.66,17.15-.39,34.33-.41,51.48-.02,11.72.27,19.11,8.59,18.34,17.8-.13,1.6-.57,3.27-1.28,4.71-17.18,35.04-34.37,70.07-51.67,105.05-16.06,32.47-32.34,64.83-48.39,97.3-15.9,32.17-31.61,64.44-47.48,96.62-6.76,13.71-13.93,27.22-20.5,41.02-3.02,6.34-8.34,8.61-14.35,8.86-6.39.26-11.4-3.6-14.22-9.18-12.04-23.8-23.89-47.7-35.66-71.63-15.18-30.87-30.18-61.82-45.32-92.7-14.35-29.28-28.76-58.53-43.16-87.78-12.21-24.8-24.47-49.59-36.67-74.4-2.03-4.14-3.9-8.36-5.8-12.56-4.18-9.23.65-19.43,10.45-21.62,3.99-.89,8.14-1.47,12.22-1.52,14.33-.18,28.66-.24,42.98-.02,9.16.14,16.7,3.34,20.51,12.6,1.82,4.41,4.1,8.62,6.18,12.92,9.16,18.97,18.33,37.94,27.47,56.91,8.65,17.94,17.26,35.89,25.9,53.83,8.71,18.09,17.46,36.17,26.15,54.27,2.35,4.9,4.47,9.9,6.79,14.81.6,1.27,1.58,2.36,2.72,4.03Z"/>
      <path d="m1451.42,382.31c-55.72-.54-103.33-20.42-141.11-61.52-35.59-38.73-52.29-85.38-49.62-137.67,2.65-51.85,23.68-95.93,62.46-131.26,37.19-33.88,81.58-50.13,130.91-49.21,105.52,1.97,188.97,88.72,186.13,195.45-2.76,103.81-89.33,185.29-188.77,184.21Zm-3.05-48.11c83.73.22,144.78-66.83,143.49-144.09-.67-40.04-16.47-74.2-46.08-101.76-27.64-25.72-61.05-38.2-97.86-37.66-75.97,1.12-143.62,63.7-139.35,150.11,3.56,71.83,62.79,132.73,139.8,133.39Z"/>
      <path d="m1836.29,310.06h7.93c59.66,0,119.32,0,178.98,0,9.01,0,12.76,3.81,12.77,13.02.01,15.17.03,30.33,0,45.5-.03,9.61-4.03,13.57-13.6,13.57-83.16,0-166.32-.08-249.48.08-14.55.03-19.03-7.51-20.44-19.57-.17-1.48-.05-3-.05-4.5,0-113.49,0-226.98.01-340.47,0-2.16-.16-4.4.32-6.47,2.03-8.84,4.96-11.03,14.24-11.04,19-.01,38,.14,56.99-.08,7.08-.08,12.5,3.94,12.48,12.39-.24,96.66-.16,193.31-.16,289.97v7.58Z"/>
      <path d="m2136.08,186.71c0-59.8,0-119.6,0-179.4q0-7.11,7.07-7.12c18.66,0,37.31.07,55.97-.03,12.07-.07,19.51,6.45,19.49,18.92-.24,118.94-.17,237.87-.06,356.81,0,4.64-1.14,6.42-6.11,6.36-19.99-.25-39.98-.32-59.96,0-7.77.12-16.6-7.01-16.55-16.63.32-59.63.16-119.27.16-178.9Z"/>
      <path d="m577.24,588.66c-3.69,14.36-7.25,27.72-10.53,41.14-3.01,12.33-5.71,24.73-8.57,37.1-.7,3.05-1.2,6.2-2.36,9.07-.46,1.14-2.47,2.3-3.8,2.33-8.32.21-16.67.3-24.98-.07-1.59-.07-4.02-2.05-4.48-3.61-3.04-10.44-5.61-21.01-8.41-31.51-3.73-13.99-7.61-27.94-11.3-41.94-3.02-11.47-5.82-23-8.8-34.48-1.65-6.36-3.31-12.74-5.29-19-1.82-5.79-.77-7.49,5.38-7.51,6-.02,12.03.39,17.98-.13,4.99-.44,6.9,2.03,7.85,6.13,4.06,17.49,8.12,34.98,12.11,52.49,2.3,10.09,4.46,20.22,6.68,30.33.55.14,1.09.27,1.64.41,1.23-4.3,2.54-8.59,3.69-12.92,2.53-9.54,5.05-19.09,7.44-28.67,2.99-11.99,5.83-24.01,8.77-36.01.71-2.88,1.07-5.99,2.44-8.52.81-1.5,3.26-2.87,5.05-2.96,6.48-.35,13.01.16,19.48-.26,4.19-.27,5.81,2.04,6.59,5.19,2.98,11.99,5.6,24.06,8.57,36.05,2.97,11.98,6.22,23.89,9.27,35.85,1.16,4.57,2.1,9.2,4.27,13.96,1.2-3.97,2.59-7.89,3.56-11.92,2.3-9.44,4.36-18.94,6.59-28.4,2.46-10.42,5.03-20.8,7.5-31.22.95-4.01,1.9-8.03,2.57-12.09,1.03-6.21,2.12-7.31,8.22-7.32,6.66,0,13.33.08,19.99-.02,3.15-.05,4.37,1.29,3.53,4.27-3.66,12.99-7.49,25.94-11.03,38.96-3.07,11.28-5.72,22.68-8.74,33.97-3.01,11.27-6.28,22.48-9.39,33.73-2.15,7.79-4.41,15.55-6.21,23.42-.66,2.87-1.82,3.95-4.61,3.93-8-.07-16,.13-23.99-.18-1.35-.05-3.46-1.83-3.82-3.18-3.58-13.54-6.85-27.15-10.22-40.75-3.33-13.42-6.65-26.85-10.08-40.25-.43-1.68-1.49-3.2-2.56-5.43Z"/>
      <path d="m1676.44,591.03c-.09,1.9-.26,3.8-.26,5.7-.02,25.16-.12,50.32.08,75.48.04,4.72-1.24,6.61-6.16,6.31-5.98-.36-12-.3-17.99-.02-4.51.22-6.03-1.28-6-5.95.17-37.16.09-74.32.09-111.48,0-5.5.1-11-.02-16.5-.07-3.21,1.28-4.47,4.47-4.43,7.66.11,15.34-.15,22.99.17,1.74.07,4.05,1.48,5,2.98,10.62,16.65,21.06,33.43,31.49,50.21,6.95,11.19,13.8,22.44,20.74,33.64.56.9,1.46,1.58,3.22,3.42v-7.06c0-25.66.13-51.32-.11-76.98-.05-5.05,1.38-6.82,6.47-6.44,5.63.42,11.33.3,16.99.03,4.78-.22,6.61,1.82,6.57,6.45-.11,12.33-.03,24.66-.03,36.99,0,29.33,0,58.66,0,87.98,0,6.81-.09,6.88-7.06,6.89-6.5.01-13.01-.22-19.49.09-3.84.18-6.2-1.31-8.12-4.42-8.98-14.58-18.04-29.1-27.08-43.64-8.22-13.22-16.45-26.44-24.68-39.66-.37.08-.73.15-1.1.23Z"/>
      <path d="m2047.03,613.48c9.01,4.08,14.38,11.4,16.56,20.43,1.77,7.33,1.68,15.11,2.56,22.67.81,6.98,1.81,13.95,2.79,21.42-.65.08-2.05.39-3.45.41-4.5.07-9-.03-13.49.04-16.9.29-11.98.16-15.49-15.06-1.55-6.72-1.12-13.87-2.38-20.67-2.2-11.88-7.22-17.13-18.67-16.82-8.99.25-18,.22-26.99-.02-4.43-.12-6.21,1.15-6.11,5.93.29,13.82,0,27.65.16,41.48.05,3.84-1.12,5.37-5.12,5.22-6.99-.26-13.99-.18-20.99-.03-3.19.07-4.39-1.05-4.38-4.33.07-43.15.08-86.3,0-129.45,0-3.52,1.33-4.58,4.72-4.57,23.49.11,46.99-.33,70.47.22,15.68.37,28.43,7.11,35.84,21.6,6.32,12.36,4.85,36.15-6.83,45.16-2.81,2.17-5.85,4.05-9.2,6.36Zm-42.71-11.12v-.18c4.99,0,9.98.11,14.96-.02,9.08-.25,14.18-4.25,16.32-13.5,1.71-7.37-.48-17.61-8.04-21.16-3.91-1.84-8.53-2.71-12.88-2.92-8.96-.43-17.95-.09-26.93-.15-3.83-.02-5.34,1.86-5.31,5.55.07,9.31.1,18.63-.01,27.94-.04,3.23,1.29,4.51,4.43,4.47,5.82-.08,11.64-.02,17.46-.02Z"/>
      <path d="m1451.25,613.56c11.77,6.57,16.58,17.06,17.25,30.47.56,11.25,2.49,22.44,3.88,34.29-8.43,0-17.85.09-27.27-.13-.99-.02-2.61-1.71-2.79-2.82-.95-5.69-1.39-11.47-2.28-17.17-1.12-7.14-1.81-14.46-3.98-21.29-2.11-6.67-7.15-10.97-14.86-10.94-10.16.04-20.33.09-30.49-.07-3.58-.06-4.52,1.42-4.49,4.77.13,14.16-.09,28.32.14,42.48.07,4.19-1.33,5.53-5.43,5.36-6.49-.28-13-.32-19.48.01-4.48.23-5.66-1.43-5.63-5.74.16-26.65.08-53.31.08-79.97,0-15.66.12-31.32-.07-46.98-.05-4.3,1.26-5.79,5.7-5.75,22.66.2,45.32-.15,67.97.18,16.52.24,30.19,6.7,37.4,22.21,6.52,14.02,4.88,28.26-3.75,41.04-2.72,4.03-7.67,6.57-11.9,10.04Zm-43.36-11.19c2.83,0,5.67.03,8.5,0,2.83-.04,5.68.02,8.49-.31,1.9-.23,3.79-.92,5.58-1.65,6.02-2.45,7.5-7.66,8.54-13.48,1.44-8.04-1.54-17.52-9.23-20.09-3.73-1.24-7.73-2.14-11.64-2.28-9.15-.33-18.33-.02-27.49-.15-3.26-.05-4.42,1.22-4.38,4.42.12,9.83.12,19.66,0,29.49-.04,3.08,1.22,4.13,4.14,4.08,5.83-.1,11.66-.03,17.5-.02Z"/>
      <path d="m268.63,613.36c2.35,1.62,4.54,2.98,6.55,4.56,7.92,6.22,10.55,14.99,11.02,24.47.58,11.88,1.46,23.67,5.38,36.05-7.02,0-13.77,0-20.51,0-11.39,0-11.48,0-12.78-11.24-.85-7.39-1.34-14.83-2.13-22.23-1.07-9.98-6.61-20.1-20.08-19.14-8.95.64-17.99.25-26.98.06-3.69-.08-4.93,1.17-4.88,4.9.18,14.16-.04,28.33.14,42.49.05,3.83-1.02,5.4-5.05,5.23-6.32-.27-12.68-.36-18.99.02-4.98.31-6.57-1.24-6.53-6.39.22-33.82.11-67.65.11-101.48,0-8.33.15-16.67-.06-24.99-.1-3.98,1.07-5.61,5.35-5.57,22.66.17,45.35-.59,67.98.29,19.71.76,33.76,7.29,40.06,28.91,4,13.71,1.23,33.83-17.11,42.96-.4.2-.74.54-1.5,1.1Zm-43.07-11.01c0-.08,0-.16,0-.23,5.66,0,11.32.12,16.97-.07,1.9-.06,3.84-.76,5.63-1.47,9.99-3.97,10.57-17.9,7-26.62-3.49-8.53-11.82-8.53-18.86-9.26-9.22-.96-18.61-.17-27.93-.28-3.03-.04-4.13,1.2-4.1,4.15.09,9.98.09,19.97,0,29.95-.03,2.79,1.09,3.9,3.82,3.86,5.82-.08,11.65-.02,17.47-.02Z"/>
      <path d="m107.45,664.56c-2.75,2.63-4.84,4.91-7.21,6.84-12.53,10.2-26.84,12.42-42.41,9.55-9.52-1.76-18.39-4.8-26.51-10.23-13.09-8.74-20.89-20.95-25.47-35.79-3.04-9.83-4.34-19.75-3.59-29.9,2.06-27.98,13.96-53.88,45.04-64.11,22.9-7.54,51.74-4.83,69.93,17.16,5.61,6.78,8.68,14.7,10.84,23.05.92,3.55-.26,5.57-4.55,5.39-6.82-.29-13.66-.13-20.48-.05-2.75.03-4.47-.49-5.42-3.67-2.34-7.82-7.35-13.84-15.14-16.48-18.81-6.38-35.92-.88-43.53,17.21-8.19,19.46-8.3,39.66,3.33,58.52,6.68,10.83,24.05,16.34,36.41,13,9.19-2.48,16.36-6.64,20.49-15.39,5.39-11.44,4.33-13.21-7.99-13.2-5,0-10-.1-14.99.02-2.94.07-4.24-.98-4.14-4.05.16-4.83.13-9.66,0-14.49-.07-2.7.85-3.9,3.72-3.89,16.99.08,33.98.07,50.97.01,2.54,0,3.56.95,3.55,3.52-.05,22.32-.05,44.64.01,66.96,0,2.7-.91,4.08-3.74,3.9-1.16-.07-2.33,0-3.5,0q-13.04.02-15.62-13.88Z"/>
      <path d="m954.16,609.28c0,21.15-.1,42.31.09,63.46.04,4.35-1.26,5.95-5.67,5.77-6.98-.28-13.99-.21-20.98-.03-3.91.1-5.27-1.46-5.24-5.31.13-15.82-.07-31.65.12-47.47.05-4.24-1.13-5.91-5.63-5.84-14.49.24-28.98.18-43.47.03-3.84-.04-5.21,1.14-5.16,5.14.2,15.82-.06,31.65.17,47.47.06,4.42-1.01,6.3-5.78,6.03-6.64-.37-13.33-.34-19.98,0-4.85.24-6.32-1.56-6.3-6.33.15-38.98.08-77.96.09-116.93,0-3.33-.04-6.66.05-9.99.09-3.38,1.68-5.16,5.29-5.1,7.16.1,14.33.22,21.48-.06,4.03-.16,5.17,1.39,5.13,5.21-.15,14.32.09,28.65-.15,42.97-.07,4.41,1.33,5.75,5.72,5.68,14.15-.24,28.32-.25,42.47,0,4.58.08,6.16-1.35,6.09-5.95-.22-13.32-.09-26.65-.07-39.98.01-7.43.47-7.85,8.05-7.86,6,0,12,.21,17.99-.07,4.33-.2,5.84,1.28,5.8,5.7-.18,21.15-.08,42.31-.08,63.46Z"/>
      <path d="m460.32,610.23c1.19,14.94-2.2,28.81-10.06,41.3-8.02,12.75-18.95,22.23-33.67,26.81-9.09,2.83-18.34,4.44-27.85,3.77-26.07-1.83-48.99-16.09-58.93-43.84-5.11-14.27-5.37-29-3.21-43.26,3.56-23.49,15.44-42.22,38.18-52.25,10.05-4.43,20.72-5.23,31.61-4.93,27.28.75,46.53,13.45,57.83,38.21,4.97,10.88,7.07,22.34,6.09,34.19Zm-67.04-46.1c-12.84-.63-22.4,4.53-29.25,15.26-5.27,8.24-6.79,17.52-7.55,26.84-.46,5.66.67,11.52,1.6,17.21,2.57,15.7,10.11,27.04,26.64,31.2,12.54,3.15,23.06.2,32.38-8.27,9.36-8.51,11.83-20.02,12.77-31.77.49-6.15-.88-12.49-1.65-18.71-2.1-16.94-14.91-33.33-34.94-31.76Z"/>
      <path d="m1808.08,609.16c0-20.83.12-41.65-.09-62.48-.05-4.8.97-6.67,6.29-6.63,30.15.26,60.31.12,90.47.13,6.38,0,7.16.8,7.21,7.19.04,4,.02,8,0,12-.02,7.01-.05,7.06-6.89,7.06-19.49.01-38.99,0-58.48.01-6.59,0-6.6.02-6.62,6.73-.02,5.66.19,11.34-.07,16.99-.2,4.3,1.29,5.84,5.72,5.79,17.99-.2,35.99-.09,53.98-.07,6.53,0,6.53.03,6.55,6.73,0,3.5,0,7,0,10.5-.02,7-.02,7.02-6.82,7.03-17.66.01-35.32.18-52.98-.11-5.04-.08-6.83,1.34-6.49,6.45.4,6.14.09,12.32.1,18.49q0,7.19,7,7.21c19.83,0,39.65,0,59.48.01,6.81,0,7.46.65,7.51,7.4.03,4.33-.25,8.68.07,12.99.36,4.77-1.73,5.96-6.16,5.94-31.49-.14-62.98-.14-94.47,0-4.11.02-5.44-1.21-5.41-5.38.18-21.32.08-42.65.08-63.98Z"/>
      <path d="m2159.23,537.11c12.54-.1,24.27,2.64,34.73,9.17,11.41,7.13,18.21,17.46,18.51,31.41.06,2.95-.53,4.71-4.07,4.62-7.33-.19-14.67.1-21.98-.2-1.43-.06-3.9-1.77-4.01-2.89-.96-9.94-7.74-14.62-16.1-16.42-6-1.29-12.81-1.18-18.78.26-8.53,2.05-11.89,7.84-11.31,15.68.37,4.93,6.38,9.53,13.5,11.4,14.32,3.75,28.69,7.42,42.73,12.08,9.97,3.31,17.67,10.13,22.01,20.05,5.84,13.34,4.09,26.15-3.56,38.16-7.95,12.47-20.35,17.8-34.37,19.85-6.69.98-13.53,2.09-20.22,1.72-18.33-1.02-35.15-5.91-47.03-21.45-4.12-5.39-6.71-11.29-7.26-18.06-.03-.33-.05-.66-.08-1q-.92-9.29,8.88-9.29c5.16,0,10.33.13,15.49-.04,3.81-.12,5.32,1.7,5.77,5.27,1.24,9.94,8.81,16.5,18.66,19.02,8.66,2.22,16.82,1.37,24.9-.95,7.13-2.05,12.53-9.38,12.19-14.73-.36-5.69-6.84-12.35-14.13-14.47-13.89-4.05-27.92-7.68-41.65-12.23-8.84-2.93-16.65-7.85-21.68-16.32-5.56-9.36-5.95-19.58-3.1-29.32,4.71-16.12,16.7-25.15,32.92-28.5,6.28-1.3,12.71-1.89,19.07-2.81Z"/>
      <path d="m1189.91,678.29c8.2-21.28,16.04-41.31,23.62-61.44,7.08-18.78,13.86-37.66,20.83-56.48,1.94-5.25,4.02-10.44,6.11-15.63,1.27-3.15,3.22-4.87,7.1-4.66,6.81.38,13.67.46,20.47-.01,4.64-.32,6.53,1.96,7.9,5.65,7.41,20.05,14.78,40.12,22.27,60.14,8.41,22.49,16.95,44.92,25.38,67.4.5,1.33.48,2.84.83,5.04-10.33,0-20.09.06-29.85-.11-.87-.02-2.12-1.44-2.49-2.47-2.75-7.58-5.46-15.18-7.87-22.87-1-3.17-2.52-4.65-5.96-4.62-13.99.12-27.98.15-41.96-.02-3.56-.04-4.95,1.7-5.95,4.67-2.57,7.63-5.24,15.23-8.02,22.79-.38,1.04-1.6,2.5-2.45,2.52-9.61.18-19.22.11-29.94.11Zm68.45-99.77l-1.72.34c-5.24,14.82-10.47,29.64-15.83,44.8h33.22c-5.4-15.55-10.54-30.34-15.67-45.14Z"/>
      <path d="m1071.91,609.59c0-21.16.1-42.33-.08-63.49-.04-4.49,1.26-6.08,5.95-6.02,17.99.25,36-.04,53.99.15,13.47.14,26.75,2.23,36.67,12.19,4.83,4.85,8.94,11.25,11.15,17.7,4.33,12.63,3.18,25.56-3.23,37.46-6.4,11.88-16.42,19.44-30.05,20.63-12.87,1.13-25.82,1.38-38.74,1.64-4.17.08-5.42,1.4-5.35,5.49.22,12.66-.05,25.33.15,37.99.06,3.92-1.17,5.32-5.11,5.17-6.66-.25-13.34-.26-19.99,0-4.14.17-5.46-1.3-5.43-5.43.16-21.16.08-42.33.08-63.49Zm30.38-24.64c0,5.16.19,10.33-.06,15.48-.2,4.01,1.04,5.85,5.32,5.5,8.23-.67,16.48-1.03,24.72-1.59,11.37-.77,16.08-4.12,19.01-15.06,2.44-9.1-2.44-20.98-13.64-22.74-10.25-1.62-20.77-1.42-31.17-2.1-3.42-.22-4.28,1.5-4.21,4.54.12,5.32.03,10.65.03,15.98Z"/>
      <path d="m1555.97,540.18c16.99,0,33.98.11,50.96-.08,4.14-.05,5.65,1.29,5.41,5.43-.28,4.81-.37,9.68.02,14.48.4,4.93-1.06,6.78-6.3,6.55-9.31-.42-18.66.13-27.97-.22-4.93-.18-6.24,1.64-6.22,6.33.15,32.81.08,65.62.08,98.43q0,7.3-7.12,7.33c-6.16.01-12.34-.25-18.48.09-4.78.27-6.29-1.36-6.26-6.21.19-32.98.1-65.95.1-98.93q0-6.93-6.82-6.95c-9.83,0-19.66-.13-29.48.05-4.08.08-5.77-1.36-5.55-5.52.24-4.65,0-9.32.06-13.99.07-5.94.96-6.8,7.1-6.8,16.82-.02,33.64,0,50.47,0Z"/>
      <path d="m746.59,540.18c16.82,0,33.64.1,50.45-.07,4.12-.04,5.68,1.3,5.47,5.44-.26,5.15-.26,10.33,0,15.48.21,4.07-1.14,5.6-5.35,5.49-9.65-.25-19.32.17-28.97-.18-4.97-.18-6.15,1.68-6.13,6.34.16,32.97.09,65.94.08,98.91,0,6.83-.02,6.84-6.92,6.86-5.99.01-11.99.01-17.98,0-6.79-.02-6.85-.07-6.86-7.09,0-32.47,0-64.94,0-97.41q0-7.49-7.36-7.5c-9.32,0-18.65-.17-27.97.07-4.01.1-5.24-1.37-5.05-5.22.26-5.15.3-10.33,0-15.48-.26-4.33,1.18-5.79,5.64-5.73,16.98.23,33.97.09,50.95.1Z"/>
      <path d="m1334.02,192.11c-2.39-64.41,54.03-114.65,110.98-116.2,69.34-1.88,122.69,54.04,121.45,116.59-.66,32.94-11.76,60.38-35.03,83.66-23.8,23.81-53.24,34.13-85.51,33.36-58.25-1.4-113.62-49.37-111.89-117.4Zm116.85,88.23c47.87.75,84.66-38.21,87.25-80.97,3.43-56.57-40.67-92.66-83.07-94.54-23.66-1.05-46.05,6.46-64.03,23.42-17.95,16.94-28,38.11-28.54,62.44-1.04,46.66,35.92,89.72,88.39,89.64Z"/>
      <path d="m1512.43,192.31c1.8,36.53-28.88,62.83-59.06,63.16-35.54.39-64.72-23.94-65.5-62.97-.66-32.96,28.39-64.11,66.31-62.63,28.95,1.13,60.53,28.42,58.25,62.44Zm-16.21.92c.75-27.28-21.89-47.28-47.52-47-22.94.25-44.79,19.8-44.78,46.32.01,28.25,22.13,46.59,44.3,46.71,27.55.15,48.03-19.73,47.99-46.04Z"/>
    </g>
  </g>
</svg>